<svg width="800" y="0" x="0" version="1.1" preserveAspectRatio="none" xmlns="http://www.w3.org/2000/svg" height="230" xmlns:xlink="http://www.w3.org/1999/xlink" viewBox="0 0 800 230"  >
<g class="clusterblast-cluster" label="Query sequence"  >
<text class="clusterblast-acc" x="5" y="20"  >
Query sequence</text>
<line x1="10" style="stroke:grey; stroke-width:1; " y2="35" x2="778.0" y1="35"  />
<polygon class="clusterblast-orf" points="0,40 4,35 0,30 0,40 " description="&lt;b&gt;ctg26_1&lt;/b&gt;&lt;br&gt;ctg26 1&lt;br&gt;Location: 1 - 214" locus_tag="ctg26_1" style="stroke:black; stroke-width:1; fill:white; " id="dummy-1_q0_0_all"  />
<polygon class="clusterblast-orf" points="4,40 11,40 16,35 11,30 4,30 4,40 " description="&lt;b&gt;ctg26_2&lt;/b&gt;&lt;br&gt;ctg26 2&lt;br&gt;Location: 213 - 813" locus_tag="ctg26_2" style="stroke:black; stroke-width:1; fill:white; " id="dummy-1_q1_0_all"  />
<polygon class="clusterblast-orf" points="30,40 30,40 35,35 30,30 30,30 30,40 " description="&lt;b&gt;ctg26_3&lt;/b&gt;&lt;br&gt;ctg26 3&lt;br&gt;Location: 1499 - 1724" locus_tag="ctg26_3" style="stroke:black; stroke-width:1; fill:white; " id="dummy-1_q2_0_all"  />
<polygon class="clusterblast-orf" points="35,40 65,40 70,35 65,30 35,30 35,40 " description="&lt;b&gt;ctg26_4&lt;/b&gt;&lt;br&gt;ctg26 4&lt;br&gt;Location: 1738 - 3415" locus_tag="ctg26_4" style="stroke:black; stroke-width:1; fill:white; " id="dummy-1_q3_0_all"  />
<polygon class="clusterblast-orf" points="73,40 89,40 94,35 89,30 73,30 73,40 " description="&lt;b&gt;ctg26_5&lt;/b&gt;&lt;br&gt;ctg26 5&lt;br&gt;Location: 3561 - 4605" locus_tag="ctg26_5" style="stroke:black; stroke-width:1; fill:white; " id="dummy-1_q4_0_all"  />
<polygon class="clusterblast-orf" points="96,40 147,40 152,35 147,30 96,30 96,40 " description="&lt;b&gt;ctg26_6&lt;/b&gt;&lt;br&gt;ctg26 6&lt;br&gt;Location: 4686 - 7443" locus_tag="ctg26_6" style="stroke:black; stroke-width:1; fill:white; " id="dummy-1_q5_0_all"  />
<polygon class="clusterblast-orf" points="156,40 156,40 161,35 156,30 156,30 156,40 " description="&lt;b&gt;ctg26_7&lt;/b&gt;&lt;br&gt;ctg26 7&lt;br&gt;Location: 7637 - 7877" locus_tag="ctg26_7" style="stroke:black; stroke-width:1; fill:white; " id="dummy-1_q6_0_all"  />
<polygon class="clusterblast-orf" points="163,40 173,40 178,35 173,30 163,30 163,40 " description="&lt;b&gt;ctg26_8&lt;/b&gt;&lt;br&gt;ctg26 8&lt;br&gt;Location: 7963 - 8698" locus_tag="ctg26_8" style="stroke:black; stroke-width:1; fill:white; " id="dummy-1_q7_0_all"  />
<polygon class="clusterblast-orf" points="178,40 195,40 200,35 195,30 178,30 178,40 " description="&lt;b&gt;ctg26_9&lt;/b&gt;&lt;br&gt;ctg26 9&lt;br&gt;Location: 8690 - 9779" locus_tag="ctg26_9" style="stroke:black; stroke-width:1; fill:white; " id="dummy-1_q8_0_all"  />
<polygon class="clusterblast-orf" points="201,40 266,40 271,35 266,30 201,30 201,40 " description="&lt;b&gt;ctg26_10&lt;/b&gt;&lt;br&gt;ctg26 10&lt;br&gt;Location: 9816 - 13233" locus_tag="ctg26_10" style="stroke:black; stroke-width:1; fill:white; " id="dummy-1_q9_0_all"  />
<polygon class="clusterblast-orf" points="272,40 380,40 385,35 380,30 272,30 272,40 " description="&lt;b&gt;ctg26_11&lt;/b&gt;&lt;br&gt;ctg26 11&lt;br&gt;Location: 13254 - 18792" locus_tag="ctg26_11" style="stroke:black; stroke-width:1; fill:white; " id="dummy-1_q10_0_all"  />
<polygon class="clusterblast-orf" points="387,40 404,40 409,35 404,30 387,30 387,40 " description="&lt;b&gt;ctg26_12&lt;/b&gt;&lt;br&gt;ctg26 12&lt;br&gt;Location: 18856 - 19957" locus_tag="ctg26_12" style="stroke:black; stroke-width:1; fill:white; " id="dummy-1_q11_0_all"  />
<polygon class="clusterblast-orf" points="409,40 420,40 425,35 420,30 409,30 409,40 " description="&lt;b&gt;ctg26_13&lt;/b&gt;&lt;br&gt;ctg26 13&lt;br&gt;Location: 19928 - 20699" locus_tag="ctg26_13" style="stroke:black; stroke-width:1; fill:white; " id="dummy-1_q12_0_all"  />
<polygon class="clusterblast-orf" points="427,40 441,40 446,35 441,30 427,30 427,40 " description="&lt;b&gt;ctg26_14&lt;/b&gt;&lt;br&gt;ctg26 14&lt;br&gt;Location: 20797 - 21742" locus_tag="ctg26_14" style="stroke:black; stroke-width:1; fill:white; " id="dummy-1_q13_0_all"  />
<polygon class="clusterblast-orf" points="449,40 456,40 461,35 456,30 449,30 449,40 " description="&lt;b&gt;ctg26_15&lt;/b&gt;&lt;br&gt;ctg26 15&lt;br&gt;Location: 21869 - 22481" locus_tag="ctg26_15" style="stroke:black; stroke-width:1; fill:white; " id="dummy-1_q14_0_all"  />
<polygon class="clusterblast-orf" points="470,40 502,40 507,35 502,30 470,30 470,40 " description="&lt;b&gt;ctg26_16&lt;/b&gt;&lt;br&gt;ctg26 16&lt;br&gt;Location: 22927 - 24706" locus_tag="ctg26_16" style="stroke:black; stroke-width:1; fill:white; " id="dummy-1_q15_0_all"  />
<polygon class="clusterblast-orf" points="505,35 510,30 514,30 514,40 510,40 505,35 " description="&lt;b&gt;ctg26_17&lt;/b&gt;&lt;br&gt;ctg26 17&lt;br&gt;Location: 24641 - 25058" locus_tag="ctg26_17" style="stroke:black; stroke-width:1; fill:white; " id="dummy-1_q16_0_all"  />
<polygon class="clusterblast-orf" points="524,35 529,30 534,30 534,40 529,40 524,35 " description="&lt;b&gt;ctg26_18&lt;/b&gt;&lt;br&gt;ctg26 18&lt;br&gt;Location: 25555 - 26041" locus_tag="ctg26_18" style="stroke:black; stroke-width:1; fill:white; " id="dummy-1_q17_0_all"  />
<polygon class="clusterblast-orf" points="536,40 552,40 557,35 552,30 536,30 536,40 " description="&lt;b&gt;ctg26_19&lt;/b&gt;&lt;br&gt;ctg26 19&lt;br&gt;Location: 26111 - 27140" locus_tag="ctg26_19" style="stroke:black; stroke-width:1; fill:#d81515; " id="dummy-1_q18_0_all"  />
<polygon class="clusterblast-orf" points="568,35 573,30 576,30 576,40 573,40 568,35 " description="&lt;b&gt;ctg26_20&lt;/b&gt;&lt;br&gt;ctg26 20&lt;br&gt;Location: 27704 - 28061" locus_tag="ctg26_20" style="stroke:black; stroke-width:1; fill:white; " id="dummy-1_q19_0_all"  />
<polygon class="clusterblast-orf" points="576,40 587,40 592,35 587,30 576,30 576,40 " description="&lt;b&gt;ctg26_21&lt;/b&gt;&lt;br&gt;ctg26 21&lt;br&gt;Location: 28082 - 28877" locus_tag="ctg26_21" style="stroke:black; stroke-width:1; fill:#d81515; " id="dummy-1_q20_0_all"  />
<polygon class="clusterblast-orf" points="597,40 599,40 604,35 599,30 597,30 597,40 " description="&lt;b&gt;ctg26_22&lt;/b&gt;&lt;br&gt;ctg26 22&lt;br&gt;Location: 29098 - 29440" locus_tag="ctg26_22" style="stroke:black; stroke-width:1; fill:white; " id="dummy-1_q21_0_all"  />
<polygon class="clusterblast-orf" points="606,40 617,40 622,35 617,30 606,30 606,40 " description="&lt;b&gt;ctg26_23&lt;/b&gt;&lt;br&gt;ctg26 23&lt;br&gt;Location: 29560 - 30298" locus_tag="ctg26_23" style="stroke:black; stroke-width:1; fill:white; " id="dummy-1_q22_0_all"  />
<polygon class="clusterblast-orf" points="625,40 636,40 641,35 636,30 625,30 625,40 " description="&lt;b&gt;ctg26_24&lt;/b&gt;&lt;br&gt;ctg26 24&lt;br&gt;Location: 30457 - 31222" locus_tag="ctg26_24" style="stroke:black; stroke-width:1; fill:white; " id="dummy-1_q23_0_all"  />
<polygon class="clusterblast-orf" points="643,40 645,40 650,35 645,30 643,30 643,40 " description="&lt;b&gt;ctg26_25&lt;/b&gt;&lt;br&gt;ctg26 25&lt;br&gt;Location: 31321 - 31660" locus_tag="ctg26_25" style="stroke:black; stroke-width:1; fill:white; " id="dummy-1_q24_0_all"  />
<polygon class="clusterblast-orf" points="664,35 668,30 668,40 664,35 " description="&lt;b&gt;ctg26_26&lt;/b&gt;&lt;br&gt;ctg26 26&lt;br&gt;Location: 32349 - 32583" locus_tag="ctg26_26" style="stroke:black; stroke-width:1; fill:white; " id="dummy-1_q25_0_all"  />
<polygon class="clusterblast-orf" points="670,35 675,30 688,30 688,40 675,40 670,35 " description="&lt;b&gt;ctg26_27&lt;/b&gt;&lt;br&gt;ctg26 27&lt;br&gt;Location: 32668 - 33511" locus_tag="ctg26_27" style="stroke:black; stroke-width:1; fill:white; " id="dummy-1_q26_0_all"  />
<polygon class="clusterblast-orf" points="688,35 693,30 702,30 702,40 693,40 688,35 " description="&lt;b&gt;ctg26_28&lt;/b&gt;&lt;br&gt;ctg26 28&lt;br&gt;Location: 33524 - 34196" locus_tag="ctg26_28" style="stroke:black; stroke-width:1; fill:white; " id="dummy-1_q27_0_all"  />
<polygon class="clusterblast-orf" points="702,35 707,30 719,30 719,40 707,40 702,35 " description="&lt;b&gt;ctg26_29&lt;/b&gt;&lt;br&gt;ctg26 29&lt;br&gt;Location: 34208 - 35066" locus_tag="ctg26_29" style="stroke:black; stroke-width:1; fill:white; " id="dummy-1_q28_0_all"  />
<polygon class="clusterblast-orf" points="723,40 723,40 728,35 723,30 723,30 723,40 " description="&lt;b&gt;ctg26_30&lt;/b&gt;&lt;br&gt;ctg26 30&lt;br&gt;Location: 35253 - 35466" locus_tag="ctg26_30" style="stroke:black; stroke-width:1; fill:white; " id="dummy-1_q29_0_all"  />
<polygon class="clusterblast-orf" points="736,40 775,40 780,35 775,30 736,30 736,40 " description="&lt;b&gt;ctg26_31&lt;/b&gt;&lt;br&gt;ctg26 31&lt;br&gt;Location: 35868 - 38001" locus_tag="ctg26_31" style="stroke:black; stroke-width:1; fill:white; " id="dummy-1_q30_0_all"  />
</g>
<g description="BGC0001292_c1: A33853 (8% of genes show similarity), other" class="clusterblast-cluster" label="BGC0001292"  >
<text class="clusterblast-acc" x="5" y="70"  >
<a xlink:href="https://mibig.secondarymetabolites.org/go/BGC0001292/1" target="_blank">BGC0001292</a>:                                                                           A33853 (8% of genes show similarity), other</text>
<line x1="10" style="stroke:grey; stroke-width:1; " y2="85" x2="778.0" y1="85"  />
</g>
<g id="a1_000"  >
<polygon class="clusterblast-orf" points="63,85 68,80 134,80 134,90 68,90 63,85 " description="&lt;b&gt;ALE27513.1&lt;/b&gt;&lt;br&gt;putative polyketide synthase&lt;br&gt;Location: 37257 - 33792" locus_tag="ALE27513.1" style="stroke:black; stroke-width:1; fill:white; " id="dummy-1_h1_7_0"  />
</g>
<g id="a1_001"  >
<polygon class="clusterblast-orf" points="134,85 139,80 153,80 153,90 139,90 134,85 " description="&lt;b&gt;ALE27512.1&lt;/b&gt;&lt;br&gt;putative thioesterase&lt;br&gt;Location: 33795 - 32872" locus_tag="ALE27512.1" style="stroke:black; stroke-width:1; fill:white; " id="dummy-1_h1_7_1"  />
</g>
<g id="a1_002"  >
<polygon class="clusterblast-orf" points="204,90 236,90 241,85 236,80 204,80 204,90 " description="&lt;b&gt;ALE27511.1&lt;/b&gt;&lt;br&gt;LuxR family transcriptional regulator&lt;br&gt;Location: 30384 - 28615" locus_tag="ALE27511.1" style="stroke:black; stroke-width:1; fill:white; " id="dummy-1_h1_7_2"  />
</g>
<g id="a1_003"  >
<polygon class="clusterblast-orf" points="232,85 237,80 257,80 257,90 237,90 232,85 " description="&lt;b&gt;ALE27510.1&lt;/b&gt;&lt;br&gt;3-deoxy-D-arabino-heptulosonate 7-phosphate synthase&lt;br&gt;Location: 29036 - 27801" locus_tag="ALE27510.1" style="stroke:black; stroke-width:1; fill:white; " id="dummy-1_h1_7_3"  />
</g>
<g id="a1_004"  >
<polygon class="clusterblast-orf" points="271,85 276,80 297,80 297,90 276,90 271,85 " description="&lt;b&gt;ALE27509.1&lt;/b&gt;&lt;br&gt;anthranilate synthase&lt;br&gt;Location: 27145 - 25859" locus_tag="ALE27509.1" style="stroke:black; stroke-width:1; fill:white; " id="dummy-1_h1_7_4"  />
</g>
<g id="a1_005"  >
<polygon class="clusterblast-orf" points="297,85 302,80 311,80 311,90 302,90 297,85 " description="&lt;b&gt;ALE27508.1&lt;/b&gt;&lt;br&gt;isochorismatase&lt;br&gt;Location: 25862 - 25176" locus_tag="ALE27508.1" style="stroke:black; stroke-width:1; fill:white; " id="dummy-1_h1_7_5"  />
</g>
<g id="a1_006"  >
<polygon class="clusterblast-orf" points="313,85 318,80 330,80 330,90 318,90 313,85 " description="&lt;b&gt;ALE27507.1&lt;/b&gt;&lt;br&gt;2,3-dihydro-3-hydroxyanthranilic acid dehydrogenase&lt;br&gt;Location: 25085 - 24258" locus_tag="ALE27507.1" style="stroke:black; stroke-width:1; fill:white; " id="dummy-1_h1_7_6"  />
</g>
<g id="a1_007"  >
<polygon class="clusterblast-orf" points="330,85 335,80 361,80 361,90 335,90 330,85 " description="&lt;b&gt;ALE27506.1&lt;/b&gt;&lt;br&gt;amidohydrolase&lt;br&gt;Location: 24252 - 22756" locus_tag="ALE27506.1" style="stroke:black; stroke-width:1; fill:white; " id="dummy-1_h1_7_7"  />
</g>
<g id="a1_008"  >
<polygon class="clusterblast-orf" points="361,85 366,80 367,80 367,90 366,90 361,85 " description="&lt;b&gt;ALE27505.1&lt;/b&gt;&lt;br&gt;PCP&lt;br&gt;Location: 22735 - 22454" locus_tag="ALE27505.1" style="stroke:black; stroke-width:1; fill:white; " id="dummy-1_h1_7_8"  />
</g>
<g id="a1_009"  >
<polygon class="clusterblast-orf" points="369,85 374,80 404,80 404,90 374,90 369,85 " description="&lt;b&gt;ALE27504.1&lt;/b&gt;&lt;br&gt;3-HPA:AMP ligase&lt;br&gt;Location: 22356 - 20677" locus_tag="ALE27504.1" style="stroke:black; stroke-width:1; fill:white; " id="dummy-1_h1_7_9"  />
</g>
<g id="a1_0010"  >
<polygon class="clusterblast-orf" points="404,85 409,80 426,80 426,90 409,90 404,85 " description="&lt;b&gt;ALE27503.1&lt;/b&gt;&lt;br&gt;beta-ketoacyl-ACP synthase&lt;br&gt;Location: 20677 - 19598" locus_tag="ALE27503.1" style="stroke:black; stroke-width:1; fill:white; " id="dummy-1_h1_7_10"  />
</g>
<g id="a1_0011"  >
<polygon class="clusterblast-orf" points="431,90 452,90 457,85 452,80 431,80 431,90 " description="&lt;b&gt;ALE27502.1&lt;/b&gt;&lt;br&gt;Phenylacetate-coenzyme A ligase&lt;br&gt;Location: 19349 - 18063" locus_tag="ALE27502.1" style="stroke:black; stroke-width:1; fill:white; " id="dummy-1_h1_7_11"  />
</g>
<g id="a1_0012"  >
<polygon class="clusterblast-orf" points="470,85 475,80 486,80 486,90 475,90 470,85 " description="&lt;b&gt;ALE27501.1&lt;/b&gt;&lt;br&gt;transcriptional regulator&lt;br&gt;Location: 17458 - 16661" locus_tag="ALE27501.1" style="stroke:black; stroke-width:1; fill:white; " id="dummy-1_h1_7_12"  />
</g>
<g id="a1_0013"  >
<polygon class="clusterblast-orf" points="488,90 520,90 525,85 520,80 488,80 488,90 " description="&lt;b&gt;ALE27500.1&lt;/b&gt;&lt;br&gt;ABC transporter&lt;br&gt;Location: 16556 - 14739&lt;br&gt;&lt;br&gt;&lt;b&gt;BlastP hit with ctg26_19&lt;/b&gt;&lt;br&gt;Percentage identity: 48&lt;br&gt;Percentage coverage: 65&lt;br&gt;BLAST bit score: 227&lt;br&gt;E-value: 2.5e-59&lt;br&gt;&lt;br&gt;&lt;b&gt;BlastP hit with ctg26_21&lt;/b&gt;&lt;br&gt;Percentage identity: 47&lt;br&gt;Percentage coverage: 92&lt;br&gt;BLAST bit score: 225&lt;br&gt;E-value: 1.3e-58" locus_tag="ALE27500.1" style="stroke:black; stroke-width:1; fill:#d81515; " id="dummy-1_h1_7_13"  />
</g>
<g id="a1_0014"  >
<polygon class="clusterblast-orf" points="523,90 556,90 561,85 556,80 523,80 523,90 " description="&lt;b&gt;ALE27499.1&lt;/b&gt;&lt;br&gt;ABC transporter&lt;br&gt;Location: 14856 - 12994&lt;br&gt;&lt;br&gt;&lt;b&gt;BlastP hit with ctg26_19&lt;/b&gt;&lt;br&gt;Percentage identity: 50&lt;br&gt;Percentage coverage: 67&lt;br&gt;BLAST bit score: 251&lt;br&gt;E-value: 1.6e-66&lt;br&gt;&lt;br&gt;&lt;b&gt;BlastP hit with ctg26_21&lt;/b&gt;&lt;br&gt;Percentage identity: 51&lt;br&gt;Percentage coverage: 93&lt;br&gt;BLAST bit score: 241&lt;br&gt;E-value: 1.3e-63" locus_tag="ALE27499.1" style="stroke:black; stroke-width:1; fill:#d81515; " id="dummy-1_h1_7_14"  />
</g>
<g id="a1_0015"  >
<polygon class="clusterblast-orf" points="563,85 567,80 567,90 563,85 " description="&lt;b&gt;ALE27498.1&lt;/b&gt;&lt;br&gt;4-oxalocrotonate tautomerase&lt;br&gt;Location: 12928 - 12722" locus_tag="ALE27498.1" style="stroke:black; stroke-width:1; fill:white; " id="dummy-1_h1_7_15"  />
</g>
<g id="a1_0016"  >
<polygon class="clusterblast-orf" points="567,85 572,80 593,80 593,90 572,90 567,85 " description="&lt;b&gt;ALE27497.1&lt;/b&gt;&lt;br&gt;L-lysin 2-aminotransferase&lt;br&gt;Location: 12735 - 11449" locus_tag="ALE27497.1" style="stroke:black; stroke-width:1; fill:white; " id="dummy-1_h1_7_16"  />
</g>
<g id="a1_0017"  >
<polygon class="clusterblast-orf" points="598,90 614,90 619,85 614,80 598,80 598,90 " description="&lt;b&gt;ALE27496.1&lt;/b&gt;&lt;br&gt;flavin-dependent hydroxylase&lt;br&gt;Location: 11214 - 10159" locus_tag="ALE27496.1" style="stroke:black; stroke-width:1; fill:white; " id="dummy-1_h1_7_17"  />
</g>
<g id="a1_0018"  >
<polygon class="clusterblast-orf" points="620,85 625,80 634,80 634,90 625,90 620,85 " description="&lt;b&gt;ALE27495.1&lt;/b&gt;&lt;br&gt;transcriptional regulator&lt;br&gt;Location: 10149 - 9436" locus_tag="ALE27495.1" style="stroke:black; stroke-width:1; fill:white; " id="dummy-1_h1_7_18"  />
</g>
<g id="a1_0019"  >
<polygon class="clusterblast-orf" points="639,90 657,90 662,85 657,80 639,80 639,90 " description="&lt;b&gt;ALE27494.1&lt;/b&gt;&lt;br&gt;FAD-dependent dehydrogenase&lt;br&gt;Location: 9226 - 8084" locus_tag="ALE27494.1" style="stroke:black; stroke-width:1; fill:white; " id="dummy-1_h1_7_19"  />
</g>
<g id="a1_0020"  >
<polygon class="clusterblast-orf" points="663,90 669,90 674,85 669,80 663,80 663,90 " description="&lt;b&gt;ALE27493.1&lt;/b&gt;&lt;br&gt;FMN reductase&lt;br&gt;Location: 8025 - 7504" locus_tag="ALE27493.1" style="stroke:black; stroke-width:1; fill:white; " id="dummy-1_h1_7_20"  />
</g>
<g id="a1_0021"  >
<polygon class="clusterblast-orf" points="680,85 685,80 695,80 695,90 685,90 680,85 " description="&lt;b&gt;ALE27492.1&lt;/b&gt;&lt;br&gt;cobaltochelatase&lt;br&gt;Location: 7225 - 6467" locus_tag="ALE27492.1" style="stroke:black; stroke-width:1; fill:white; " id="dummy-1_h1_7_21"  />
</g>
<g id="a1_0022"  >
<polygon class="clusterblast-orf" points="698,85 703,80 716,80 716,90 703,90 698,85 " description="&lt;b&gt;ALE27491.1&lt;/b&gt;&lt;br&gt;SARP family pathway specific regulator&lt;br&gt;Location: 6320 - 5469" locus_tag="ALE27491.1" style="stroke:black; stroke-width:1; fill:white; " id="dummy-1_h1_7_22"  />
</g>
</svg>
