<svg width="800" y="0" x="0" version="1.1" preserveAspectRatio="none" xmlns="http://www.w3.org/2000/svg" height="230" xmlns:xlink="http://www.w3.org/1999/xlink" viewBox="0 0 800 230"  >
<g class="clusterblast-cluster" label="Query sequence"  >
<text class="clusterblast-acc" x="5" y="20"  >
Query sequence</text>
<line x1="10" style="stroke:grey; stroke-width:1; " y2="35" x2="778.0" y1="35"  />
<polygon class="clusterblast-orf" points="0,40 4,35 0,30 0,40 " description="&lt;b&gt;ctg26_1&lt;/b&gt;&lt;br&gt;ctg26 1&lt;br&gt;Location: 1 - 214" locus_tag="ctg26_1" style="stroke:black; stroke-width:1; fill:white; " id="dummy-1_q0_0_all"  />
<polygon class="clusterblast-orf" points="4,40 11,40 16,35 11,30 4,30 4,40 " description="&lt;b&gt;ctg26_2&lt;/b&gt;&lt;br&gt;ctg26 2&lt;br&gt;Location: 213 - 813" locus_tag="ctg26_2" style="stroke:black; stroke-width:1; fill:white; " id="dummy-1_q1_0_all"  />
<polygon class="clusterblast-orf" points="30,40 30,40 35,35 30,30 30,30 30,40 " description="&lt;b&gt;ctg26_3&lt;/b&gt;&lt;br&gt;ctg26 3&lt;br&gt;Location: 1499 - 1724" locus_tag="ctg26_3" style="stroke:black; stroke-width:1; fill:white; " id="dummy-1_q2_0_all"  />
<polygon class="clusterblast-orf" points="35,40 65,40 70,35 65,30 35,30 35,40 " description="&lt;b&gt;ctg26_4&lt;/b&gt;&lt;br&gt;ctg26 4&lt;br&gt;Location: 1738 - 3415" locus_tag="ctg26_4" style="stroke:black; stroke-width:1; fill:white; " id="dummy-1_q3_0_all"  />
<polygon class="clusterblast-orf" points="73,40 89,40 94,35 89,30 73,30 73,40 " description="&lt;b&gt;ctg26_5&lt;/b&gt;&lt;br&gt;ctg26 5&lt;br&gt;Location: 3561 - 4605" locus_tag="ctg26_5" style="stroke:black; stroke-width:1; fill:white; " id="dummy-1_q4_0_all"  />
<polygon class="clusterblast-orf" points="96,40 147,40 152,35 147,30 96,30 96,40 " description="&lt;b&gt;ctg26_6&lt;/b&gt;&lt;br&gt;ctg26 6&lt;br&gt;Location: 4686 - 7443" locus_tag="ctg26_6" style="stroke:black; stroke-width:1; fill:white; " id="dummy-1_q5_0_all"  />
<polygon class="clusterblast-orf" points="156,40 156,40 161,35 156,30 156,30 156,40 " description="&lt;b&gt;ctg26_7&lt;/b&gt;&lt;br&gt;ctg26 7&lt;br&gt;Location: 7637 - 7877" locus_tag="ctg26_7" style="stroke:black; stroke-width:1; fill:white; " id="dummy-1_q6_0_all"  />
<polygon class="clusterblast-orf" points="163,40 173,40 178,35 173,30 163,30 163,40 " description="&lt;b&gt;ctg26_8&lt;/b&gt;&lt;br&gt;ctg26 8&lt;br&gt;Location: 7963 - 8698" locus_tag="ctg26_8" style="stroke:black; stroke-width:1; fill:white; " id="dummy-1_q7_0_all"  />
<polygon class="clusterblast-orf" points="178,40 195,40 200,35 195,30 178,30 178,40 " description="&lt;b&gt;ctg26_9&lt;/b&gt;&lt;br&gt;ctg26 9&lt;br&gt;Location: 8690 - 9779" locus_tag="ctg26_9" style="stroke:black; stroke-width:1; fill:white; " id="dummy-1_q8_0_all"  />
<polygon class="clusterblast-orf" points="201,40 266,40 271,35 266,30 201,30 201,40 " description="&lt;b&gt;ctg26_10&lt;/b&gt;&lt;br&gt;ctg26 10&lt;br&gt;Location: 9816 - 13233" locus_tag="ctg26_10" style="stroke:black; stroke-width:1; fill:white; " id="dummy-1_q9_0_all"  />
<polygon class="clusterblast-orf" points="272,40 380,40 385,35 380,30 272,30 272,40 " description="&lt;b&gt;ctg26_11&lt;/b&gt;&lt;br&gt;ctg26 11&lt;br&gt;Location: 13254 - 18792" locus_tag="ctg26_11" style="stroke:black; stroke-width:1; fill:white; " id="dummy-1_q10_0_all"  />
<polygon class="clusterblast-orf" points="387,40 404,40 409,35 404,30 387,30 387,40 " description="&lt;b&gt;ctg26_12&lt;/b&gt;&lt;br&gt;ctg26 12&lt;br&gt;Location: 18856 - 19957" locus_tag="ctg26_12" style="stroke:black; stroke-width:1; fill:white; " id="dummy-1_q11_0_all"  />
<polygon class="clusterblast-orf" points="409,40 420,40 425,35 420,30 409,30 409,40 " description="&lt;b&gt;ctg26_13&lt;/b&gt;&lt;br&gt;ctg26 13&lt;br&gt;Location: 19928 - 20699" locus_tag="ctg26_13" style="stroke:black; stroke-width:1; fill:white; " id="dummy-1_q12_0_all"  />
<polygon class="clusterblast-orf" points="427,40 441,40 446,35 441,30 427,30 427,40 " description="&lt;b&gt;ctg26_14&lt;/b&gt;&lt;br&gt;ctg26 14&lt;br&gt;Location: 20797 - 21742" locus_tag="ctg26_14" style="stroke:black; stroke-width:1; fill:white; " id="dummy-1_q13_0_all"  />
<polygon class="clusterblast-orf" points="449,40 456,40 461,35 456,30 449,30 449,40 " description="&lt;b&gt;ctg26_15&lt;/b&gt;&lt;br&gt;ctg26 15&lt;br&gt;Location: 21869 - 22481" locus_tag="ctg26_15" style="stroke:black; stroke-width:1; fill:white; " id="dummy-1_q14_0_all"  />
<polygon class="clusterblast-orf" points="470,40 502,40 507,35 502,30 470,30 470,40 " description="&lt;b&gt;ctg26_16&lt;/b&gt;&lt;br&gt;ctg26 16&lt;br&gt;Location: 22927 - 24706" locus_tag="ctg26_16" style="stroke:black; stroke-width:1; fill:white; " id="dummy-1_q15_0_all"  />
<polygon class="clusterblast-orf" points="505,35 510,30 514,30 514,40 510,40 505,35 " description="&lt;b&gt;ctg26_17&lt;/b&gt;&lt;br&gt;ctg26 17&lt;br&gt;Location: 24641 - 25058" locus_tag="ctg26_17" style="stroke:black; stroke-width:1; fill:white; " id="dummy-1_q16_0_all"  />
<polygon class="clusterblast-orf" points="524,35 529,30 534,30 534,40 529,40 524,35 " description="&lt;b&gt;ctg26_18&lt;/b&gt;&lt;br&gt;ctg26 18&lt;br&gt;Location: 25555 - 26041" locus_tag="ctg26_18" style="stroke:black; stroke-width:1; fill:white; " id="dummy-1_q17_0_all"  />
<polygon class="clusterblast-orf" points="536,40 552,40 557,35 552,30 536,30 536,40 " description="&lt;b&gt;ctg26_19&lt;/b&gt;&lt;br&gt;ctg26 19&lt;br&gt;Location: 26111 - 27140" locus_tag="ctg26_19" style="stroke:black; stroke-width:1; fill:#d81515; " id="dummy-1_q18_0_all"  />
<polygon class="clusterblast-orf" points="568,35 573,30 576,30 576,40 573,40 568,35 " description="&lt;b&gt;ctg26_20&lt;/b&gt;&lt;br&gt;ctg26 20&lt;br&gt;Location: 27704 - 28061" locus_tag="ctg26_20" style="stroke:black; stroke-width:1; fill:white; " id="dummy-1_q19_0_all"  />
<polygon class="clusterblast-orf" points="576,40 587,40 592,35 587,30 576,30 576,40 " description="&lt;b&gt;ctg26_21&lt;/b&gt;&lt;br&gt;ctg26 21&lt;br&gt;Location: 28082 - 28877" locus_tag="ctg26_21" style="stroke:black; stroke-width:1; fill:#d81515; " id="dummy-1_q20_0_all"  />
<polygon class="clusterblast-orf" points="597,40 599,40 604,35 599,30 597,30 597,40 " description="&lt;b&gt;ctg26_22&lt;/b&gt;&lt;br&gt;ctg26 22&lt;br&gt;Location: 29098 - 29440" locus_tag="ctg26_22" style="stroke:black; stroke-width:1; fill:white; " id="dummy-1_q21_0_all"  />
<polygon class="clusterblast-orf" points="606,40 617,40 622,35 617,30 606,30 606,40 " description="&lt;b&gt;ctg26_23&lt;/b&gt;&lt;br&gt;ctg26 23&lt;br&gt;Location: 29560 - 30298" locus_tag="ctg26_23" style="stroke:black; stroke-width:1; fill:white; " id="dummy-1_q22_0_all"  />
<polygon class="clusterblast-orf" points="625,40 636,40 641,35 636,30 625,30 625,40 " description="&lt;b&gt;ctg26_24&lt;/b&gt;&lt;br&gt;ctg26 24&lt;br&gt;Location: 30457 - 31222" locus_tag="ctg26_24" style="stroke:black; stroke-width:1; fill:white; " id="dummy-1_q23_0_all"  />
<polygon class="clusterblast-orf" points="643,40 645,40 650,35 645,30 643,30 643,40 " description="&lt;b&gt;ctg26_25&lt;/b&gt;&lt;br&gt;ctg26 25&lt;br&gt;Location: 31321 - 31660" locus_tag="ctg26_25" style="stroke:black; stroke-width:1; fill:white; " id="dummy-1_q24_0_all"  />
<polygon class="clusterblast-orf" points="664,35 668,30 668,40 664,35 " description="&lt;b&gt;ctg26_26&lt;/b&gt;&lt;br&gt;ctg26 26&lt;br&gt;Location: 32349 - 32583" locus_tag="ctg26_26" style="stroke:black; stroke-width:1; fill:white; " id="dummy-1_q25_0_all"  />
<polygon class="clusterblast-orf" points="670,35 675,30 688,30 688,40 675,40 670,35 " description="&lt;b&gt;ctg26_27&lt;/b&gt;&lt;br&gt;ctg26 27&lt;br&gt;Location: 32668 - 33511" locus_tag="ctg26_27" style="stroke:black; stroke-width:1; fill:white; " id="dummy-1_q26_0_all"  />
<polygon class="clusterblast-orf" points="688,35 693,30 702,30 702,40 693,40 688,35 " description="&lt;b&gt;ctg26_28&lt;/b&gt;&lt;br&gt;ctg26 28&lt;br&gt;Location: 33524 - 34196" locus_tag="ctg26_28" style="stroke:black; stroke-width:1; fill:white; " id="dummy-1_q27_0_all"  />
<polygon class="clusterblast-orf" points="702,35 707,30 719,30 719,40 707,40 702,35 " description="&lt;b&gt;ctg26_29&lt;/b&gt;&lt;br&gt;ctg26 29&lt;br&gt;Location: 34208 - 35066" locus_tag="ctg26_29" style="stroke:black; stroke-width:1; fill:white; " id="dummy-1_q28_0_all"  />
<polygon class="clusterblast-orf" points="723,40 723,40 728,35 723,30 723,30 723,40 " description="&lt;b&gt;ctg26_30&lt;/b&gt;&lt;br&gt;ctg26 30&lt;br&gt;Location: 35253 - 35466" locus_tag="ctg26_30" style="stroke:black; stroke-width:1; fill:white; " id="dummy-1_q29_0_all"  />
<polygon class="clusterblast-orf" points="736,40 775,40 780,35 775,30 736,30 736,40 " description="&lt;b&gt;ctg26_31&lt;/b&gt;&lt;br&gt;ctg26 31&lt;br&gt;Location: 35868 - 38001" locus_tag="ctg26_31" style="stroke:black; stroke-width:1; fill:white; " id="dummy-1_q30_0_all"  />
</g>
<g description="BGC0000347_c1: Equibactin (14% of genes show similarity), nrps" class="clusterblast-cluster" label="BGC0000347"  >
<text class="clusterblast-acc" x="5" y="70"  >
<a xlink:href="https://mibig.secondarymetabolites.org/go/BGC0000347/1" target="_blank">BGC0000347</a>:                                                                       Equibactin (14% of genes show similarity), nrps</text>
<line x1="10" style="stroke:grey; stroke-width:1; " y2="85" x2="778.0" y1="85"  />
</g>
<g id="a1_000"  >
<polygon class="clusterblast-orf" points="145,90 148,90 153,85 148,80 145,80 145,90 " description="&lt;b&gt;SEQ1246&lt;/b&gt;&lt;br&gt;putative iron-dependent regulatory protein&lt;br&gt;Location: 1 - 381" locus_tag="SEQ1246" style="stroke:black; stroke-width:1; fill:white; " id="dummy-1_h1_5_0"  />
</g>
<g id="a1_001"  >
<polygon class="clusterblast-orf" points="158,90 168,90 173,85 168,80 158,80 158,90 " description="&lt;b&gt;SEQ1245&lt;/b&gt;&lt;br&gt;putative non-ribosomal peptide synthesis thioesterase&lt;br&gt;Location: 610 - 1359" locus_tag="SEQ1245" style="stroke:black; stroke-width:1; fill:white; " id="dummy-1_h1_5_1"  />
</g>
<g id="a1_002"  >
<polygon class="clusterblast-orf" points="173,90 182,90 187,85 182,80 173,80 173,90 " description="&lt;b&gt;SEQ1244&lt;/b&gt;&lt;br&gt;putative 4'-phosphopantetheinyl transferase superfamily protein&lt;br&gt;Location: 1346 - 2029" locus_tag="SEQ1244" style="stroke:black; stroke-width:1; fill:white; " id="dummy-1_h1_5_2"  />
</g>
<g id="a1_003"  >
<polygon class="clusterblast-orf" points="187,90 214,90 219,85 214,80 187,80 187,90 " description="&lt;b&gt;SEQ1243&lt;/b&gt;&lt;br&gt;equibactin siderophore biosynthetic protein&lt;br&gt;Location: 2038 - 3621" locus_tag="SEQ1243" style="stroke:black; stroke-width:1; fill:white; " id="dummy-1_h1_5_3"  />
</g>
<g id="a1_004"  >
<polygon class="clusterblast-orf" points="220,90 339,90 344,85 339,80 220,80 220,90 " description="&lt;b&gt;SEQ1242&lt;/b&gt;&lt;br&gt;equibactin equibactin nonribosomal peptide synthase protein&lt;br&gt;Location: 3636 - 9707" locus_tag="SEQ1242" style="stroke:black; stroke-width:1; fill:white; " id="dummy-1_h1_5_4"  />
</g>
<g id="a1_005"  >
<polygon class="clusterblast-orf" points="344,90 383,90 388,85 383,80 344,80 344,90 " description="&lt;b&gt;SEQ1241&lt;/b&gt;&lt;br&gt;equibactin biosynthetic protein&lt;br&gt;Location: 9704 - 11830" locus_tag="SEQ1241" style="stroke:black; stroke-width:1; fill:white; " id="dummy-1_h1_5_5"  />
</g>
<g id="a1_006"  >
<polygon class="clusterblast-orf" points="388,90 461,90 466,85 461,80 388,80 388,90 " description="&lt;b&gt;SEQ1240&lt;/b&gt;&lt;br&gt;equibactin nonribosomal peptide synthase protein&lt;br&gt;Location: 11814 - 15632" locus_tag="SEQ1240" style="stroke:black; stroke-width:1; fill:white; " id="dummy-1_h1_5_6"  />
</g>
<g id="a1_007"  >
<polygon class="clusterblast-orf" points="466,90 473,90 478,85 473,80 466,80 466,90 " description="&lt;b&gt;SEQ1239&lt;/b&gt;&lt;br&gt;putative membrane protein&lt;br&gt;Location: 15622 - 16209" locus_tag="SEQ1239" style="stroke:black; stroke-width:1; fill:white; " id="dummy-1_h1_5_7"  />
</g>
<g id="a1_008"  >
<polygon class="clusterblast-orf" points="478,90 487,90 492,85 487,80 478,80 478,90 " description="&lt;b&gt;SEQ1238&lt;/b&gt;&lt;br&gt;putative transmembrane protein&lt;br&gt;Location: 16211 - 16882" locus_tag="SEQ1238" style="stroke:black; stroke-width:1; fill:white; " id="dummy-1_h1_5_8"  />
</g>
<g id="a1_009"  >
<polygon class="clusterblast-orf" points="492,90 515,90 520,85 515,80 492,80 492,90 " description="&lt;b&gt;SEQ1237&lt;/b&gt;&lt;br&gt;putative ABC transporter ATP-binding component&lt;br&gt;Location: 16896 - 18272" locus_tag="SEQ1237" style="stroke:black; stroke-width:1; fill:white; " id="dummy-1_h1_5_9"  />
</g>
<g id="a1_0010"  >
<polygon class="clusterblast-orf" points="521,90 552,90 557,85 552,80 521,80 521,90 " description="&lt;b&gt;SEQ1236&lt;/b&gt;&lt;br&gt;ABC transporter, ATP-binding membrane protein&lt;br&gt;Location: 18295 - 20052&lt;br&gt;&lt;br&gt;&lt;b&gt;BlastP hit with ctg26_19&lt;/b&gt;&lt;br&gt;Percentage identity: 55&lt;br&gt;Percentage coverage: 64&lt;br&gt;BLAST bit score: 247&lt;br&gt;E-value: 3.1e-65&lt;br&gt;&lt;br&gt;&lt;b&gt;BlastP hit with ctg26_21&lt;/b&gt;&lt;br&gt;Percentage identity: 49&lt;br&gt;Percentage coverage: 92&lt;br&gt;BLAST bit score: 229&lt;br&gt;E-value: 5.1e-60" locus_tag="SEQ1236" style="stroke:black; stroke-width:1; fill:#d81515; " id="dummy-1_h1_5_10"  />
</g>
<g id="a1_0011"  >
<polygon class="clusterblast-orf" points="557,90 588,90 593,85 588,80 557,80 557,90 " description="&lt;b&gt;SEQ1235&lt;/b&gt;&lt;br&gt;ABC transporter ATP-binding membrane protein&lt;br&gt;Location: 20057 - 21802&lt;br&gt;&lt;br&gt;&lt;b&gt;BlastP hit with ctg26_19&lt;/b&gt;&lt;br&gt;Percentage identity: 51&lt;br&gt;Percentage coverage: 68&lt;br&gt;BLAST bit score: 253&lt;br&gt;E-value: 4.3e-67&lt;br&gt;&lt;br&gt;&lt;b&gt;BlastP hit with ctg26_21&lt;/b&gt;&lt;br&gt;Percentage identity: 54&lt;br&gt;Percentage coverage: 96&lt;br&gt;BLAST bit score: 280&lt;br&gt;E-value: 2.5e-75" locus_tag="SEQ1235" style="stroke:black; stroke-width:1; fill:#d81515; " id="dummy-1_h1_5_11"  />
</g>
<g id="a1_0012"  >
<polygon class="clusterblast-orf" points="593,90 610,90 615,85 610,80 593,80 593,90 " description="&lt;b&gt;SEQ1234&lt;/b&gt;&lt;br&gt;putative oxidoreductase&lt;br&gt;Location: 21822 - 22886" locus_tag="SEQ1234" style="stroke:black; stroke-width:1; fill:white; " id="dummy-1_h1_5_12"  />
</g>
<g id="a1_0013"  >
<polygon class="clusterblast-orf" points="615,90 629,90 634,85 629,80 615,80 615,90 " description="&lt;b&gt;SEQ1233&lt;/b&gt;&lt;br&gt;putative membrane protein&lt;br&gt;Location: 22908 - 23813" locus_tag="SEQ1233" style="stroke:black; stroke-width:1; fill:white; " id="dummy-1_h1_5_13"  />
</g>
</svg>
