<svg width="800" y="0" x="0" version="1.1" preserveAspectRatio="none" xmlns="http://www.w3.org/2000/svg" height="230" xmlns:xlink="http://www.w3.org/1999/xlink" viewBox="0 0 800 230"  >
<g class="clusterblast-cluster" label="Query sequence"  >
<text class="clusterblast-acc" x="5" y="20"  >
Query sequence</text>
<line x1="10" style="stroke:grey; stroke-width:1; " y2="35" x2="778.0" y1="35"  />
<polygon class="clusterblast-orf" points="0,35 5,30 18,30 18,40 5,40 0,35 " description="&lt;b&gt;ctg29_2&lt;/b&gt;&lt;br&gt;ctg29 2&lt;br&gt;Location: 1704 - 2634" locus_tag="ctg29_2" style="stroke:black; stroke-width:1; fill:white; " id="dummy-1_q0_0_all"  />
<polygon class="clusterblast-orf" points="23,40 43,40 48,35 43,30 23,30 23,40 " description="&lt;b&gt;ctg29_3&lt;/b&gt;&lt;br&gt;ctg29 3&lt;br&gt;Location: 2862 - 4107" locus_tag="ctg29_3" style="stroke:black; stroke-width:1; fill:white; " id="dummy-1_q1_0_all"  />
<polygon class="clusterblast-orf" points="49,35 54,30 69,30 69,40 54,40 49,35 " description="&lt;b&gt;ctg29_4&lt;/b&gt;&lt;br&gt;ctg29 4&lt;br&gt;Location: 4173 - 5169" locus_tag="ctg29_4" style="stroke:black; stroke-width:1; fill:white; " id="dummy-1_q2_0_all"  />
<polygon class="clusterblast-orf" points="70,35 72,30 72,40 70,35 " description="&lt;b&gt;ctg29_5&lt;/b&gt;&lt;br&gt;ctg29 5&lt;br&gt;Location: 5198 - 5309" locus_tag="ctg29_5" style="stroke:black; stroke-width:1; fill:white; " id="dummy-1_q3_0_all"  />
<polygon class="clusterblast-orf" points="74,35 79,30 125,30 125,40 79,40 74,35 " description="&lt;b&gt;ctg29_6&lt;/b&gt;&lt;br&gt;ctg29 6&lt;br&gt;Location: 5423 - 7931" locus_tag="ctg29_6" style="stroke:black; stroke-width:1; fill:white; " id="dummy-1_q4_0_all"  />
<polygon class="clusterblast-orf" points="125,35 130,30 142,30 142,40 130,40 125,35 " description="&lt;b&gt;ctg29_7&lt;/b&gt;&lt;br&gt;ctg29 7&lt;br&gt;Location: 7930 - 8776" locus_tag="ctg29_7" style="stroke:black; stroke-width:1; fill:white; " id="dummy-1_q5_0_all"  />
<polygon class="clusterblast-orf" points="142,35 147,30 161,30 161,40 147,40 142,35 " description="&lt;b&gt;ctg29_8&lt;/b&gt;&lt;br&gt;ctg29 8&lt;br&gt;Location: 8772 - 9735" locus_tag="ctg29_8" style="stroke:black; stroke-width:1; fill:white; " id="dummy-1_q6_0_all"  />
<polygon class="clusterblast-orf" points="164,35 169,30 192,30 192,40 169,40 164,35 " description="&lt;b&gt;ctg29_9&lt;/b&gt;&lt;br&gt;ctg29 9&lt;br&gt;Location: 9898 - 11266" locus_tag="ctg29_9" style="stroke:black; stroke-width:1; fill:white; " id="dummy-1_q7_0_all"  />
<polygon class="clusterblast-orf" points="195,40 205,40 210,35 205,30 195,30 195,40 " description="&lt;b&gt;ctg29_10&lt;/b&gt;&lt;br&gt;ctg29 10&lt;br&gt;Location: 11397 - 12168" locus_tag="ctg29_10" style="stroke:black; stroke-width:1; fill:white; " id="dummy-1_q8_0_all"  />
<polygon class="clusterblast-orf" points="216,35 221,30 273,30 273,40 221,40 216,35 " description="&lt;b&gt;ctg29_11&lt;/b&gt;&lt;br&gt;ctg29 11&lt;br&gt;Location: 12465 - 15309" locus_tag="ctg29_11" style="stroke:black; stroke-width:1; fill:white; " id="dummy-1_q9_0_all"  />
<polygon class="clusterblast-orf" points="274,35 279,30 324,30 324,40 279,40 274,35 " description="&lt;b&gt;ctg29_12&lt;/b&gt;&lt;br&gt;ctg29 12&lt;br&gt;Location: 15359 - 17822" locus_tag="ctg29_12" style="stroke:black; stroke-width:1; fill:white; " id="dummy-1_q10_0_all"  />
<polygon class="clusterblast-orf" points="326,35 331,30 340,30 340,40 331,40 326,35 " description="&lt;b&gt;ctg29_13&lt;/b&gt;&lt;br&gt;ctg29 13&lt;br&gt;Location: 17932 - 18625" locus_tag="ctg29_13" style="stroke:black; stroke-width:1; fill:#d81515; " id="dummy-1_q11_0_all"  />
<polygon class="clusterblast-orf" points="341,35 346,30 350,30 350,40 346,40 341,35 " description="&lt;b&gt;ctg29_14&lt;/b&gt;&lt;br&gt;ctg29 14&lt;br&gt;Location: 18681 - 19107" locus_tag="ctg29_14" style="stroke:black; stroke-width:1; fill:#77d815; " id="dummy-1_q12_0_all"  />
<polygon class="clusterblast-orf" points="351,35 356,30 361,30 361,40 356,40 351,35 " description="&lt;b&gt;ctg29_15&lt;/b&gt;&lt;br&gt;ctg29 15&lt;br&gt;Location: 19175 - 19691" locus_tag="ctg29_15" style="stroke:black; stroke-width:1; fill:white; " id="dummy-1_q13_0_all"  />
<polygon class="clusterblast-orf" points="362,35 366,30 366,40 362,35 " description="&lt;b&gt;ctg29_16&lt;/b&gt;&lt;br&gt;ctg29 16&lt;br&gt;Location: 19707 - 19932" locus_tag="ctg29_16" style="stroke:black; stroke-width:1; fill:white; " id="dummy-1_q14_0_all"  />
<polygon class="clusterblast-orf" points="374,35 379,30 387,30 387,40 379,40 374,35 " description="&lt;b&gt;ctg29_17&lt;/b&gt;&lt;br&gt;ctg29 17&lt;br&gt;Location: 20329 - 20965" locus_tag="ctg29_17" style="stroke:black; stroke-width:1; fill:#15d8d8; " id="dummy-1_q15_0_all"  />
<polygon class="clusterblast-orf" points="391,35 396,30 397,30 397,40 396,40 391,35 " description="&lt;b&gt;ctg29_18&lt;/b&gt;&lt;br&gt;ctg29 18&lt;br&gt;Location: 21182 - 21485" locus_tag="ctg29_18" style="stroke:black; stroke-width:1; fill:#7715d8; " id="dummy-1_q16_0_all"  />
<polygon class="clusterblast-orf" points="401,35 406,30 582,30 582,40 406,40 401,35 " description="&lt;b&gt;ctg29_19&lt;/b&gt;&lt;br&gt;ctg29 19&lt;br&gt;Location: 21659 - 30650" locus_tag="ctg29_19" style="stroke:black; stroke-width:1; fill:#d8a715; " id="dummy-1_q17_0_all"  />
<polygon class="clusterblast-orf" points="582,35 587,30 617,30 617,40 587,40 582,35 " description="&lt;b&gt;ctg29_20&lt;/b&gt;&lt;br&gt;ctg29 20&lt;br&gt;Location: 30662 - 32408" locus_tag="ctg29_20" style="stroke:black; stroke-width:1; fill:#15d846; " id="dummy-1_q18_0_all"  />
<polygon class="clusterblast-orf" points="623,35 628,30 643,30 643,40 628,40 623,35 " description="&lt;b&gt;ctg29_21&lt;/b&gt;&lt;br&gt;ctg29 21&lt;br&gt;Location: 32711 - 33698" locus_tag="ctg29_21" style="stroke:black; stroke-width:1; fill:#1546d8; " id="dummy-1_q19_0_all"  />
<polygon class="clusterblast-orf" points="643,35 648,30 662,30 662,40 648,40 643,35 " description="&lt;b&gt;ctg29_22&lt;/b&gt;&lt;br&gt;ctg29 22&lt;br&gt;Location: 33697 - 34666" locus_tag="ctg29_22" style="stroke:black; stroke-width:1; fill:#d815a7; " id="dummy-1_q20_0_all"  />
<polygon class="clusterblast-orf" points="665,35 670,30 697,30 697,40 670,40 665,35 " description="&lt;b&gt;ctg29_23&lt;/b&gt;&lt;br&gt;ctg29 23&lt;br&gt;Location: 34811 - 36392" locus_tag="ctg29_23" style="stroke:black; stroke-width:1; fill:white; " id="dummy-1_q21_0_all"  />
<polygon class="clusterblast-orf" points="700,35 705,30 718,30 718,40 705,40 700,35 " description="&lt;b&gt;ctg29_24&lt;/b&gt;&lt;br&gt;ctg29 24&lt;br&gt;Location: 36534 - 37404" locus_tag="ctg29_24" style="stroke:black; stroke-width:1; fill:white; " id="dummy-1_q22_0_all"  />
<polygon class="clusterblast-orf" points="718,35 723,30 737,30 737,40 723,40 718,35 " description="&lt;b&gt;ctg29_25&lt;/b&gt;&lt;br&gt;ctg29 25&lt;br&gt;Location: 37423 - 38380" locus_tag="ctg29_25" style="stroke:black; stroke-width:1; fill:white; " id="dummy-1_q23_0_all"  />
<polygon class="clusterblast-orf" points="739,35 744,30 765,30 765,40 744,40 739,35 " description="&lt;b&gt;ctg29_26&lt;/b&gt;&lt;br&gt;ctg29 26&lt;br&gt;Location: 38477 - 39758" locus_tag="ctg29_26" style="stroke:black; stroke-width:1; fill:white; " id="dummy-1_q24_0_all"  />
<polygon class="clusterblast-orf" points="769,35 774,30 780,30 780,40 774,40 769,35 " description="&lt;b&gt;ctg29_27&lt;/b&gt;&lt;br&gt;ctg29 27&lt;br&gt;Location: 39949 - 40495" locus_tag="ctg29_27" style="stroke:black; stroke-width:1; fill:white; " id="dummy-1_q25_0_all"  />
</g>
<g description="BGC0000615_c1: TP-1161 (8% of genes show similarity), thiopeptide" class="clusterblast-cluster" label="BGC0000615"  >
<text class="clusterblast-acc" x="5" y="70"  >
<a xlink:href="https://mibig.secondarymetabolites.org/go/BGC0000615/1" target="_blank">BGC0000615</a>:                                                                          TP-1161 (8% of genes show similarity), thiopeptide</text>
<line x1="10" style="stroke:grey; stroke-width:1; " y2="85" x2="778.0" y1="85"  />
</g>
<g id="a1_000"  >
<polygon class="clusterblast-orf" points="37,85 42,80 61,80 61,90 42,90 37,85 " description="&lt;b&gt;ADO67786.1&lt;/b&gt;&lt;br&gt;Tpa11&lt;br&gt;Location: 35080 - 33887" locus_tag="ADO67786.1" style="stroke:black; stroke-width:1; fill:white; " id="dummy-1_h1_3_0"  />
</g>
<g id="a1_001"  >
<polygon class="clusterblast-orf" points="62,85 67,80 105,80 105,90 67,90 62,85 " description="&lt;b&gt;ADO67785.1&lt;/b&gt;&lt;br&gt;Tpa10&lt;br&gt;Location: 33803 - 31692" locus_tag="ADO67785.1" style="stroke:black; stroke-width:1; fill:white; " id="dummy-1_h1_3_1"  />
</g>
<g id="a1_002"  >
<polygon class="clusterblast-orf" points="106,85 111,80 115,80 115,90 111,90 106,85 " description="&lt;b&gt;ADO67784.1&lt;/b&gt;&lt;br&gt;Tpa9&lt;br&gt;Location: 31643 - 31173" locus_tag="ADO67784.1" style="stroke:black; stroke-width:1; fill:white; " id="dummy-1_h1_3_2"  />
</g>
<g id="a1_003"  >
<polygon class="clusterblast-orf" points="115,85 120,80 123,80 123,90 120,90 115,85 " description="&lt;b&gt;ADO67783.1&lt;/b&gt;&lt;br&gt;Tpa8&lt;br&gt;Location: 31170 - 30799" locus_tag="ADO67783.1" style="stroke:black; stroke-width:1; fill:white; " id="dummy-1_h1_3_3"  />
</g>
<g id="a1_004"  >
<polygon class="clusterblast-orf" points="132,85 137,80 149,80 149,90 137,90 132,85 " description="&lt;b&gt;ADO67782.1&lt;/b&gt;&lt;br&gt;TpaL&lt;br&gt;Location: 30369 - 29497" locus_tag="ADO67782.1" style="stroke:black; stroke-width:1; fill:white; " id="dummy-1_h1_3_4"  />
</g>
<g id="a1_005"  >
<polygon class="clusterblast-orf" points="150,85 155,80 206,80 206,90 155,90 150,85 " description="&lt;b&gt;ADO67781.1&lt;/b&gt;&lt;br&gt;TpaK&lt;br&gt;Location: 29462 - 26673" locus_tag="ADO67781.1" style="stroke:black; stroke-width:1; fill:white; " id="dummy-1_h1_3_5"  />
</g>
<g id="a1_006"  >
<polygon class="clusterblast-orf" points="207,85 210,80 210,90 207,85 " description="&lt;b&gt;ADO67780.1&lt;/b&gt;&lt;br&gt;TpaX&lt;br&gt;Location: 26609 - 26463" locus_tag="ADO67780.1" style="stroke:black; stroke-width:1; fill:white; " id="dummy-1_h1_3_6"  />
</g>
<g id="a1_007"  >
<polygon class="clusterblast-orf" points="218,90 237,90 242,85 237,80 218,80 218,90 " description="&lt;b&gt;ADO67779.1&lt;/b&gt;&lt;br&gt;TpaJ&lt;br&gt;Location: 26093 - 24879" locus_tag="ADO67779.1" style="stroke:black; stroke-width:1; fill:white; " id="dummy-1_h1_3_7"  />
</g>
<g id="a1_008"  >
<polygon class="clusterblast-orf" points="243,90 254,90 259,85 254,80 243,80 243,90 " description="&lt;b&gt;ADO67778.1&lt;/b&gt;&lt;br&gt;TpaI&lt;br&gt;Location: 24817 - 24008" locus_tag="ADO67778.1" style="stroke:black; stroke-width:1; fill:white; " id="dummy-1_h1_3_8"  />
</g>
<g id="a1_009"  >
<polygon class="clusterblast-orf" points="262,85 267,80 299,80 299,90 267,90 262,85 " description="&lt;b&gt;ADO67777.1&lt;/b&gt;&lt;br&gt;TpaH&lt;br&gt;Location: 23893 - 22028" locus_tag="ADO67777.1" style="stroke:black; stroke-width:1; fill:white; " id="dummy-1_h1_3_9"  />
</g>
<g id="a1_0010"  >
<polygon class="clusterblast-orf" points="299,85 304,80 336,80 336,90 304,90 299,85 " description="&lt;b&gt;ADO67776.1&lt;/b&gt;&lt;br&gt;hypothetical protein&lt;br&gt;Location: 22031 - 20217" locus_tag="ADO67776.1" style="stroke:black; stroke-width:1; fill:white; " id="dummy-1_h1_3_10"  />
</g>
<g id="a1_0011"  >
<polygon class="clusterblast-orf" points="338,85 343,80 352,80 352,90 343,90 338,85 " description="&lt;b&gt;ADO67775.1&lt;/b&gt;&lt;br&gt;TpaF&lt;br&gt;Location: 20125 - 19424" locus_tag="ADO67775.1" style="stroke:black; stroke-width:1; fill:white; " id="dummy-1_h1_3_11"  />
</g>
<g id="a1_0012"  >
<polygon class="clusterblast-orf" points="351,85 356,80 384,80 384,90 356,90 351,85 " description="&lt;b&gt;ADO67774.1&lt;/b&gt;&lt;br&gt;TpaE&lt;br&gt;Location: 19434 - 17794" locus_tag="ADO67774.1" style="stroke:black; stroke-width:1; fill:white; " id="dummy-1_h1_3_12"  />
</g>
<g id="a1_0013"  >
<polygon class="clusterblast-orf" points="385,85 390,80 397,80 397,90 390,90 385,85 " description="&lt;b&gt;ADO67773.1&lt;/b&gt;&lt;br&gt;TpaD&lt;br&gt;Location: 17782 - 17180" locus_tag="ADO67773.1" style="stroke:black; stroke-width:1; fill:white; " id="dummy-1_h1_3_13"  />
</g>
<g id="a1_0014"  >
<polygon class="clusterblast-orf" points="397,85 402,80 424,80 424,90 402,90 397,85 " description="&lt;b&gt;ADO67772.1&lt;/b&gt;&lt;br&gt;TpaC&lt;br&gt;Location: 17152 - 15806" locus_tag="ADO67772.1" style="stroke:black; stroke-width:1; fill:white; " id="dummy-1_h1_3_14"  />
</g>
<g id="a1_0015"  >
<polygon class="clusterblast-orf" points="425,85 430,80 447,80 447,90 430,90 425,85 " description="&lt;b&gt;ADO67771.1&lt;/b&gt;&lt;br&gt;hypothetical protein&lt;br&gt;Location: 15756 - 14689" locus_tag="ADO67771.1" style="stroke:black; stroke-width:1; fill:white; " id="dummy-1_h1_3_15"  />
</g>
<g id="a1_0016"  >
<polygon class="clusterblast-orf" points="450,85 453,80 453,90 450,85 " description="&lt;b&gt;ADO67770.1&lt;/b&gt;&lt;br&gt;TpaA&lt;br&gt;Location: 14551 - 14405" locus_tag="ADO67770.1" style="stroke:black; stroke-width:1; fill:white; " id="dummy-1_h1_3_16"  />
</g>
<g id="a1_0017"  >
<polygon class="clusterblast-orf" points="460,85 465,80 524,80 524,90 465,90 460,85 " description="&lt;b&gt;ADO67769.1&lt;/b&gt;&lt;br&gt;hypothetical protein&lt;br&gt;Location: 14034 - 10852" locus_tag="ADO67769.1" style="stroke:black; stroke-width:1; fill:white; " id="dummy-1_h1_3_17"  />
</g>
<g id="a1_0018"  >
<polygon class="clusterblast-orf" points="526,85 531,80 604,80 604,90 531,90 526,85 " description="&lt;b&gt;ADO67768.1&lt;/b&gt;&lt;br&gt;Tpa6&lt;br&gt;Location: 10735 - 6857" locus_tag="ADO67768.1" style="stroke:black; stroke-width:1; fill:white; " id="dummy-1_h1_3_18"  />
</g>
<g id="a1_0019"  >
<polygon class="clusterblast-orf" points="605,85 610,80 675,80 675,90 610,90 605,85 " description="&lt;b&gt;ADO67767.1&lt;/b&gt;&lt;br&gt;Tpa5&lt;br&gt;Location: 6822 - 3355" locus_tag="ADO67767.1" style="stroke:black; stroke-width:1; fill:white; " id="dummy-1_h1_3_19"  />
</g>
<g id="a1_0020"  >
<polygon class="clusterblast-orf" points="690,85 695,80 697,80 697,90 695,90 690,85 " description="&lt;b&gt;ADO67766.1&lt;/b&gt;&lt;br&gt;Tpa4&lt;br&gt;Location: 2616 - 2227" locus_tag="ADO67766.1" style="stroke:black; stroke-width:1; fill:white; " id="dummy-1_h1_3_20"  />
</g>
<g id="a1_0021"  >
<polygon class="clusterblast-orf" points="699,85 704,80 710,80 710,90 704,90 699,85 " description="&lt;b&gt;ADO67765.1&lt;/b&gt;&lt;br&gt;Tpa3&lt;br&gt;Location: 2130 - 1603" locus_tag="ADO67765.1" style="stroke:black; stroke-width:1; fill:white; " id="dummy-1_h1_3_21"  />
</g>
<g id="a1_0022"  >
<polygon class="clusterblast-orf" points="718,85 723,80 732,80 732,90 723,90 718,85 " description="&lt;b&gt;ADO67764.1&lt;/b&gt;&lt;br&gt;Tpa2&lt;br&gt;Location: 1195 - 518&lt;br&gt;&lt;br&gt;&lt;b&gt;BlastP hit with ctg29_13&lt;/b&gt;&lt;br&gt;Percentage identity: 56&lt;br&gt;Percentage coverage: 97&lt;br&gt;BLAST bit score: 253&lt;br&gt;E-value: 2.2e-67" locus_tag="ADO67764.1" style="stroke:black; stroke-width:1; fill:#d81515; " id="dummy-1_h1_3_22"  />
</g>
<g id="a1_0023"  >
<polygon class="clusterblast-orf" points="734,85 739,80 742,80 742,90 739,90 734,85 " description="&lt;b&gt;ADO67763.1&lt;/b&gt;&lt;br&gt;Tpa1&lt;br&gt;Location: 429 - 1&lt;br&gt;&lt;br&gt;&lt;b&gt;BlastP hit with ctg29_14&lt;/b&gt;&lt;br&gt;Percentage identity: 58&lt;br&gt;Percentage coverage: 97&lt;br&gt;BLAST bit score: 156&lt;br&gt;E-value: 2.3e-38" locus_tag="ADO67763.1" style="stroke:black; stroke-width:1; fill:#77d815; " id="dummy-1_h1_3_23"  />
</g>
</svg>
