<svg width="800" y="0" x="0" version="1.1" preserveAspectRatio="none" xmlns="http://www.w3.org/2000/svg" height="230" xmlns:xlink="http://www.w3.org/1999/xlink" viewBox="0 0 800 230"  >
<g class="clusterblast-cluster" label="Query sequence"  >
<text class="clusterblast-acc" x="5" y="20"  >
Query sequence</text>
<line x1="10" style="stroke:grey; stroke-width:1; " y2="35" x2="778.0" y1="35"  />
<polygon class="clusterblast-orf" points="1,40 5,35 1,30 1,40 " description="&lt;b&gt;ctg26_1&lt;/b&gt;&lt;br&gt;ctg26 1&lt;br&gt;Location: 1 - 214" locus_tag="ctg26_1" style="stroke:black; stroke-width:1; fill:white; " id="dummy-1_q0_0_all"  />
<polygon class="clusterblast-orf" points="5,40 13,40 18,35 13,30 5,30 5,40 " description="&lt;b&gt;ctg26_2&lt;/b&gt;&lt;br&gt;ctg26 2&lt;br&gt;Location: 213 - 813" locus_tag="ctg26_2" style="stroke:black; stroke-width:1; fill:white; " id="dummy-1_q1_0_all"  />
<polygon class="clusterblast-orf" points="32,40 36,35 32,30 32,40 " description="&lt;b&gt;ctg26_3&lt;/b&gt;&lt;br&gt;ctg26 3&lt;br&gt;Location: 1499 - 1724" locus_tag="ctg26_3" style="stroke:black; stroke-width:1; fill:white; " id="dummy-1_q2_0_all"  />
<polygon class="clusterblast-orf" points="36,40 66,40 71,35 66,30 36,30 36,40 " description="&lt;b&gt;ctg26_4&lt;/b&gt;&lt;br&gt;ctg26 4&lt;br&gt;Location: 1738 - 3415" locus_tag="ctg26_4" style="stroke:black; stroke-width:1; fill:white; " id="dummy-1_q3_0_all"  />
<polygon class="clusterblast-orf" points="74,40 90,40 95,35 90,30 74,30 74,40 " description="&lt;b&gt;ctg26_5&lt;/b&gt;&lt;br&gt;ctg26 5&lt;br&gt;Location: 3561 - 4605" locus_tag="ctg26_5" style="stroke:black; stroke-width:1; fill:white; " id="dummy-1_q4_0_all"  />
<polygon class="clusterblast-orf" points="97,40 148,40 153,35 148,30 97,30 97,40 " description="&lt;b&gt;ctg26_6&lt;/b&gt;&lt;br&gt;ctg26 6&lt;br&gt;Location: 4686 - 7443" locus_tag="ctg26_6" style="stroke:black; stroke-width:1; fill:white; " id="dummy-1_q5_0_all"  />
<polygon class="clusterblast-orf" points="157,40 157,40 162,35 157,30 157,30 157,40 " description="&lt;b&gt;ctg26_7&lt;/b&gt;&lt;br&gt;ctg26 7&lt;br&gt;Location: 7637 - 7877" locus_tag="ctg26_7" style="stroke:black; stroke-width:1; fill:white; " id="dummy-1_q6_0_all"  />
<polygon class="clusterblast-orf" points="164,40 174,40 179,35 174,30 164,30 164,40 " description="&lt;b&gt;ctg26_8&lt;/b&gt;&lt;br&gt;ctg26 8&lt;br&gt;Location: 7963 - 8698" locus_tag="ctg26_8" style="stroke:black; stroke-width:1; fill:white; " id="dummy-1_q7_0_all"  />
<polygon class="clusterblast-orf" points="179,40 196,40 201,35 196,30 179,30 179,40 " description="&lt;b&gt;ctg26_9&lt;/b&gt;&lt;br&gt;ctg26 9&lt;br&gt;Location: 8690 - 9779" locus_tag="ctg26_9" style="stroke:black; stroke-width:1; fill:white; " id="dummy-1_q8_0_all"  />
<polygon class="clusterblast-orf" points="202,40 267,40 272,35 267,30 202,30 202,40 " description="&lt;b&gt;ctg26_10&lt;/b&gt;&lt;br&gt;ctg26 10&lt;br&gt;Location: 9816 - 13233" locus_tag="ctg26_10" style="stroke:black; stroke-width:1; fill:white; " id="dummy-1_q9_0_all"  />
<polygon class="clusterblast-orf" points="272,40 380,40 385,35 380,30 272,30 272,40 " description="&lt;b&gt;ctg26_11&lt;/b&gt;&lt;br&gt;ctg26 11&lt;br&gt;Location: 13254 - 18792" locus_tag="ctg26_11" style="stroke:black; stroke-width:1; fill:white; " id="dummy-1_q10_0_all"  />
<polygon class="clusterblast-orf" points="387,40 404,40 409,35 404,30 387,30 387,40 " description="&lt;b&gt;ctg26_12&lt;/b&gt;&lt;br&gt;ctg26 12&lt;br&gt;Location: 18856 - 19957" locus_tag="ctg26_12" style="stroke:black; stroke-width:1; fill:white; " id="dummy-1_q11_0_all"  />
<polygon class="clusterblast-orf" points="409,40 419,40 424,35 419,30 409,30 409,40 " description="&lt;b&gt;ctg26_13&lt;/b&gt;&lt;br&gt;ctg26 13&lt;br&gt;Location: 19928 - 20699" locus_tag="ctg26_13" style="stroke:black; stroke-width:1; fill:white; " id="dummy-1_q12_0_all"  />
<polygon class="clusterblast-orf" points="426,40 441,40 446,35 441,30 426,30 426,40 " description="&lt;b&gt;ctg26_14&lt;/b&gt;&lt;br&gt;ctg26 14&lt;br&gt;Location: 20797 - 21742" locus_tag="ctg26_14" style="stroke:black; stroke-width:1; fill:white; " id="dummy-1_q13_0_all"  />
<polygon class="clusterblast-orf" points="448,40 456,40 461,35 456,30 448,30 448,40 " description="&lt;b&gt;ctg26_15&lt;/b&gt;&lt;br&gt;ctg26 15&lt;br&gt;Location: 21869 - 22481" locus_tag="ctg26_15" style="stroke:black; stroke-width:1; fill:white; " id="dummy-1_q14_0_all"  />
<polygon class="clusterblast-orf" points="470,40 501,40 506,35 501,30 470,30 470,40 " description="&lt;b&gt;ctg26_16&lt;/b&gt;&lt;br&gt;ctg26 16&lt;br&gt;Location: 22927 - 24706" locus_tag="ctg26_16" style="stroke:black; stroke-width:1; fill:white; " id="dummy-1_q15_0_all"  />
<polygon class="clusterblast-orf" points="505,35 510,30 514,30 514,40 510,40 505,35 " description="&lt;b&gt;ctg26_17&lt;/b&gt;&lt;br&gt;ctg26 17&lt;br&gt;Location: 24641 - 25058" locus_tag="ctg26_17" style="stroke:black; stroke-width:1; fill:white; " id="dummy-1_q16_0_all"  />
<polygon class="clusterblast-orf" points="524,35 529,30 534,30 534,40 529,40 524,35 " description="&lt;b&gt;ctg26_18&lt;/b&gt;&lt;br&gt;ctg26 18&lt;br&gt;Location: 25555 - 26041" locus_tag="ctg26_18" style="stroke:black; stroke-width:1; fill:white; " id="dummy-1_q17_0_all"  />
<polygon class="clusterblast-orf" points="535,40 551,40 556,35 551,30 535,30 535,40 " description="&lt;b&gt;ctg26_19&lt;/b&gt;&lt;br&gt;ctg26 19&lt;br&gt;Location: 26111 - 27140" locus_tag="ctg26_19" style="stroke:black; stroke-width:1; fill:#d81515; " id="dummy-1_q18_0_all"  />
<polygon class="clusterblast-orf" points="568,35 573,30 575,30 575,40 573,40 568,35 " description="&lt;b&gt;ctg26_20&lt;/b&gt;&lt;br&gt;ctg26 20&lt;br&gt;Location: 27704 - 28061" locus_tag="ctg26_20" style="stroke:black; stroke-width:1; fill:white; " id="dummy-1_q19_0_all"  />
<polygon class="clusterblast-orf" points="575,40 587,40 592,35 587,30 575,30 575,40 " description="&lt;b&gt;ctg26_21&lt;/b&gt;&lt;br&gt;ctg26 21&lt;br&gt;Location: 28082 - 28877" locus_tag="ctg26_21" style="stroke:black; stroke-width:1; fill:#d81515; " id="dummy-1_q20_0_all"  />
<polygon class="clusterblast-orf" points="596,40 598,40 603,35 598,30 596,30 596,40 " description="&lt;b&gt;ctg26_22&lt;/b&gt;&lt;br&gt;ctg26 22&lt;br&gt;Location: 29098 - 29440" locus_tag="ctg26_22" style="stroke:black; stroke-width:1; fill:white; " id="dummy-1_q21_0_all"  />
<polygon class="clusterblast-orf" points="606,40 616,40 621,35 616,30 606,30 606,40 " description="&lt;b&gt;ctg26_23&lt;/b&gt;&lt;br&gt;ctg26 23&lt;br&gt;Location: 29560 - 30298" locus_tag="ctg26_23" style="stroke:black; stroke-width:1; fill:white; " id="dummy-1_q22_0_all"  />
<polygon class="clusterblast-orf" points="624,40 635,40 640,35 635,30 624,30 624,40 " description="&lt;b&gt;ctg26_24&lt;/b&gt;&lt;br&gt;ctg26 24&lt;br&gt;Location: 30457 - 31222" locus_tag="ctg26_24" style="stroke:black; stroke-width:1; fill:white; " id="dummy-1_q23_0_all"  />
<polygon class="clusterblast-orf" points="642,40 644,40 649,35 644,30 642,30 642,40 " description="&lt;b&gt;ctg26_25&lt;/b&gt;&lt;br&gt;ctg26 25&lt;br&gt;Location: 31321 - 31660" locus_tag="ctg26_25" style="stroke:black; stroke-width:1; fill:white; " id="dummy-1_q24_0_all"  />
<polygon class="clusterblast-orf" points="663,35 668,30 668,30 668,40 668,40 663,35 " description="&lt;b&gt;ctg26_26&lt;/b&gt;&lt;br&gt;ctg26 26&lt;br&gt;Location: 32349 - 32583" locus_tag="ctg26_26" style="stroke:black; stroke-width:1; fill:white; " id="dummy-1_q25_0_all"  />
<polygon class="clusterblast-orf" points="669,35 674,30 687,30 687,40 674,40 669,35 " description="&lt;b&gt;ctg26_27&lt;/b&gt;&lt;br&gt;ctg26 27&lt;br&gt;Location: 32668 - 33511" locus_tag="ctg26_27" style="stroke:black; stroke-width:1; fill:white; " id="dummy-1_q26_0_all"  />
<polygon class="clusterblast-orf" points="687,35 692,30 701,30 701,40 692,40 687,35 " description="&lt;b&gt;ctg26_28&lt;/b&gt;&lt;br&gt;ctg26 28&lt;br&gt;Location: 33524 - 34196" locus_tag="ctg26_28" style="stroke:black; stroke-width:1; fill:white; " id="dummy-1_q27_0_all"  />
<polygon class="clusterblast-orf" points="701,35 706,30 718,30 718,40 706,40 701,35 " description="&lt;b&gt;ctg26_29&lt;/b&gt;&lt;br&gt;ctg26 29&lt;br&gt;Location: 34208 - 35066" locus_tag="ctg26_29" style="stroke:black; stroke-width:1; fill:white; " id="dummy-1_q28_0_all"  />
<polygon class="clusterblast-orf" points="722,40 722,40 727,35 722,30 722,30 722,40 " description="&lt;b&gt;ctg26_30&lt;/b&gt;&lt;br&gt;ctg26 30&lt;br&gt;Location: 35253 - 35466" locus_tag="ctg26_30" style="stroke:black; stroke-width:1; fill:white; " id="dummy-1_q29_0_all"  />
<polygon class="clusterblast-orf" points="735,40 773,40 778,35 773,30 735,30 735,40 " description="&lt;b&gt;ctg26_31&lt;/b&gt;&lt;br&gt;ctg26 31&lt;br&gt;Location: 35868 - 38001" locus_tag="ctg26_31" style="stroke:black; stroke-width:1; fill:white; " id="dummy-1_q30_0_all"  />
</g>
<g description="BGC0001014_c1: Micacocidin (20% of genes show similarity), nrps-t1pks+t1pks" class="clusterblast-cluster" label="BGC0001014"  >
<text class="clusterblast-acc" x="5" y="70"  >
<a xlink:href="https://mibig.secondarymetabolites.org/go/BGC0001014/1" target="_blank">BGC0001014</a>:                                                                      Micacocidin (20% of genes show similarity), nrps-t1pks+t1pks</text>
<line x1="10" style="stroke:grey; stroke-width:1; " y2="85" x2="778.0" y1="85"  />
</g>
<g id="a1_000"  >
<polygon class="clusterblast-orf" points="0,85 5,80 51,80 51,90 5,90 0,85 " description="&lt;b&gt;RSc1804&lt;/b&gt;&lt;br&gt;putative peptide synthase with thioesterase and phosphopantetheinyl transferase domains protein&lt;br&gt;Location: 1 - 2499" locus_tag="RSc1804" style="stroke:black; stroke-width:1; fill:white; " id="dummy-1_h1_4_0"  />
</g>
<g id="a1_001"  >
<polygon class="clusterblast-orf" points="51,85 56,80 74,80 74,90 56,90 51,85 " description="&lt;b&gt;RSc1805&lt;/b&gt;&lt;br&gt;putative siderophore-like synthase protein&lt;br&gt;Location: 2496 - 3659" locus_tag="RSc1805" style="stroke:black; stroke-width:1; fill:white; " id="dummy-1_h1_4_1"  />
</g>
<g id="a1_002"  >
<polygon class="clusterblast-orf" points="79,85 84,80 341,80 341,90 84,90 79,85 " description="&lt;b&gt;RSc1806&lt;/b&gt;&lt;br&gt;probable polyketide synthase protein&lt;br&gt;Location: 3876 - 16682" locus_tag="RSc1806" style="stroke:black; stroke-width:1; fill:white; " id="dummy-1_h1_4_2"  />
</g>
<g id="a1_003"  >
<polygon class="clusterblast-orf" points="346,90 384,90 389,85 384,80 346,80 346,90 " description="&lt;b&gt;RSc1807&lt;/b&gt;&lt;br&gt;putative siderophore receptor protein&lt;br&gt;Location: 16956 - 19031" locus_tag="RSc1807" style="stroke:black; stroke-width:1; fill:white; " id="dummy-1_h1_4_3"  />
</g>
<g id="a1_004"  >
<polygon class="clusterblast-orf" points="391,90 424,90 429,85 424,80 391,80 391,90 " description="&lt;b&gt;RSc1808&lt;/b&gt;&lt;br&gt;probable composite atp-binding transmembrane abc transporter protein&lt;br&gt;Location: 19139 - 20995&lt;br&gt;&lt;br&gt;&lt;b&gt;BlastP hit with ctg26_19&lt;/b&gt;&lt;br&gt;Percentage identity: 53&lt;br&gt;Percentage coverage: 68&lt;br&gt;BLAST bit score: 256&lt;br&gt;E-value: 5.1e-68&lt;br&gt;&lt;br&gt;&lt;b&gt;BlastP hit with ctg26_21&lt;/b&gt;&lt;br&gt;Percentage identity: 54&lt;br&gt;Percentage coverage: 92&lt;br&gt;BLAST bit score: 265&lt;br&gt;E-value: 6.5e-71" locus_tag="RSc1808" style="stroke:black; stroke-width:1; fill:#d81515; " id="dummy-1_h1_4_4"  />
</g>
<g id="a1_005"  >
<polygon class="clusterblast-orf" points="429,90 460,90 465,85 460,80 429,80 429,90 " description="&lt;b&gt;RSc1809&lt;/b&gt;&lt;br&gt;probable composite atp-binding transmembrane abc transporter protein&lt;br&gt;Location: 20992 - 22737&lt;br&gt;&lt;br&gt;&lt;b&gt;BlastP hit with ctg26_19&lt;/b&gt;&lt;br&gt;Percentage identity: 52&lt;br&gt;Percentage coverage: 66&lt;br&gt;BLAST bit score: 253&lt;br&gt;E-value: 5.6e-67&lt;br&gt;&lt;br&gt;&lt;b&gt;BlastP hit with ctg26_21&lt;/b&gt;&lt;br&gt;Percentage identity: 51&lt;br&gt;Percentage coverage: 92&lt;br&gt;BLAST bit score: 249&lt;br&gt;E-value: 4.8e-66" locus_tag="RSc1809" style="stroke:black; stroke-width:1; fill:#d81515; " id="dummy-1_h1_4_5"  />
</g>
<g id="a1_006"  >
<polygon class="clusterblast-orf" points="471,85 476,80 617,80 617,90 476,90 471,85 " description="&lt;b&gt;RSc1810&lt;/b&gt;&lt;br&gt;probable polyketide synthase protein&lt;br&gt;Location: 23038 - 30180" locus_tag="RSc1810" style="stroke:black; stroke-width:1; fill:white; " id="dummy-1_h1_4_6"  />
</g>
<g id="a1_007"  >
<polygon class="clusterblast-orf" points="626,90 744,90 749,85 744,80 626,80 626,90 " description="&lt;b&gt;RSc1811&lt;/b&gt;&lt;br&gt;putative siderophore synthetase protein&lt;br&gt;Location: 30612 - 36632" locus_tag="RSc1811" style="stroke:black; stroke-width:1; fill:white; " id="dummy-1_h1_4_7"  />
</g>
<g id="a1_008"  >
<polygon class="clusterblast-orf" points="751,90 754,90 759,85 754,80 751,80 751,90 " description="&lt;b&gt;RSc1812&lt;/b&gt;&lt;br&gt;conserved hypothetical protein&lt;br&gt;Location: 36722 - 37138" locus_tag="RSc1812" style="stroke:black; stroke-width:1; fill:white; " id="dummy-1_h1_4_8"  />
</g>
<g id="a1_009"  >
<polygon class="clusterblast-orf" points="761,85 766,80 780,80 780,90 766,90 761,85 " description="&lt;b&gt;RSc1813&lt;/b&gt;&lt;br&gt;probable transcription regulator protein&lt;br&gt;Location: 37213 - 38124" locus_tag="RSc1813" style="stroke:black; stroke-width:1; fill:white; " id="dummy-1_h1_4_9"  />
</g>
</svg>
