<svg width="800" y="0" x="0" version="1.1" preserveAspectRatio="none" xmlns="http://www.w3.org/2000/svg" height="50" xmlns:xlink="http://www.w3.org/1999/xlink" viewBox="0 0 800 50"  >
<g class="clusterblast-cluster" label="Query sequence"  >
<text class="clusterblast-acc" x="5" y="20"  >
Query sequence</text>
<line x1="10" style="stroke:grey; stroke-width:1; " y2="35" x2="778.0" y1="35"  />
<polygon class="clusterblast-orf" points="0,40 60,40 65,35 60,30 0,30 0,40 " description="&lt;b&gt;ctg2_137&lt;/b&gt;&lt;br&gt;ctg2 137&lt;br&gt;Location: 169131 - 172599" locus_tag="ctg2_137" style="stroke:black; stroke-width:1; fill:white; " id="knownclusterblast-1_q0_0_all"  />
<polygon class="clusterblast-orf" points="64,40 93,40 98,35 93,30 64,30 64,40 " description="&lt;b&gt;ctg2_138&lt;/b&gt;&lt;br&gt;ctg2 138&lt;br&gt;Location: 172598 - 174398" locus_tag="ctg2_138" style="stroke:black; stroke-width:1; fill:white; " id="knownclusterblast-1_q1_0_all"  />
<polygon class="clusterblast-orf" points="100,40 114,40 119,35 114,30 100,30 100,40 " description="&lt;b&gt;ctg2_139&lt;/b&gt;&lt;br&gt;ctg2 139&lt;br&gt;Location: 174494 - 175490" locus_tag="ctg2_139" style="stroke:black; stroke-width:1; fill:white; " id="knownclusterblast-1_q2_0_all"  />
<polygon class="clusterblast-orf" points="122,35 127,30 153,30 153,40 127,40 122,35 " description="&lt;b&gt;ctg2_140&lt;/b&gt;&lt;br&gt;ctg2 140&lt;br&gt;Location: 175691 - 177356" locus_tag="ctg2_140" style="stroke:black; stroke-width:1; fill:white; " id="knownclusterblast-1_q3_0_all"  />
<polygon class="clusterblast-orf" points="159,35 164,30 165,30 165,40 164,40 159,35 " description="&lt;b&gt;ctg2_141&lt;/b&gt;&lt;br&gt;ctg2 141&lt;br&gt;Location: 177674 - 177977" locus_tag="ctg2_141" style="stroke:black; stroke-width:1; fill:white; " id="knownclusterblast-1_q4_0_all"  />
<polygon class="clusterblast-orf" points="167,40 171,35 167,30 167,40 " description="&lt;b&gt;ctg2_142&lt;/b&gt;&lt;br&gt;ctg2 142&lt;br&gt;Location: 178078 - 178309" locus_tag="ctg2_142" style="stroke:black; stroke-width:1; fill:white; " id="knownclusterblast-1_q5_0_all"  />
<polygon class="clusterblast-orf" points="174,40 175,40 180,35 175,30 174,30 174,40 " description="&lt;b&gt;ctg2_143&lt;/b&gt;&lt;br&gt;ctg2 143&lt;br&gt;Location: 178442 - 178763" locus_tag="ctg2_143" style="stroke:black; stroke-width:1; fill:white; " id="knownclusterblast-1_q6_0_all"  />
<polygon class="clusterblast-orf" points="185,40 200,40 205,35 200,30 185,30 185,40 " description="&lt;b&gt;ctg2_144&lt;/b&gt;&lt;br&gt;ctg2 144&lt;br&gt;Location: 179024 - 180119" locus_tag="ctg2_144" style="stroke:black; stroke-width:1; fill:white; " id="knownclusterblast-1_q7_0_all"  />
<polygon class="clusterblast-orf" points="207,40 207,40 212,35 207,30 207,30 207,40 " description="&lt;b&gt;ctg2_145&lt;/b&gt;&lt;br&gt;ctg2 145&lt;br&gt;Location: 180208 - 180478" locus_tag="ctg2_145" style="stroke:black; stroke-width:1; fill:white; " id="knownclusterblast-1_q8_0_all"  />
<polygon class="clusterblast-orf" points="217,40 221,40 226,35 221,30 217,30 217,40 " description="&lt;b&gt;ctg2_146&lt;/b&gt;&lt;br&gt;ctg2 146&lt;br&gt;Location: 180739 - 181231" locus_tag="ctg2_146" style="stroke:black; stroke-width:1; fill:white; " id="knownclusterblast-1_q9_0_all"  />
<polygon class="clusterblast-orf" points="231,35 236,30 237,30 237,40 236,40 231,35 " description="&lt;b&gt;ctg2_147&lt;/b&gt;&lt;br&gt;ctg2 147&lt;br&gt;Location: 181497 - 181818" locus_tag="ctg2_147" style="stroke:black; stroke-width:1; fill:white; " id="knownclusterblast-1_q10_0_all"  />
<polygon class="clusterblast-orf" points="241,40 241,40 246,35 241,30 241,30 241,40 " description="&lt;b&gt;ctg2_148&lt;/b&gt;&lt;br&gt;ctg2 148&lt;br&gt;Location: 182030 - 182324" locus_tag="ctg2_148" style="stroke:black; stroke-width:1; fill:white; " id="knownclusterblast-1_q11_0_all"  />
<polygon class="clusterblast-orf" points="247,40 262,40 267,35 262,30 247,30 247,40 " description="&lt;b&gt;ctg2_149&lt;/b&gt;&lt;br&gt;ctg2 149&lt;br&gt;Location: 182351 - 183413" locus_tag="ctg2_149" style="stroke:black; stroke-width:1; fill:white; " id="knownclusterblast-1_q12_0_all"  />
<polygon class="clusterblast-orf" points="266,40 272,40 277,35 272,30 266,30 266,40 " description="&lt;b&gt;ctg2_150&lt;/b&gt;&lt;br&gt;ctg2 150&lt;br&gt;Location: 183406 - 183982" locus_tag="ctg2_150" style="stroke:black; stroke-width:1; fill:white; " id="knownclusterblast-1_q13_0_all"  />
<polygon class="clusterblast-orf" points="277,40 284,40 289,35 284,30 277,30 277,40 " description="&lt;b&gt;ctg2_151&lt;/b&gt;&lt;br&gt;ctg2 151&lt;br&gt;Location: 183993 - 184605" locus_tag="ctg2_151" style="stroke:black; stroke-width:1; fill:white; " id="knownclusterblast-1_q14_0_all"  />
<polygon class="clusterblast-orf" points="289,40 298,40 303,35 298,30 289,30 289,40 " description="&lt;b&gt;ctg2_152&lt;/b&gt;&lt;br&gt;ctg2 152&lt;br&gt;Location: 184601 - 185375" locus_tag="ctg2_152" style="stroke:black; stroke-width:1; fill:white; " id="knownclusterblast-1_q15_0_all"  />
<polygon class="clusterblast-orf" points="302,40 314,40 319,35 314,30 302,30 302,40 " description="&lt;b&gt;ctg2_153&lt;/b&gt;&lt;br&gt;ctg2 153&lt;br&gt;Location: 185325 - 186240" locus_tag="ctg2_153" style="stroke:black; stroke-width:1; fill:white; " id="knownclusterblast-1_q16_0_all"  />
<polygon class="clusterblast-orf" points="325,40 338,40 343,35 338,30 325,30 325,40 " description="&lt;b&gt;ctg2_154&lt;/b&gt;&lt;br&gt;ctg2 154&lt;br&gt;Location: 186552 - 187524" locus_tag="ctg2_154" style="stroke:black; stroke-width:1; fill:white; " id="knownclusterblast-1_q17_0_all"  />
<polygon class="clusterblast-orf" points="351,40 372,40 377,35 372,30 351,30 351,40 " description="&lt;b&gt;ctg2_155&lt;/b&gt;&lt;br&gt;ctg2 155&lt;br&gt;Location: 187902 - 189309" locus_tag="ctg2_155" style="stroke:black; stroke-width:1; fill:white; " id="knownclusterblast-1_q18_0_all"  />
<polygon class="clusterblast-orf" points="379,40 383,35 379,30 379,40 " description="&lt;b&gt;ctg2_156&lt;/b&gt;&lt;br&gt;ctg2 156&lt;br&gt;Location: 189406 - 189637" locus_tag="ctg2_156" style="stroke:black; stroke-width:1; fill:white; " id="knownclusterblast-1_q19_0_all"  />
<polygon class="clusterblast-orf" points="384,40 408,40 413,35 408,30 384,30 384,40 " description="&lt;b&gt;ctg2_157&lt;/b&gt;&lt;br&gt;ctg2 157&lt;br&gt;Location: 189716 - 191261" locus_tag="ctg2_157" style="stroke:black; stroke-width:1; fill:white; " id="knownclusterblast-1_q20_0_all"  />
<polygon class="clusterblast-orf" points="415,35 420,30 426,30 426,40 420,40 415,35 " description="&lt;b&gt;ctg2_158&lt;/b&gt;&lt;br&gt;ctg2 158&lt;br&gt;Location: 191369 - 191948" locus_tag="ctg2_158" style="stroke:black; stroke-width:1; fill:white; " id="knownclusterblast-1_q21_0_all"  />
<polygon class="clusterblast-orf" points="428,35 433,30 441,30 441,40 433,40 428,35 " description="&lt;b&gt;ctg2_159&lt;/b&gt;&lt;br&gt;ctg2 159&lt;br&gt;Location: 192049 - 192751" locus_tag="ctg2_159" style="stroke:black; stroke-width:1; fill:white; " id="knownclusterblast-1_q22_0_all"  />
<polygon class="clusterblast-orf" points="449,35 454,30 468,30 468,40 454,40 449,35 " description="&lt;b&gt;ctg2_160&lt;/b&gt;&lt;br&gt;ctg2 160&lt;br&gt;Location: 193164 - 194172" locus_tag="ctg2_160" style="stroke:black; stroke-width:1; fill:white; " id="knownclusterblast-1_q23_0_all"  />
<polygon class="clusterblast-orf" points="474,40 495,40 500,35 495,30 474,30 474,40 " description="&lt;b&gt;ctg2_161&lt;/b&gt;&lt;br&gt;ctg2 161&lt;br&gt;Location: 194517 - 195918" locus_tag="ctg2_161" style="stroke:black; stroke-width:1; fill:white; " id="knownclusterblast-1_q24_0_all"  />
<polygon class="clusterblast-orf" points="500,40 511,40 516,35 511,30 500,30 500,40 " description="&lt;b&gt;ctg2_162&lt;/b&gt;&lt;br&gt;ctg2 162&lt;br&gt;Location: 195920 - 196754" locus_tag="ctg2_162" style="stroke:black; stroke-width:1; fill:white; " id="knownclusterblast-1_q25_0_all"  />
<polygon class="clusterblast-orf" points="516,40 528,40 533,35 528,30 516,30 516,40 " description="&lt;b&gt;ctg2_163&lt;/b&gt;&lt;br&gt;ctg2 163&lt;br&gt;Location: 196746 - 197679" locus_tag="ctg2_163" style="stroke:black; stroke-width:1; fill:white; " id="knownclusterblast-1_q26_0_all"  />
<polygon class="clusterblast-orf" points="536,40 559,40 564,35 559,30 536,30 536,40 " description="&lt;b&gt;ctg2_164&lt;/b&gt;&lt;br&gt;ctg2 164&lt;br&gt;Location: 197826 - 199302" locus_tag="ctg2_164" style="stroke:black; stroke-width:1; fill:white; " id="knownclusterblast-1_q27_0_all"  />
<polygon class="clusterblast-orf" points="570,40 592,40 597,35 592,30 570,30 570,40 " description="&lt;b&gt;ctg2_165&lt;/b&gt;&lt;br&gt;ctg2 165&lt;br&gt;Location: 199657 - 201088" locus_tag="ctg2_165" style="stroke:black; stroke-width:1; fill:white; " id="knownclusterblast-1_q28_0_all"  />
<polygon class="clusterblast-orf" points="598,40 620,40 625,35 620,30 598,30 598,40 " description="&lt;b&gt;ctg2_166&lt;/b&gt;&lt;br&gt;ctg2 166&lt;br&gt;Location: 201154 - 202582" locus_tag="ctg2_166" style="stroke:black; stroke-width:1; fill:white; " id="knownclusterblast-1_q29_0_all"  />
<polygon class="clusterblast-orf" points="626,35 631,30 657,30 657,40 631,40 626,35 " description="&lt;b&gt;ctg2_167&lt;/b&gt;&lt;br&gt;ctg2 167&lt;br&gt;Location: 202652 - 204305" locus_tag="ctg2_167" style="stroke:black; stroke-width:1; fill:white; " id="knownclusterblast-1_q30_0_all"  />
<polygon class="clusterblast-orf" points="657,35 662,30 672,30 672,40 662,40 657,35 " description="&lt;b&gt;ctg2_168&lt;/b&gt;&lt;br&gt;ctg2 168&lt;br&gt;Location: 204297 - 205077" locus_tag="ctg2_168" style="stroke:black; stroke-width:1; fill:white; " id="knownclusterblast-1_q31_0_all"  />
<polygon class="clusterblast-orf" points="672,35 677,30 707,30 707,40 677,40 672,35 " description="&lt;b&gt;ctg2_169&lt;/b&gt;&lt;br&gt;ctg2 169&lt;br&gt;Location: 205091 - 206960" locus_tag="ctg2_169" style="stroke:black; stroke-width:1; fill:white; " id="knownclusterblast-1_q32_0_all"  />
<polygon class="clusterblast-orf" points="711,40 724,40 729,35 724,30 711,30 711,40 " description="&lt;b&gt;ctg2_170&lt;/b&gt;&lt;br&gt;ctg2 170&lt;br&gt;Location: 207181 - 208138" locus_tag="ctg2_170" style="stroke:black; stroke-width:1; fill:white; " id="knownclusterblast-1_q33_0_all"  />
<polygon class="clusterblast-orf" points="729,40 741,40 746,35 741,30 729,30 729,40 " description="&lt;b&gt;ctg2_171&lt;/b&gt;&lt;br&gt;ctg2 171&lt;br&gt;Location: 208150 - 209056" locus_tag="ctg2_171" style="stroke:black; stroke-width:1; fill:white; " id="knownclusterblast-1_q34_0_all"  />
<polygon class="clusterblast-orf" points="748,40 775,40 780,35 775,30 748,30 748,40 " description="&lt;b&gt;ctg2_172&lt;/b&gt;&lt;br&gt;ctg2 172&lt;br&gt;Location: 209154 - 210864" locus_tag="ctg2_172" style="stroke:black; stroke-width:1; fill:white; " id="knownclusterblast-1_q35_0_all"  />
</g>
</svg>
