<svg width="800" y="0" x="0" version="1.1" preserveAspectRatio="none" xmlns="http://www.w3.org/2000/svg" height="230" xmlns:xlink="http://www.w3.org/1999/xlink" viewBox="0 0 800 230"  >
<g class="clusterblast-cluster" label="Query sequence"  >
<text class="clusterblast-acc" x="5" y="20"  >
Query sequence</text>
<line x1="10" style="stroke:grey; stroke-width:1; " y2="35" x2="778.0" y1="35"  />
<polygon class="clusterblast-orf" points="64,40 68,35 64,30 64,40 " description="&lt;b&gt;ctg26_1&lt;/b&gt;&lt;br&gt;ctg26 1&lt;br&gt;Location: 1 - 214" locus_tag="ctg26_1" style="stroke:black; stroke-width:1; fill:white; " id="dummy-1_q0_0_all"  />
<polygon class="clusterblast-orf" points="68,40 73,40 78,35 73,30 68,30 68,40 " description="&lt;b&gt;ctg26_2&lt;/b&gt;&lt;br&gt;ctg26 2&lt;br&gt;Location: 213 - 813" locus_tag="ctg26_2" style="stroke:black; stroke-width:1; fill:white; " id="dummy-1_q1_0_all"  />
<polygon class="clusterblast-orf" points="90,40 94,35 90,30 90,40 " description="&lt;b&gt;ctg26_3&lt;/b&gt;&lt;br&gt;ctg26 3&lt;br&gt;Location: 1499 - 1724" locus_tag="ctg26_3" style="stroke:black; stroke-width:1; fill:white; " id="dummy-1_q2_0_all"  />
<polygon class="clusterblast-orf" points="94,40 118,40 123,35 118,30 94,30 94,40 " description="&lt;b&gt;ctg26_4&lt;/b&gt;&lt;br&gt;ctg26 4&lt;br&gt;Location: 1738 - 3415" locus_tag="ctg26_4" style="stroke:black; stroke-width:1; fill:white; " id="dummy-1_q3_0_all"  />
<polygon class="clusterblast-orf" points="125,40 138,40 143,35 138,30 125,30 125,40 " description="&lt;b&gt;ctg26_5&lt;/b&gt;&lt;br&gt;ctg26 5&lt;br&gt;Location: 3561 - 4605" locus_tag="ctg26_5" style="stroke:black; stroke-width:1; fill:white; " id="dummy-1_q4_0_all"  />
<polygon class="clusterblast-orf" points="145,40 187,40 192,35 187,30 145,30 145,40 " description="&lt;b&gt;ctg26_6&lt;/b&gt;&lt;br&gt;ctg26 6&lt;br&gt;Location: 4686 - 7443" locus_tag="ctg26_6" style="stroke:black; stroke-width:1; fill:white; " id="dummy-1_q5_0_all"  />
<polygon class="clusterblast-orf" points="195,40 199,35 195,30 195,40 " description="&lt;b&gt;ctg26_7&lt;/b&gt;&lt;br&gt;ctg26 7&lt;br&gt;Location: 7637 - 7877" locus_tag="ctg26_7" style="stroke:black; stroke-width:1; fill:white; " id="dummy-1_q6_0_all"  />
<polygon class="clusterblast-orf" points="201,40 208,40 213,35 208,30 201,30 201,40 " description="&lt;b&gt;ctg26_8&lt;/b&gt;&lt;br&gt;ctg26 8&lt;br&gt;Location: 7963 - 8698" locus_tag="ctg26_8" style="stroke:black; stroke-width:1; fill:white; " id="dummy-1_q7_0_all"  />
<polygon class="clusterblast-orf" points="213,40 227,40 232,35 227,30 213,30 213,40 " description="&lt;b&gt;ctg26_9&lt;/b&gt;&lt;br&gt;ctg26 9&lt;br&gt;Location: 8690 - 9779" locus_tag="ctg26_9" style="stroke:black; stroke-width:1; fill:white; " id="dummy-1_q8_0_all"  />
<polygon class="clusterblast-orf" points="232,40 286,40 291,35 286,30 232,30 232,40 " description="&lt;b&gt;ctg26_10&lt;/b&gt;&lt;br&gt;ctg26 10&lt;br&gt;Location: 9816 - 13233" locus_tag="ctg26_10" style="stroke:black; stroke-width:1; fill:white; " id="dummy-1_q9_0_all"  />
<polygon class="clusterblast-orf" points="291,40 381,40 386,35 381,30 291,30 291,40 " description="&lt;b&gt;ctg26_11&lt;/b&gt;&lt;br&gt;ctg26 11&lt;br&gt;Location: 13254 - 18792" locus_tag="ctg26_11" style="stroke:black; stroke-width:1; fill:white; " id="dummy-1_q10_0_all"  />
<polygon class="clusterblast-orf" points="387,40 401,40 406,35 401,30 387,30 387,40 " description="&lt;b&gt;ctg26_12&lt;/b&gt;&lt;br&gt;ctg26 12&lt;br&gt;Location: 18856 - 19957" locus_tag="ctg26_12" style="stroke:black; stroke-width:1; fill:white; " id="dummy-1_q11_0_all"  />
<polygon class="clusterblast-orf" points="406,40 414,40 419,35 414,30 406,30 406,40 " description="&lt;b&gt;ctg26_13&lt;/b&gt;&lt;br&gt;ctg26 13&lt;br&gt;Location: 19928 - 20699" locus_tag="ctg26_13" style="stroke:black; stroke-width:1; fill:white; " id="dummy-1_q12_0_all"  />
<polygon class="clusterblast-orf" points="420,40 432,40 437,35 432,30 420,30 420,40 " description="&lt;b&gt;ctg26_14&lt;/b&gt;&lt;br&gt;ctg26 14&lt;br&gt;Location: 20797 - 21742" locus_tag="ctg26_14" style="stroke:black; stroke-width:1; fill:white; " id="dummy-1_q13_0_all"  />
<polygon class="clusterblast-orf" points="439,40 444,40 449,35 444,30 439,30 439,40 " description="&lt;b&gt;ctg26_15&lt;/b&gt;&lt;br&gt;ctg26 15&lt;br&gt;Location: 21869 - 22481" locus_tag="ctg26_15" style="stroke:black; stroke-width:1; fill:white; " id="dummy-1_q14_0_all"  />
<polygon class="clusterblast-orf" points="457,40 482,40 487,35 482,30 457,30 457,40 " description="&lt;b&gt;ctg26_16&lt;/b&gt;&lt;br&gt;ctg26 16&lt;br&gt;Location: 22927 - 24706" locus_tag="ctg26_16" style="stroke:black; stroke-width:1; fill:white; " id="dummy-1_q15_0_all"  />
<polygon class="clusterblast-orf" points="486,35 491,30 493,30 493,40 491,40 486,35 " description="&lt;b&gt;ctg26_17&lt;/b&gt;&lt;br&gt;ctg26 17&lt;br&gt;Location: 24641 - 25058" locus_tag="ctg26_17" style="stroke:black; stroke-width:1; fill:white; " id="dummy-1_q16_0_all"  />
<polygon class="clusterblast-orf" points="502,35 507,30 510,30 510,40 507,40 502,35 " description="&lt;b&gt;ctg26_18&lt;/b&gt;&lt;br&gt;ctg26 18&lt;br&gt;Location: 25555 - 26041" locus_tag="ctg26_18" style="stroke:black; stroke-width:1; fill:white; " id="dummy-1_q17_0_all"  />
<polygon class="clusterblast-orf" points="511,40 524,40 529,35 524,30 511,30 511,40 " description="&lt;b&gt;ctg26_19&lt;/b&gt;&lt;br&gt;ctg26 19&lt;br&gt;Location: 26111 - 27140" locus_tag="ctg26_19" style="stroke:black; stroke-width:1; fill:#d81515; " id="dummy-1_q18_0_all"  />
<polygon class="clusterblast-orf" points="539,35 544,30 545,30 545,40 544,40 539,35 " description="&lt;b&gt;ctg26_20&lt;/b&gt;&lt;br&gt;ctg26 20&lt;br&gt;Location: 27704 - 28061" locus_tag="ctg26_20" style="stroke:black; stroke-width:1; fill:white; " id="dummy-1_q19_0_all"  />
<polygon class="clusterblast-orf" points="545,40 554,40 559,35 554,30 545,30 545,40 " description="&lt;b&gt;ctg26_21&lt;/b&gt;&lt;br&gt;ctg26 21&lt;br&gt;Location: 28082 - 28877" locus_tag="ctg26_21" style="stroke:black; stroke-width:1; fill:#d81515; " id="dummy-1_q20_0_all"  />
<polygon class="clusterblast-orf" points="563,40 563,40 568,35 563,30 563,30 563,40 " description="&lt;b&gt;ctg26_22&lt;/b&gt;&lt;br&gt;ctg26 22&lt;br&gt;Location: 29098 - 29440" locus_tag="ctg26_22" style="stroke:black; stroke-width:1; fill:white; " id="dummy-1_q21_0_all"  />
<polygon class="clusterblast-orf" points="570,40 578,40 583,35 578,30 570,30 570,40 " description="&lt;b&gt;ctg26_23&lt;/b&gt;&lt;br&gt;ctg26 23&lt;br&gt;Location: 29560 - 30298" locus_tag="ctg26_23" style="stroke:black; stroke-width:1; fill:white; " id="dummy-1_q22_0_all"  />
<polygon class="clusterblast-orf" points="586,40 594,40 599,35 594,30 586,30 586,40 " description="&lt;b&gt;ctg26_24&lt;/b&gt;&lt;br&gt;ctg26 24&lt;br&gt;Location: 30457 - 31222" locus_tag="ctg26_24" style="stroke:black; stroke-width:1; fill:white; " id="dummy-1_q23_0_all"  />
<polygon class="clusterblast-orf" points="601,40 601,40 606,35 601,30 601,30 601,40 " description="&lt;b&gt;ctg26_25&lt;/b&gt;&lt;br&gt;ctg26 25&lt;br&gt;Location: 31321 - 31660" locus_tag="ctg26_25" style="stroke:black; stroke-width:1; fill:white; " id="dummy-1_q24_0_all"  />
<polygon class="clusterblast-orf" points="618,35 622,30 622,40 618,35 " description="&lt;b&gt;ctg26_26&lt;/b&gt;&lt;br&gt;ctg26 26&lt;br&gt;Location: 32349 - 32583" locus_tag="ctg26_26" style="stroke:black; stroke-width:1; fill:white; " id="dummy-1_q25_0_all"  />
<polygon class="clusterblast-orf" points="624,35 629,30 638,30 638,40 629,40 624,35 " description="&lt;b&gt;ctg26_27&lt;/b&gt;&lt;br&gt;ctg26 27&lt;br&gt;Location: 32668 - 33511" locus_tag="ctg26_27" style="stroke:black; stroke-width:1; fill:white; " id="dummy-1_q26_0_all"  />
<polygon class="clusterblast-orf" points="638,35 643,30 650,30 650,40 643,40 638,35 " description="&lt;b&gt;ctg26_28&lt;/b&gt;&lt;br&gt;ctg26 28&lt;br&gt;Location: 33524 - 34196" locus_tag="ctg26_28" style="stroke:black; stroke-width:1; fill:white; " id="dummy-1_q27_0_all"  />
<polygon class="clusterblast-orf" points="650,35 655,30 665,30 665,40 655,40 650,35 " description="&lt;b&gt;ctg26_29&lt;/b&gt;&lt;br&gt;ctg26 29&lt;br&gt;Location: 34208 - 35066" locus_tag="ctg26_29" style="stroke:black; stroke-width:1; fill:white; " id="dummy-1_q28_0_all"  />
<polygon class="clusterblast-orf" points="668,40 672,35 668,30 668,40 " description="&lt;b&gt;ctg26_30&lt;/b&gt;&lt;br&gt;ctg26 30&lt;br&gt;Location: 35253 - 35466" locus_tag="ctg26_30" style="stroke:black; stroke-width:1; fill:white; " id="dummy-1_q29_0_all"  />
<polygon class="clusterblast-orf" points="678,40 710,40 715,35 710,30 678,30 678,40 " description="&lt;b&gt;ctg26_31&lt;/b&gt;&lt;br&gt;ctg26 31&lt;br&gt;Location: 35868 - 38001" locus_tag="ctg26_31" style="stroke:black; stroke-width:1; fill:white; " id="dummy-1_q30_0_all"  />
</g>
<g description="BGC0000973_c1: Collismycin A (7% of genes show similarity), nrps-t1pks" class="clusterblast-cluster" label="BGC0000973"  >
<text class="clusterblast-acc" x="5" y="70"  >
<a xlink:href="https://mibig.secondarymetabolites.org/go/BGC0000973/1" target="_blank">BGC0000973</a>:                                                                    Collismycin A (7% of genes show similarity), nrps-t1pks</text>
<line x1="10" style="stroke:grey; stroke-width:1; " y2="85" x2="778.0" y1="85"  />
</g>
<g id="a1_000"  >
<polygon class="clusterblast-orf" points="0,85 5,80 69,80 69,90 5,90 0,85 " description="&lt;b&gt;CCC55927.1&lt;/b&gt;&lt;br&gt;hypothetical protein&lt;br&gt;Location: 46105 - 42017" locus_tag="CCC55927.1" style="stroke:black; stroke-width:1; fill:white; " id="dummy-1_h1_9_0"  />
</g>
<g id="a1_001"  >
<polygon class="clusterblast-orf" points="75,85 80,80 85,80 85,90 80,90 75,85 " description="&lt;b&gt;CCC55926.1&lt;/b&gt;&lt;br&gt;hypothetical protein&lt;br&gt;Location: 41708 - 41103" locus_tag="CCC55926.1" style="stroke:black; stroke-width:1; fill:white; " id="dummy-1_h1_9_1"  />
</g>
<g id="a1_002"  >
<polygon class="clusterblast-orf" points="93,90 109,90 114,85 109,80 93,80 93,90 " description="&lt;b&gt;CCC55925.1&lt;/b&gt;&lt;br&gt;hypothetical protein&lt;br&gt;Location: 40665 - 39442" locus_tag="CCC55925.1" style="stroke:black; stroke-width:1; fill:white; " id="dummy-1_h1_9_2"  />
</g>
<g id="a1_003"  >
<polygon class="clusterblast-orf" points="115,85 120,80 127,80 127,90 120,90 115,85 " description="&lt;b&gt;CCC55924.1&lt;/b&gt;&lt;br&gt;putative type II thioesterase&lt;br&gt;Location: 39380 - 38652" locus_tag="CCC55924.1" style="stroke:black; stroke-width:1; fill:white; " id="dummy-1_h1_9_3"  />
</g>
<g id="a1_004"  >
<polygon class="clusterblast-orf" points="127,85 132,80 147,80 147,90 132,90 127,85 " description="&lt;b&gt;CCC55923.1&lt;/b&gt;&lt;br&gt;putative acyl-CoA dehydrogenase&lt;br&gt;Location: 38659 - 37475" locus_tag="CCC55923.1" style="stroke:black; stroke-width:1; fill:white; " id="dummy-1_h1_9_4"  />
</g>
<g id="a1_005"  >
<polygon class="clusterblast-orf" points="147,85 152,80 203,80 203,90 152,90 147,85 " description="&lt;b&gt;CCC55922.1&lt;/b&gt;&lt;br&gt;putative non-ribosomal peptide synthetase&lt;br&gt;Location: 37478 - 34203" locus_tag="CCC55922.1" style="stroke:black; stroke-width:1; fill:white; " id="dummy-1_h1_9_5"  />
</g>
<g id="a1_006"  >
<polygon class="clusterblast-orf" points="203,85 208,80 334,80 334,90 208,90 203,85 " description="&lt;b&gt;CCC55921.1&lt;/b&gt;&lt;br&gt;non-ribosomal peptide synthetase/polyketide synthase hybrid protein&lt;br&gt;Location: 34206 - 26548" locus_tag="CCC55921.1" style="stroke:black; stroke-width:1; fill:white; " id="dummy-1_h1_9_6"  />
</g>
<g id="a1_007"  >
<polygon class="clusterblast-orf" points="332,85 337,80 353,80 353,90 337,90 332,85 " description="&lt;b&gt;CCC55920.1&lt;/b&gt;&lt;br&gt;monomeric sarcosine oxidase&lt;br&gt;Location: 26662 - 25481" locus_tag="CCC55920.1" style="stroke:black; stroke-width:1; fill:white; " id="dummy-1_h1_9_7"  />
</g>
<g id="a1_008"  >
<polygon class="clusterblast-orf" points="353,85 358,80 376,80 376,90 358,90 353,85 " description="&lt;b&gt;CCC55919.1&lt;/b&gt;&lt;br&gt;L-Lysine 2-aminotransferase&lt;br&gt;Location: 25484 - 24108" locus_tag="CCC55919.1" style="stroke:black; stroke-width:1; fill:white; " id="dummy-1_h1_9_8"  />
</g>
<g id="a1_009"  >
<polygon class="clusterblast-orf" points="380,90 380,90 385,85 380,80 380,80 380,90 " description="&lt;b&gt;CCC55918.1&lt;/b&gt;&lt;br&gt;putative free-standing acyl carrier protein&lt;br&gt;Location: 23871 - 23611" locus_tag="CCC55918.1" style="stroke:black; stroke-width:1; fill:white; " id="dummy-1_h1_9_9"  />
</g>
<g id="a1_0010"  >
<polygon class="clusterblast-orf" points="385,90 408,90 413,85 408,80 385,80 385,90 " description="&lt;b&gt;CCC55917.1&lt;/b&gt;&lt;br&gt;putative acyl CoA ligase&lt;br&gt;Location: 23614 - 21926" locus_tag="CCC55917.1" style="stroke:black; stroke-width:1; fill:white; " id="dummy-1_h1_9_10"  />
</g>
<g id="a1_0011"  >
<polygon class="clusterblast-orf" points="414,90 430,90 435,85 430,80 414,80 414,90 " description="&lt;b&gt;CCC55916.1&lt;/b&gt;&lt;br&gt;amidohydrolase&lt;br&gt;Location: 21921 - 20680" locus_tag="CCC55916.1" style="stroke:black; stroke-width:1; fill:white; " id="dummy-1_h1_9_11"  />
</g>
<g id="a1_0012"  >
<polygon class="clusterblast-orf" points="436,85 441,80 457,80 457,90 441,90 436,85 " description="&lt;b&gt;CCC55915.1&lt;/b&gt;&lt;br&gt;putative FAD dependent monooxygenase&lt;br&gt;Location: 20613 - 19405" locus_tag="CCC55915.1" style="stroke:black; stroke-width:1; fill:white; " id="dummy-1_h1_9_12"  />
</g>
<g id="a1_0013"  >
<polygon class="clusterblast-orf" points="462,90 474,90 479,85 474,80 462,80 462,90 " description="&lt;b&gt;CCC55914.1&lt;/b&gt;&lt;br&gt;GriC-like dehydrogenase component&lt;br&gt;Location: 19109 - 18078" locus_tag="CCC55914.1" style="stroke:black; stroke-width:1; fill:white; " id="dummy-1_h1_9_13"  />
</g>
<g id="a1_0014"  >
<polygon class="clusterblast-orf" points="479,90 498,90 503,85 498,80 479,80 479,90 " description="&lt;b&gt;CCC55913.1&lt;/b&gt;&lt;br&gt;GriD-like dehydrogenase component&lt;br&gt;Location: 18076 - 16688" locus_tag="CCC55913.1" style="stroke:black; stroke-width:1; fill:white; " id="dummy-1_h1_9_14"  />
</g>
<g id="a1_0015"  >
<polygon class="clusterblast-orf" points="505,85 510,80 521,80 521,90 510,90 505,85 " description="&lt;b&gt;CCC55912.1&lt;/b&gt;&lt;br&gt;S-Methyltransferase&lt;br&gt;Location: 16606 - 15620" locus_tag="CCC55912.1" style="stroke:black; stroke-width:1; fill:white; " id="dummy-1_h1_9_15"  />
</g>
<g id="a1_0016"  >
<polygon class="clusterblast-orf" points="524,85 529,80 552,80 552,90 529,90 524,85 " description="&lt;b&gt;CCC55911.1&lt;/b&gt;&lt;br&gt;putative aminotransferase&lt;br&gt;Location: 15495 - 13861" locus_tag="CCC55911.1" style="stroke:black; stroke-width:1; fill:white; " id="dummy-1_h1_9_16"  />
</g>
<g id="a1_0017"  >
<polygon class="clusterblast-orf" points="554,90 577,90 582,85 577,80 554,80 554,90 " description="&lt;b&gt;CCC55910.1&lt;/b&gt;&lt;br&gt;putative dehydrogenase&lt;br&gt;Location: 13703 - 12105" locus_tag="CCC55910.1" style="stroke:black; stroke-width:1; fill:white; " id="dummy-1_h1_9_17"  />
</g>
<g id="a1_0018"  >
<polygon class="clusterblast-orf" points="582,90 595,90 600,85 595,80 582,80 582,90 " description="&lt;b&gt;CCC55909.1&lt;/b&gt;&lt;br&gt;O-methyltransferase&lt;br&gt;Location: 12070 - 11042" locus_tag="CCC55909.1" style="stroke:black; stroke-width:1; fill:white; " id="dummy-1_h1_9_18"  />
</g>
<g id="a1_0019"  >
<polygon class="clusterblast-orf" points="603,85 608,80 611,80 611,90 608,90 603,85 " description="&lt;b&gt;CCC55908.1&lt;/b&gt;&lt;br&gt;LuxR family transcriptional regulator&lt;br&gt;Location: 10869 - 10363" locus_tag="CCC55908.1" style="stroke:black; stroke-width:1; fill:white; " id="dummy-1_h1_9_19"  />
</g>
<g id="a1_0020"  >
<polygon class="clusterblast-orf" points="616,85 621,80 629,80 629,90 621,90 616,85 " description="&lt;b&gt;CCC55907.1&lt;/b&gt;&lt;br&gt;putative ABC tarnsporter, ATP-binding protein&lt;br&gt;Location: 10099 - 9314" locus_tag="CCC55907.1" style="stroke:black; stroke-width:1; fill:white; " id="dummy-1_h1_9_20"  />
</g>
<g id="a1_0021"  >
<polygon class="clusterblast-orf" points="630,85 635,80 646,80 646,90 635,90 630,85 " description="&lt;b&gt;CCC55906.1&lt;/b&gt;&lt;br&gt;putative ABC transporter, permease component&lt;br&gt;Location: 9305 - 8322" locus_tag="CCC55906.1" style="stroke:black; stroke-width:1; fill:white; " id="dummy-1_h1_9_21"  />
</g>
<g id="a1_0022"  >
<polygon class="clusterblast-orf" points="649,85 654,80 665,80 665,90 654,90 649,85 " description="&lt;b&gt;CCC55905.1&lt;/b&gt;&lt;br&gt;putative ABC transporter, solute binding protein&lt;br&gt;Location: 8193 - 7225" locus_tag="CCC55905.1" style="stroke:black; stroke-width:1; fill:white; " id="dummy-1_h1_9_22"  />
</g>
<g id="a1_0023"  >
<polygon class="clusterblast-orf" points="669,90 694,90 699,85 694,80 669,80 669,90 " description="&lt;b&gt;CCC55904.1&lt;/b&gt;&lt;br&gt;putative ABC transporter, ATPase and permease component&lt;br&gt;Location: 7016 - 5256&lt;br&gt;&lt;br&gt;&lt;b&gt;BlastP hit with ctg26_19&lt;/b&gt;&lt;br&gt;Percentage identity: 53&lt;br&gt;Percentage coverage: 64&lt;br&gt;BLAST bit score: 236&lt;br&gt;E-value: 7.1e-62&lt;br&gt;&lt;br&gt;&lt;b&gt;BlastP hit with ctg26_21&lt;/b&gt;&lt;br&gt;Percentage identity: 47&lt;br&gt;Percentage coverage: 97&lt;br&gt;BLAST bit score: 235&lt;br&gt;E-value: 7.2e-62" locus_tag="CCC55904.1" style="stroke:black; stroke-width:1; fill:#d81515; " id="dummy-1_h1_9_23"  />
</g>
<g id="a1_0024"  >
<polygon class="clusterblast-orf" points="699,90 724,90 729,85 724,80 699,80 699,90 " description="&lt;b&gt;CCC55903.1&lt;/b&gt;&lt;br&gt;putative ABC transporter, ATPase and permease component&lt;br&gt;Location: 5247 - 3514&lt;br&gt;&lt;br&gt;&lt;b&gt;BlastP hit with ctg26_19&lt;/b&gt;&lt;br&gt;Percentage identity: 47&lt;br&gt;Percentage coverage: 68&lt;br&gt;BLAST bit score: 227&lt;br&gt;E-value: 3.3e-59&lt;br&gt;&lt;br&gt;&lt;b&gt;BlastP hit with ctg26_21&lt;/b&gt;&lt;br&gt;Percentage identity: 47&lt;br&gt;Percentage coverage: 102&lt;br&gt;BLAST bit score: 225&lt;br&gt;E-value: 1.3e-58" locus_tag="CCC55903.1" style="stroke:black; stroke-width:1; fill:#d81515; " id="dummy-1_h1_9_24"  />
</g>
<g id="a1_0025"  >
<polygon class="clusterblast-orf" points="730,85 735,80 740,80 740,90 735,90 730,85 " description="&lt;b&gt;CCC55902.1&lt;/b&gt;&lt;br&gt;putative TetR transcriptional regulator&lt;br&gt;Location: 3414 - 2857" locus_tag="CCC55902.1" style="stroke:black; stroke-width:1; fill:white; " id="dummy-1_h1_9_25"  />
</g>
<g id="a1_0026"  >
<polygon class="clusterblast-orf" points="751,90 775,90 780,85 775,80 751,80 751,90 " description="&lt;b&gt;CCC55901.1&lt;/b&gt;&lt;br&gt;hypothetical protein&lt;br&gt;Location: 2237 - 549" locus_tag="CCC55901.1" style="stroke:black; stroke-width:1; fill:white; " id="dummy-1_h1_9_26"  />
</g>
</svg>
