<svg width="800" y="0" x="0" version="1.1" preserveAspectRatio="none" xmlns="http://www.w3.org/2000/svg" height="230" xmlns:xlink="http://www.w3.org/1999/xlink" viewBox="0 0 800 230"  >
<g class="clusterblast-cluster" label="Query sequence"  >
<text class="clusterblast-acc" x="5" y="20"  >
Query sequence</text>
<line x1="10" style="stroke:grey; stroke-width:1; " y2="35" x2="778.0" y1="35"  />
<polygon class="clusterblast-orf" points="64,40 68,35 64,30 64,40 " description="&lt;b&gt;ctg26_1&lt;/b&gt;&lt;br&gt;ctg26 1&lt;br&gt;Location: 1 - 214" locus_tag="ctg26_1" style="stroke:black; stroke-width:1; fill:white; " id="dummy-1_q0_0_all"  />
<polygon class="clusterblast-orf" points="68,40 73,40 78,35 73,30 68,30 68,40 " description="&lt;b&gt;ctg26_2&lt;/b&gt;&lt;br&gt;ctg26 2&lt;br&gt;Location: 213 - 813" locus_tag="ctg26_2" style="stroke:black; stroke-width:1; fill:white; " id="dummy-1_q1_0_all"  />
<polygon class="clusterblast-orf" points="90,40 94,35 90,30 90,40 " description="&lt;b&gt;ctg26_3&lt;/b&gt;&lt;br&gt;ctg26 3&lt;br&gt;Location: 1499 - 1724" locus_tag="ctg26_3" style="stroke:black; stroke-width:1; fill:white; " id="dummy-1_q2_0_all"  />
<polygon class="clusterblast-orf" points="94,40 118,40 123,35 118,30 94,30 94,40 " description="&lt;b&gt;ctg26_4&lt;/b&gt;&lt;br&gt;ctg26 4&lt;br&gt;Location: 1738 - 3415" locus_tag="ctg26_4" style="stroke:black; stroke-width:1; fill:white; " id="dummy-1_q3_0_all"  />
<polygon class="clusterblast-orf" points="125,40 138,40 143,35 138,30 125,30 125,40 " description="&lt;b&gt;ctg26_5&lt;/b&gt;&lt;br&gt;ctg26 5&lt;br&gt;Location: 3561 - 4605" locus_tag="ctg26_5" style="stroke:black; stroke-width:1; fill:white; " id="dummy-1_q4_0_all"  />
<polygon class="clusterblast-orf" points="144,40 187,40 192,35 187,30 144,30 144,40 " description="&lt;b&gt;ctg26_6&lt;/b&gt;&lt;br&gt;ctg26 6&lt;br&gt;Location: 4686 - 7443" locus_tag="ctg26_6" style="stroke:black; stroke-width:1; fill:white; " id="dummy-1_q5_0_all"  />
<polygon class="clusterblast-orf" points="195,40 199,35 195,30 195,40 " description="&lt;b&gt;ctg26_7&lt;/b&gt;&lt;br&gt;ctg26 7&lt;br&gt;Location: 7637 - 7877" locus_tag="ctg26_7" style="stroke:black; stroke-width:1; fill:white; " id="dummy-1_q6_0_all"  />
<polygon class="clusterblast-orf" points="201,40 208,40 213,35 208,30 201,30 201,40 " description="&lt;b&gt;ctg26_8&lt;/b&gt;&lt;br&gt;ctg26 8&lt;br&gt;Location: 7963 - 8698" locus_tag="ctg26_8" style="stroke:black; stroke-width:1; fill:white; " id="dummy-1_q7_0_all"  />
<polygon class="clusterblast-orf" points="213,40 227,40 232,35 227,30 213,30 213,40 " description="&lt;b&gt;ctg26_9&lt;/b&gt;&lt;br&gt;ctg26 9&lt;br&gt;Location: 8690 - 9779" locus_tag="ctg26_9" style="stroke:black; stroke-width:1; fill:white; " id="dummy-1_q8_0_all"  />
<polygon class="clusterblast-orf" points="232,40 286,40 291,35 286,30 232,30 232,40 " description="&lt;b&gt;ctg26_10&lt;/b&gt;&lt;br&gt;ctg26 10&lt;br&gt;Location: 9816 - 13233" locus_tag="ctg26_10" style="stroke:black; stroke-width:1; fill:white; " id="dummy-1_q9_0_all"  />
<polygon class="clusterblast-orf" points="291,40 381,40 386,35 381,30 291,30 291,40 " description="&lt;b&gt;ctg26_11&lt;/b&gt;&lt;br&gt;ctg26 11&lt;br&gt;Location: 13254 - 18792" locus_tag="ctg26_11" style="stroke:black; stroke-width:1; fill:white; " id="dummy-1_q10_0_all"  />
<polygon class="clusterblast-orf" points="387,40 401,40 406,35 401,30 387,30 387,40 " description="&lt;b&gt;ctg26_12&lt;/b&gt;&lt;br&gt;ctg26 12&lt;br&gt;Location: 18856 - 19957" locus_tag="ctg26_12" style="stroke:black; stroke-width:1; fill:white; " id="dummy-1_q11_0_all"  />
<polygon class="clusterblast-orf" points="406,40 414,40 419,35 414,30 406,30 406,40 " description="&lt;b&gt;ctg26_13&lt;/b&gt;&lt;br&gt;ctg26 13&lt;br&gt;Location: 19928 - 20699" locus_tag="ctg26_13" style="stroke:black; stroke-width:1; fill:white; " id="dummy-1_q12_0_all"  />
<polygon class="clusterblast-orf" points="420,40 432,40 437,35 432,30 420,30 420,40 " description="&lt;b&gt;ctg26_14&lt;/b&gt;&lt;br&gt;ctg26 14&lt;br&gt;Location: 20797 - 21742" locus_tag="ctg26_14" style="stroke:black; stroke-width:1; fill:white; " id="dummy-1_q13_0_all"  />
<polygon class="clusterblast-orf" points="439,40 444,40 449,35 444,30 439,30 439,40 " description="&lt;b&gt;ctg26_15&lt;/b&gt;&lt;br&gt;ctg26 15&lt;br&gt;Location: 21869 - 22481" locus_tag="ctg26_15" style="stroke:black; stroke-width:1; fill:white; " id="dummy-1_q14_0_all"  />
<polygon class="clusterblast-orf" points="457,40 482,40 487,35 482,30 457,30 457,40 " description="&lt;b&gt;ctg26_16&lt;/b&gt;&lt;br&gt;ctg26 16&lt;br&gt;Location: 22927 - 24706" locus_tag="ctg26_16" style="stroke:black; stroke-width:1; fill:white; " id="dummy-1_q15_0_all"  />
<polygon class="clusterblast-orf" points="486,35 491,30 493,30 493,40 491,40 486,35 " description="&lt;b&gt;ctg26_17&lt;/b&gt;&lt;br&gt;ctg26 17&lt;br&gt;Location: 24641 - 25058" locus_tag="ctg26_17" style="stroke:black; stroke-width:1; fill:white; " id="dummy-1_q16_0_all"  />
<polygon class="clusterblast-orf" points="502,35 507,30 510,30 510,40 507,40 502,35 " description="&lt;b&gt;ctg26_18&lt;/b&gt;&lt;br&gt;ctg26 18&lt;br&gt;Location: 25555 - 26041" locus_tag="ctg26_18" style="stroke:black; stroke-width:1; fill:white; " id="dummy-1_q17_0_all"  />
<polygon class="clusterblast-orf" points="512,40 524,40 529,35 524,30 512,30 512,40 " description="&lt;b&gt;ctg26_19&lt;/b&gt;&lt;br&gt;ctg26 19&lt;br&gt;Location: 26111 - 27140" locus_tag="ctg26_19" style="stroke:black; stroke-width:1; fill:#d81515; " id="dummy-1_q18_0_all"  />
<polygon class="clusterblast-orf" points="539,35 544,30 545,30 545,40 544,40 539,35 " description="&lt;b&gt;ctg26_20&lt;/b&gt;&lt;br&gt;ctg26 20&lt;br&gt;Location: 27704 - 28061" locus_tag="ctg26_20" style="stroke:black; stroke-width:1; fill:white; " id="dummy-1_q19_0_all"  />
<polygon class="clusterblast-orf" points="545,40 554,40 559,35 554,30 545,30 545,40 " description="&lt;b&gt;ctg26_21&lt;/b&gt;&lt;br&gt;ctg26 21&lt;br&gt;Location: 28082 - 28877" locus_tag="ctg26_21" style="stroke:black; stroke-width:1; fill:#d81515; " id="dummy-1_q20_0_all"  />
<polygon class="clusterblast-orf" points="563,40 564,40 569,35 564,30 563,30 563,40 " description="&lt;b&gt;ctg26_22&lt;/b&gt;&lt;br&gt;ctg26 22&lt;br&gt;Location: 29098 - 29440" locus_tag="ctg26_22" style="stroke:black; stroke-width:1; fill:white; " id="dummy-1_q21_0_all"  />
<polygon class="clusterblast-orf" points="571,40 578,40 583,35 578,30 571,30 571,40 " description="&lt;b&gt;ctg26_23&lt;/b&gt;&lt;br&gt;ctg26 23&lt;br&gt;Location: 29560 - 30298" locus_tag="ctg26_23" style="stroke:black; stroke-width:1; fill:white; " id="dummy-1_q22_0_all"  />
<polygon class="clusterblast-orf" points="586,40 594,40 599,35 594,30 586,30 586,40 " description="&lt;b&gt;ctg26_24&lt;/b&gt;&lt;br&gt;ctg26 24&lt;br&gt;Location: 30457 - 31222" locus_tag="ctg26_24" style="stroke:black; stroke-width:1; fill:white; " id="dummy-1_q23_0_all"  />
<polygon class="clusterblast-orf" points="601,40 602,40 607,35 602,30 601,30 601,40 " description="&lt;b&gt;ctg26_25&lt;/b&gt;&lt;br&gt;ctg26 25&lt;br&gt;Location: 31321 - 31660" locus_tag="ctg26_25" style="stroke:black; stroke-width:1; fill:white; " id="dummy-1_q24_0_all"  />
<polygon class="clusterblast-orf" points="618,35 622,30 622,40 618,35 " description="&lt;b&gt;ctg26_26&lt;/b&gt;&lt;br&gt;ctg26 26&lt;br&gt;Location: 32349 - 32583" locus_tag="ctg26_26" style="stroke:black; stroke-width:1; fill:white; " id="dummy-1_q25_0_all"  />
<polygon class="clusterblast-orf" points="624,35 629,30 638,30 638,40 629,40 624,35 " description="&lt;b&gt;ctg26_27&lt;/b&gt;&lt;br&gt;ctg26 27&lt;br&gt;Location: 32668 - 33511" locus_tag="ctg26_27" style="stroke:black; stroke-width:1; fill:white; " id="dummy-1_q26_0_all"  />
<polygon class="clusterblast-orf" points="639,35 644,30 650,30 650,40 644,40 639,35 " description="&lt;b&gt;ctg26_28&lt;/b&gt;&lt;br&gt;ctg26 28&lt;br&gt;Location: 33524 - 34196" locus_tag="ctg26_28" style="stroke:black; stroke-width:1; fill:white; " id="dummy-1_q27_0_all"  />
<polygon class="clusterblast-orf" points="650,35 655,30 665,30 665,40 655,40 650,35 " description="&lt;b&gt;ctg26_29&lt;/b&gt;&lt;br&gt;ctg26 29&lt;br&gt;Location: 34208 - 35066" locus_tag="ctg26_29" style="stroke:black; stroke-width:1; fill:white; " id="dummy-1_q28_0_all"  />
<polygon class="clusterblast-orf" points="668,40 672,35 668,30 668,40 " description="&lt;b&gt;ctg26_30&lt;/b&gt;&lt;br&gt;ctg26 30&lt;br&gt;Location: 35253 - 35466" locus_tag="ctg26_30" style="stroke:black; stroke-width:1; fill:white; " id="dummy-1_q29_0_all"  />
<polygon class="clusterblast-orf" points="679,40 710,40 715,35 710,30 679,30 679,40 " description="&lt;b&gt;ctg26_31&lt;/b&gt;&lt;br&gt;ctg26 31&lt;br&gt;Location: 35868 - 38001" locus_tag="ctg26_31" style="stroke:black; stroke-width:1; fill:white; " id="dummy-1_q30_0_all"  />
</g>
<g description="BGC0001213_c1: Nataxazole (7% of genes show similarity), polyketide" class="clusterblast-cluster" label="BGC0001213"  >
<text class="clusterblast-acc" x="5" y="70"  >
<a xlink:href="https://mibig.secondarymetabolites.org/go/BGC0001213/1" target="_blank">BGC0001213</a>:                                                                       Nataxazole (7% of genes show similarity), polyketide</text>
<line x1="10" style="stroke:grey; stroke-width:1; " y2="85" x2="778.0" y1="85"  />
</g>
<g id="a1_000"  >
<polygon class="clusterblast-orf" points="0,85 5,80 49,80 49,90 5,90 0,85 " description="&lt;b&gt;CF54_07415&lt;/b&gt;&lt;br&gt;hypothetical protein&lt;br&gt;Location: 45517 - 42645" locus_tag="CF54_07415" style="stroke:black; stroke-width:1; fill:white; " id="dummy-1_h1_6_0"  />
</g>
<g id="a1_001"  >
<polygon class="clusterblast-orf" points="74,85 78,80 78,90 74,85 " description="&lt;b&gt;CF54_07410&lt;/b&gt;&lt;br&gt;polyketide synthase&lt;br&gt;Location: 41178 - 40912" locus_tag="CF54_07410" style="stroke:black; stroke-width:1; fill:white; " id="dummy-1_h1_6_1"  />
</g>
<g id="a1_002"  >
<polygon class="clusterblast-orf" points="84,85 89,80 101,80 101,90 89,90 84,85 " description="&lt;b&gt;CF54_07405&lt;/b&gt;&lt;br&gt;SARP family transcriptional regulator&lt;br&gt;Location: 40588 - 39606" locus_tag="CF54_07405" style="stroke:black; stroke-width:1; fill:white; " id="dummy-1_h1_6_2"  />
</g>
<g id="a1_003"  >
<polygon class="clusterblast-orf" points="107,85 112,80 122,80 122,90 112,90 107,85 " description="&lt;b&gt;CF54_07400&lt;/b&gt;&lt;br&gt;hypothetical protein&lt;br&gt;Location: 39220 - 38354" locus_tag="CF54_07400" style="stroke:black; stroke-width:1; fill:white; " id="dummy-1_h1_6_3"  />
</g>
<g id="a1_004"  >
<polygon class="clusterblast-orf" points="129,85 134,80 155,80 155,90 134,90 129,85 " description="&lt;b&gt;CF54_07395&lt;/b&gt;&lt;br&gt;multidrug MFS transporter&lt;br&gt;Location: 37981 - 36434" locus_tag="CF54_07395" style="stroke:black; stroke-width:1; fill:white; " id="dummy-1_h1_6_4"  />
</g>
<g id="a1_005"  >
<polygon class="clusterblast-orf" points="161,90 168,90 173,85 168,80 161,80 161,90 " description="&lt;b&gt;CF54_07390&lt;/b&gt;&lt;br&gt;TetR family transcriptional regulator&lt;br&gt;Location: 36114 - 35416" locus_tag="CF54_07390" style="stroke:black; stroke-width:1; fill:white; " id="dummy-1_h1_6_5"  />
</g>
<g id="a1_006"  >
<polygon class="clusterblast-orf" points="180,85 185,80 266,80 266,90 185,90 180,85 " description="&lt;b&gt;CF54_07385&lt;/b&gt;&lt;br&gt;beta-ketoacyl synthase&lt;br&gt;Location: 34962 - 29938" locus_tag="CF54_07385" style="stroke:black; stroke-width:1; fill:white; " id="dummy-1_h1_6_6"  />
</g>
<g id="a1_007"  >
<polygon class="clusterblast-orf" points="278,85 283,80 301,80 301,90 283,90 278,85 " description="&lt;b&gt;CF54_07380&lt;/b&gt;&lt;br&gt;coenzyme F390 synthetase&lt;br&gt;Location: 29246 - 27936" locus_tag="CF54_07380" style="stroke:black; stroke-width:1; fill:white; " id="dummy-1_h1_6_7"  />
</g>
<g id="a1_008"  >
<polygon class="clusterblast-orf" points="311,90 324,90 329,85 324,80 311,80 311,90 " description="&lt;b&gt;CF54_07375&lt;/b&gt;&lt;br&gt;3-oxoacyl-ACP synthase&lt;br&gt;Location: 27340 - 26288" locus_tag="CF54_07375" style="stroke:black; stroke-width:1; fill:white; " id="dummy-1_h1_6_8"  />
</g>
<g id="a1_009"  >
<polygon class="clusterblast-orf" points="329,90 352,90 357,85 352,80 329,80 329,90 " description="&lt;b&gt;CF54_07370&lt;/b&gt;&lt;br&gt;Triostin synthetase I&lt;br&gt;Location: 26295 - 24676" locus_tag="CF54_07370" style="stroke:black; stroke-width:1; fill:white; " id="dummy-1_h1_6_9"  />
</g>
<g id="a1_0010"  >
<polygon class="clusterblast-orf" points="357,90 361,85 357,80 357,90 " description="&lt;b&gt;CF54_07365&lt;/b&gt;&lt;br&gt;phosphopantetheine-binding protein&lt;br&gt;Location: 24674 - 24405" locus_tag="CF54_07365" style="stroke:black; stroke-width:1; fill:white; " id="dummy-1_h1_6_10"  />
</g>
<g id="a1_0011"  >
<polygon class="clusterblast-orf" points="361,90 382,90 387,85 382,80 361,80 361,90 " description="&lt;b&gt;CF54_07360&lt;/b&gt;&lt;br&gt;amidohydrolase&lt;br&gt;Location: 24405 - 22921" locus_tag="CF54_07360" style="stroke:black; stroke-width:1; fill:white; " id="dummy-1_h1_6_11"  />
</g>
<g id="a1_0012"  >
<polygon class="clusterblast-orf" points="387,90 396,90 401,85 396,80 387,80 387,90 " description="&lt;b&gt;CF54_07355&lt;/b&gt;&lt;br&gt;2,3-dihydroxybenzoate-2,3-dehydrogenase&lt;br&gt;Location: 22924 - 22100" locus_tag="CF54_07355" style="stroke:black; stroke-width:1; fill:white; " id="dummy-1_h1_6_12"  />
</g>
<g id="a1_0013"  >
<polygon class="clusterblast-orf" points="407,90 414,90 419,85 414,80 407,80 407,90 " description="&lt;b&gt;CF54_07350&lt;/b&gt;&lt;br&gt;isochorismatase&lt;br&gt;Location: 21752 - 21060" locus_tag="CF54_07350" style="stroke:black; stroke-width:1; fill:white; " id="dummy-1_h1_6_13"  />
</g>
<g id="a1_0014"  >
<polygon class="clusterblast-orf" points="419,90 434,90 439,85 434,80 419,80 419,90 " description="&lt;b&gt;CF54_07345&lt;/b&gt;&lt;br&gt;anthranilate synthase&lt;br&gt;Location: 21063 - 19872" locus_tag="CF54_07345" style="stroke:black; stroke-width:1; fill:white; " id="dummy-1_h1_6_14"  />
</g>
<g id="a1_0015"  >
<polygon class="clusterblast-orf" points="458,90 477,90 482,85 477,80 458,80 458,90 " description="&lt;b&gt;CF54_07335&lt;/b&gt;&lt;br&gt;phospho-2-dehydro-3-deoxyheptonate aldolase&lt;br&gt;Location: 18766 - 17384" locus_tag="CF54_07335" style="stroke:black; stroke-width:1; fill:white; " id="dummy-1_h1_6_15"  />
</g>
<g id="a1_0016"  >
<polygon class="clusterblast-orf" points="482,90 489,90 494,85 489,80 482,80 482,90 " description="&lt;b&gt;CF54_07330&lt;/b&gt;&lt;br&gt;4-phosphopantetheinyl transferase&lt;br&gt;Location: 17387 - 16677" locus_tag="CF54_07330" style="stroke:black; stroke-width:1; fill:white; " id="dummy-1_h1_6_16"  />
</g>
<g id="a1_0017"  >
<polygon class="clusterblast-orf" points="499,85 504,80 509,80 509,90 504,90 499,85 " description="&lt;b&gt;CF54_07325&lt;/b&gt;&lt;br&gt;TetR family transcriptional regulator&lt;br&gt;Location: 16377 - 15806" locus_tag="CF54_07325" style="stroke:black; stroke-width:1; fill:white; " id="dummy-1_h1_6_17"  />
</g>
<g id="a1_0018"  >
<polygon class="clusterblast-orf" points="553,90 580,90 585,85 580,80 553,80 553,90 " description="&lt;b&gt;CF54_07315&lt;/b&gt;&lt;br&gt;ABC transporter ATP-binding protein&lt;br&gt;Location: 13196 - 11370&lt;br&gt;&lt;br&gt;&lt;b&gt;BlastP hit with ctg26_19&lt;/b&gt;&lt;br&gt;Percentage identity: 51&lt;br&gt;Percentage coverage: 67&lt;br&gt;BLAST bit score: 235&lt;br&gt;E-value: 9.3e-62&lt;br&gt;&lt;br&gt;&lt;b&gt;BlastP hit with ctg26_21&lt;/b&gt;&lt;br&gt;Percentage identity: 46&lt;br&gt;Percentage coverage: 91&lt;br&gt;BLAST bit score: 225&lt;br&gt;E-value: 1.3e-58" locus_tag="CF54_07315" style="stroke:black; stroke-width:1; fill:#d81515; " id="dummy-1_h1_6_18"  />
</g>
<g id="a1_0019"  >
<polygon class="clusterblast-orf" points="585,90 609,90 614,85 609,80 585,80 585,90 " description="&lt;b&gt;CF54_07310&lt;/b&gt;&lt;br&gt;ABC transporter&lt;br&gt;Location: 11370 - 9631&lt;br&gt;&lt;br&gt;&lt;b&gt;BlastP hit with ctg26_19&lt;/b&gt;&lt;br&gt;Percentage identity: 49&lt;br&gt;Percentage coverage: 67&lt;br&gt;BLAST bit score: 240&lt;br&gt;E-value: 3.8e-63&lt;br&gt;&lt;br&gt;&lt;b&gt;BlastP hit with ctg26_21&lt;/b&gt;&lt;br&gt;Percentage identity: 52&lt;br&gt;Percentage coverage: 92&lt;br&gt;BLAST bit score: 257&lt;br&gt;E-value: 3e-68" locus_tag="CF54_07310" style="stroke:black; stroke-width:1; fill:#d81515; " id="dummy-1_h1_6_19"  />
</g>
<g id="a1_0020"  >
<polygon class="clusterblast-orf" points="623,90 655,90 660,85 655,80 623,80 623,90 " description="&lt;b&gt;CF54_07305&lt;/b&gt;&lt;br&gt;hypothetical protein&lt;br&gt;Location: 9107 - 6949" locus_tag="CF54_07305" style="stroke:black; stroke-width:1; fill:white; " id="dummy-1_h1_6_20"  />
</g>
<g id="a1_0021"  >
<polygon class="clusterblast-orf" points="671,85 676,80 690,80 690,90 676,90 671,85 " description="&lt;b&gt;CF54_07295&lt;/b&gt;&lt;br&gt;hypothetical protein&lt;br&gt;Location: 6356 - 5199" locus_tag="CF54_07295" style="stroke:black; stroke-width:1; fill:white; " id="dummy-1_h1_6_21"  />
</g>
<g id="a1_0022"  >
<polygon class="clusterblast-orf" points="691,85 696,80 713,80 713,90 696,90 691,85 " description="&lt;b&gt;CF54_07290&lt;/b&gt;&lt;br&gt;ornithine aminotransferase&lt;br&gt;Location: 5144 - 3903" locus_tag="CF54_07290" style="stroke:black; stroke-width:1; fill:white; " id="dummy-1_h1_6_22"  />
</g>
<g id="a1_0023"  >
<polygon class="clusterblast-orf" points="713,85 718,80 720,80 720,90 718,90 713,85 " description="&lt;b&gt;CF54_07285&lt;/b&gt;&lt;br&gt;hypothetical protein&lt;br&gt;Location: 3887 - 3477" locus_tag="CF54_07285" style="stroke:black; stroke-width:1; fill:white; " id="dummy-1_h1_6_23"  />
</g>
<g id="a1_0024"  >
<polygon class="clusterblast-orf" points="722,85 727,80 739,80 739,90 727,90 722,85 " description="&lt;b&gt;CF54_07280&lt;/b&gt;&lt;br&gt;regulatory protein&lt;br&gt;Location: 3347 - 2346" locus_tag="CF54_07280" style="stroke:black; stroke-width:1; fill:white; " id="dummy-1_h1_6_24"  />
</g>
<g id="a1_0025"  >
<polygon class="clusterblast-orf" points="767,90 771,85 767,80 767,90 " description="&lt;b&gt;CF54_07270&lt;/b&gt;&lt;br&gt;hypothetical protein&lt;br&gt;Location: 708 - 499" locus_tag="CF54_07270" style="stroke:black; stroke-width:1; fill:white; " id="dummy-1_h1_6_25"  />
</g>
<g id="a1_0026"  >
<polygon class="clusterblast-orf" points="772,90 775,90 780,85 775,80 772,80 772,90 " description="&lt;b&gt;CF54_07265&lt;/b&gt;&lt;br&gt;hypothetical protein&lt;br&gt;Location: 438 - 1" locus_tag="CF54_07265" style="stroke:black; stroke-width:1; fill:white; " id="dummy-1_h1_6_26"  />
</g>
</svg>
