<svg height="230" xmlns:xlink="http://www.w3.org/1999/xlink" xmlns="http://www.w3.org/2000/svg" x="0" width="800" preserveAspectRatio="none" version="1.1" viewBox="0 0 800 230" y="0"  >
<g class="clusterblast-cluster" label="Query sequence"  >
<text class="clusterblast-acc" x="5" y="20"  >
Query sequence</text>
<line y1="35" y2="35" style="stroke-width:1; stroke:grey; " x1="10" x2="778.0"  />
<polygon class="clusterblast-orf" points="58,40 61,35 58,30 58,40 " description="&lt;b&gt;ctg26_1&lt;/b&gt;&lt;br&gt;ctg26 1&lt;br&gt;Location: 1 - 214" id="dummy-1_q0_0_all" style="stroke-width:1; stroke:black; fill:white; " locus_tag="ctg26_1"  />
<polygon class="clusterblast-orf" points="61,40 67,40 72,35 67,30 61,30 61,40 " description="&lt;b&gt;ctg26_2&lt;/b&gt;&lt;br&gt;ctg26 2&lt;br&gt;Location: 213 - 813" id="dummy-1_q1_0_all" style="stroke-width:1; stroke:black; fill:white; " locus_tag="ctg26_2"  />
<polygon class="clusterblast-orf" points="84,40 88,35 84,30 84,40 " description="&lt;b&gt;ctg26_3&lt;/b&gt;&lt;br&gt;ctg26 3&lt;br&gt;Location: 1499 - 1724" id="dummy-1_q2_0_all" style="stroke-width:1; stroke:black; fill:white; " locus_tag="ctg26_3"  />
<polygon class="clusterblast-orf" points="88,40 112,40 117,35 112,30 88,30 88,40 " description="&lt;b&gt;ctg26_4&lt;/b&gt;&lt;br&gt;ctg26 4&lt;br&gt;Location: 1738 - 3415" id="dummy-1_q3_0_all" style="stroke-width:1; stroke:black; fill:white; " locus_tag="ctg26_4"  />
<polygon class="clusterblast-orf" points="120,40 133,40 138,35 133,30 120,30 120,40 " description="&lt;b&gt;ctg26_5&lt;/b&gt;&lt;br&gt;ctg26 5&lt;br&gt;Location: 3561 - 4605" id="dummy-1_q4_0_all" style="stroke-width:1; stroke:black; fill:white; " locus_tag="ctg26_5"  />
<polygon class="clusterblast-orf" points="140,40 183,40 188,35 183,30 140,30 140,40 " description="&lt;b&gt;ctg26_6&lt;/b&gt;&lt;br&gt;ctg26 6&lt;br&gt;Location: 4686 - 7443" id="dummy-1_q5_0_all" style="stroke-width:1; stroke:black; fill:white; " locus_tag="ctg26_6"  />
<polygon class="clusterblast-orf" points="191,40 195,35 191,30 191,40 " description="&lt;b&gt;ctg26_7&lt;/b&gt;&lt;br&gt;ctg26 7&lt;br&gt;Location: 7637 - 7877" id="dummy-1_q6_0_all" style="stroke-width:1; stroke:black; fill:white; " locus_tag="ctg26_7"  />
<polygon class="clusterblast-orf" points="197,40 205,40 210,35 205,30 197,30 197,40 " description="&lt;b&gt;ctg26_8&lt;/b&gt;&lt;br&gt;ctg26 8&lt;br&gt;Location: 7963 - 8698" id="dummy-1_q7_0_all" style="stroke-width:1; stroke:black; fill:white; " locus_tag="ctg26_8"  />
<polygon class="clusterblast-orf" points="209,40 224,40 229,35 224,30 209,30 209,40 " description="&lt;b&gt;ctg26_9&lt;/b&gt;&lt;br&gt;ctg26 9&lt;br&gt;Location: 8690 - 9779" id="dummy-1_q8_0_all" style="stroke-width:1; stroke:black; fill:white; " locus_tag="ctg26_9"  />
<polygon class="clusterblast-orf" points="229,40 284,40 289,35 284,30 229,30 229,40 " description="&lt;b&gt;ctg26_10&lt;/b&gt;&lt;br&gt;ctg26 10&lt;br&gt;Location: 9816 - 13233" id="dummy-1_q9_0_all" style="stroke-width:1; stroke:black; fill:white; " locus_tag="ctg26_10"  />
<polygon class="clusterblast-orf" points="289,40 381,40 386,35 381,30 289,30 289,40 " description="&lt;b&gt;ctg26_11&lt;/b&gt;&lt;br&gt;ctg26 11&lt;br&gt;Location: 13254 - 18792" id="dummy-1_q10_0_all" style="stroke-width:1; stroke:black; fill:white; " locus_tag="ctg26_11"  />
<polygon class="clusterblast-orf" points="387,40 401,40 406,35 401,30 387,30 387,40 " description="&lt;b&gt;ctg26_12&lt;/b&gt;&lt;br&gt;ctg26 12&lt;br&gt;Location: 18856 - 19957" id="dummy-1_q11_0_all" style="stroke-width:1; stroke:black; fill:white; " locus_tag="ctg26_12"  />
<polygon class="clusterblast-orf" points="406,40 414,40 419,35 414,30 406,30 406,40 " description="&lt;b&gt;ctg26_13&lt;/b&gt;&lt;br&gt;ctg26 13&lt;br&gt;Location: 19928 - 20699" id="dummy-1_q12_0_all" style="stroke-width:1; stroke:black; fill:white; " locus_tag="ctg26_13"  />
<polygon class="clusterblast-orf" points="421,40 433,40 438,35 433,30 421,30 421,40 " description="&lt;b&gt;ctg26_14&lt;/b&gt;&lt;br&gt;ctg26 14&lt;br&gt;Location: 20797 - 21742" id="dummy-1_q13_0_all" style="stroke-width:1; stroke:black; fill:white; " locus_tag="ctg26_14"  />
<polygon class="clusterblast-orf" points="440,40 445,40 450,35 445,30 440,30 440,40 " description="&lt;b&gt;ctg26_15&lt;/b&gt;&lt;br&gt;ctg26 15&lt;br&gt;Location: 21869 - 22481" id="dummy-1_q14_0_all" style="stroke-width:1; stroke:black; fill:white; " locus_tag="ctg26_15"  />
<polygon class="clusterblast-orf" points="458,40 484,40 489,35 484,30 458,30 458,40 " description="&lt;b&gt;ctg26_16&lt;/b&gt;&lt;br&gt;ctg26 16&lt;br&gt;Location: 22927 - 24706" id="dummy-1_q15_0_all" style="stroke-width:1; stroke:black; fill:white; " locus_tag="ctg26_16"  />
<polygon class="clusterblast-orf" points="488,35 493,30 496,30 496,40 493,40 488,35 " description="&lt;b&gt;ctg26_17&lt;/b&gt;&lt;br&gt;ctg26 17&lt;br&gt;Location: 24641 - 25058" id="dummy-1_q16_0_all" style="stroke-width:1; stroke:black; fill:white; " locus_tag="ctg26_17"  />
<polygon class="clusterblast-orf" points="504,35 509,30 513,30 513,40 509,40 504,35 " description="&lt;b&gt;ctg26_18&lt;/b&gt;&lt;br&gt;ctg26 18&lt;br&gt;Location: 25555 - 26041" id="dummy-1_q17_0_all" style="stroke-width:1; stroke:black; fill:white; " locus_tag="ctg26_18"  />
<polygon class="clusterblast-orf" points="514,40 527,40 532,35 527,30 514,30 514,40 " description="&lt;b&gt;ctg26_19&lt;/b&gt;&lt;br&gt;ctg26 19&lt;br&gt;Location: 26111 - 27140" id="dummy-1_q18_0_all" style="stroke-width:1; stroke:black; fill:#d81515; " locus_tag="ctg26_19"  />
<polygon class="clusterblast-orf" points="542,35 547,30 548,30 548,40 547,40 542,35 " description="&lt;b&gt;ctg26_20&lt;/b&gt;&lt;br&gt;ctg26 20&lt;br&gt;Location: 27704 - 28061" id="dummy-1_q19_0_all" style="stroke-width:1; stroke:black; fill:white; " locus_tag="ctg26_20"  />
<polygon class="clusterblast-orf" points="548,40 557,40 562,35 557,30 548,30 548,40 " description="&lt;b&gt;ctg26_21&lt;/b&gt;&lt;br&gt;ctg26 21&lt;br&gt;Location: 28082 - 28877" id="dummy-1_q20_0_all" style="stroke-width:1; stroke:black; fill:#d81515; " locus_tag="ctg26_21"  />
<polygon class="clusterblast-orf" points="566,40 567,40 572,35 567,30 566,30 566,40 " description="&lt;b&gt;ctg26_22&lt;/b&gt;&lt;br&gt;ctg26 22&lt;br&gt;Location: 29098 - 29440" id="dummy-1_q21_0_all" style="stroke-width:1; stroke:black; fill:white; " locus_tag="ctg26_22"  />
<polygon class="clusterblast-orf" points="574,40 582,40 587,35 582,30 574,30 574,40 " description="&lt;b&gt;ctg26_23&lt;/b&gt;&lt;br&gt;ctg26 23&lt;br&gt;Location: 29560 - 30298" id="dummy-1_q22_0_all" style="stroke-width:1; stroke:black; fill:white; " locus_tag="ctg26_23"  />
<polygon class="clusterblast-orf" points="590,40 598,40 603,35 598,30 590,30 590,40 " description="&lt;b&gt;ctg26_24&lt;/b&gt;&lt;br&gt;ctg26 24&lt;br&gt;Location: 30457 - 31222" id="dummy-1_q23_0_all" style="stroke-width:1; stroke:black; fill:white; " locus_tag="ctg26_24"  />
<polygon class="clusterblast-orf" points="605,40 606,40 611,35 606,30 605,30 605,40 " description="&lt;b&gt;ctg26_25&lt;/b&gt;&lt;br&gt;ctg26 25&lt;br&gt;Location: 31321 - 31660" id="dummy-1_q24_0_all" style="stroke-width:1; stroke:black; fill:white; " locus_tag="ctg26_25"  />
<polygon class="clusterblast-orf" points="623,35 627,30 627,40 623,35 " description="&lt;b&gt;ctg26_26&lt;/b&gt;&lt;br&gt;ctg26 26&lt;br&gt;Location: 32349 - 32583" id="dummy-1_q25_0_all" style="stroke-width:1; stroke:black; fill:white; " locus_tag="ctg26_26"  />
<polygon class="clusterblast-orf" points="628,35 633,30 643,30 643,40 633,40 628,35 " description="&lt;b&gt;ctg26_27&lt;/b&gt;&lt;br&gt;ctg26 27&lt;br&gt;Location: 32668 - 33511" id="dummy-1_q26_0_all" style="stroke-width:1; stroke:black; fill:white; " locus_tag="ctg26_27"  />
<polygon class="clusterblast-orf" points="643,35 648,30 655,30 655,40 648,40 643,35 " description="&lt;b&gt;ctg26_28&lt;/b&gt;&lt;br&gt;ctg26 28&lt;br&gt;Location: 33524 - 34196" id="dummy-1_q27_0_all" style="stroke-width:1; stroke:black; fill:white; " locus_tag="ctg26_28"  />
<polygon class="clusterblast-orf" points="655,35 660,30 670,30 670,40 660,40 655,35 " description="&lt;b&gt;ctg26_29&lt;/b&gt;&lt;br&gt;ctg26 29&lt;br&gt;Location: 34208 - 35066" id="dummy-1_q28_0_all" style="stroke-width:1; stroke:black; fill:white; " locus_tag="ctg26_29"  />
<polygon class="clusterblast-orf" points="674,40 677,35 674,30 674,40 " description="&lt;b&gt;ctg26_30&lt;/b&gt;&lt;br&gt;ctg26 30&lt;br&gt;Location: 35253 - 35466" id="dummy-1_q29_0_all" style="stroke-width:1; stroke:black; fill:white; " locus_tag="ctg26_30"  />
<polygon class="clusterblast-orf" points="684,40 717,40 722,35 717,30 684,30 684,40 " description="&lt;b&gt;ctg26_31&lt;/b&gt;&lt;br&gt;ctg26 31&lt;br&gt;Location: 35868 - 38001" id="dummy-1_q30_0_all" style="stroke-width:1; stroke:black; fill:white; " locus_tag="ctg26_31"  />
</g>
<g class="clusterblast-cluster" label="BGC0000966" description="BGC0000966_c1: Caerulomycin A (8% of genes show similarity), nrps-t1pks"  >
<text class="clusterblast-acc" x="5" y="70"  >
<a xlink:href="https://mibig.secondarymetabolites.org/go/BGC0000966/1" target="_blank">BGC0000966</a>:                                                                   Caerulomycin A (8% of genes show similarity), nrps-t1pks</text>
<line y1="85" y2="85" style="stroke-width:1; stroke:grey; " x1="10" x2="778.0"  />
</g>
<g id="a1_000"  >
<polygon class="clusterblast-orf" points="0,90 52,90 57,85 52,80 0,80 0,90 " description="&lt;b&gt;AFD30968.1&lt;/b&gt;&lt;br&gt;putative formate acetyltransferase&lt;br&gt;Location: 1 - 3301" id="dummy-1_h1_1_0" style="stroke-width:1; stroke:black; fill:white; " locus_tag="AFD30968.1"  />
</g>
<g id="a1_001"  >
<polygon class="clusterblast-orf" points="70,85 72,80 72,90 70,85 " description="&lt;b&gt;AFD30967.1&lt;/b&gt;&lt;br&gt;50S ribosomal protein&lt;br&gt;Location: 4055 - 4177" id="dummy-1_h1_1_1" style="stroke-width:1; stroke:black; fill:white; " locus_tag="AFD30967.1"  />
</g>
<g id="a1_002"  >
<polygon class="clusterblast-orf" points="79,90 88,90 93,85 88,80 79,80 79,90 " description="&lt;b&gt;AFD30966.1&lt;/b&gt;&lt;br&gt;ubiquinone/menaquinone biosynthesis melthyltransgerase&lt;br&gt;Location: 4525 - 5334" id="dummy-1_h1_1_2" style="stroke-width:1; stroke:black; fill:white; " locus_tag="AFD30966.1"  />
</g>
<g id="a1_003"  >
<polygon class="clusterblast-orf" points="98,85 103,80 121,80 121,90 103,90 98,85 " description="&lt;b&gt;AFD30965.1&lt;/b&gt;&lt;br&gt;CrmT1&lt;br&gt;Location: 5661 - 6953" id="dummy-1_h1_1_3" style="stroke-width:1; stroke:black; fill:white; " locus_tag="AFD30965.1"  />
</g>
<g id="a1_004"  >
<polygon class="clusterblast-orf" points="123,90 128,90 133,85 128,80 123,80 123,90 " description="&lt;b&gt;AFD30964.1&lt;/b&gt;&lt;br&gt;CrmR1&lt;br&gt;Location: 7078 - 7629" id="dummy-1_h1_1_4" style="stroke-width:1; stroke:black; fill:white; " locus_tag="AFD30964.1"  />
</g>
<g id="a1_005"  >
<polygon class="clusterblast-orf" points="140,90 167,90 172,85 167,80 140,80 140,90 " description="&lt;b&gt;AFD30963.1&lt;/b&gt;&lt;br&gt;CrmT2&lt;br&gt;Location: 8020 - 9846&lt;br&gt;&lt;br&gt;&lt;b&gt;BlastP hit with ctg26_19&lt;/b&gt;&lt;br&gt;Percentage identity: 54&lt;br&gt;Percentage coverage: 64&lt;br&gt;BLAST bit score: 239&lt;br&gt;E-value: 8.4e-63&lt;br&gt;&lt;br&gt;&lt;b&gt;BlastP hit with ctg26_21&lt;/b&gt;&lt;br&gt;Percentage identity: 51&lt;br&gt;Percentage coverage: 97&lt;br&gt;BLAST bit score: 251&lt;br&gt;E-value: 1.3e-66" id="dummy-1_h1_1_5" style="stroke-width:1; stroke:black; fill:#d81515; " locus_tag="AFD30963.1"  />
</g>
<g id="a1_006"  >
<polygon class="clusterblast-orf" points="171,90 197,90 202,85 197,80 171,80 171,90 " description="&lt;b&gt;AFD30962.1&lt;/b&gt;&lt;br&gt;CrmT3&lt;br&gt;Location: 9843 - 11588&lt;br&gt;&lt;br&gt;&lt;b&gt;BlastP hit with ctg26_19&lt;/b&gt;&lt;br&gt;Percentage identity: 46&lt;br&gt;Percentage coverage: 69&lt;br&gt;BLAST bit score: 225&lt;br&gt;E-value: 9.6e-59" id="dummy-1_h1_1_6" style="stroke-width:1; stroke:black; fill:#d81515; " locus_tag="AFD30962.1"  />
</g>
<g id="a1_007"  >
<polygon class="clusterblast-orf" points="217,90 233,90 238,85 233,80 217,80 217,90 " description="&lt;b&gt;AFD30961.1&lt;/b&gt;&lt;br&gt;CrmH&lt;br&gt;Location: 12444 - 13667" id="dummy-1_h1_1_7" style="stroke-width:1; stroke:black; fill:white; " locus_tag="AFD30961.1"  />
</g>
<g id="a1_008"  >
<polygon class="clusterblast-orf" points="246,90 260,90 265,85 260,80 246,80 246,90 " description="&lt;b&gt;AFD30960.1&lt;/b&gt;&lt;br&gt;CrmM&lt;br&gt;Location: 14121 - 15182" id="dummy-1_h1_1_8" style="stroke-width:1; stroke:black; fill:white; " locus_tag="AFD30960.1"  />
</g>
<g id="a1_009"  >
<polygon class="clusterblast-orf" points="267,85 272,80 294,80 294,90 272,90 267,85 " description="&lt;b&gt;AFD30959.1&lt;/b&gt;&lt;br&gt;CrmG&lt;br&gt;Location: 15301 - 16872" id="dummy-1_h1_1_9" style="stroke-width:1; stroke:black; fill:white; " locus_tag="AFD30959.1"  />
</g>
<g id="a1_0010"  >
<polygon class="clusterblast-orf" points="299,90 314,90 319,85 314,80 299,80 299,90 " description="&lt;b&gt;AFD30958.1&lt;/b&gt;&lt;br&gt;CrmF&lt;br&gt;Location: 17147 - 18262" id="dummy-1_h1_1_10" style="stroke-width:1; stroke:black; fill:white; " locus_tag="AFD30958.1"  />
</g>
<g id="a1_0011"  >
<polygon class="clusterblast-orf" points="324,85 329,80 358,80 358,90 329,90 324,85 " description="&lt;b&gt;AFD30957.1&lt;/b&gt;&lt;br&gt;CrmE&lt;br&gt;Location: 18564 - 20516" id="dummy-1_h1_1_11" style="stroke-width:1; stroke:black; fill:white; " locus_tag="AFD30957.1"  />
</g>
<g id="a1_0012"  >
<polygon class="clusterblast-orf" points="324,85 329,80 352,80 352,90 329,90 324,85 " description="&lt;b&gt;AEM06018.2&lt;/b&gt;&lt;br&gt;hypothetical protein&lt;br&gt;Location: 18564 - 20186" id="dummy-1_h1_1_12" style="stroke-width:1; stroke:black; fill:white; " locus_tag="AEM06018.2"  />
</g>
<g id="a1_0013"  >
<polygon class="clusterblast-orf" points="362,90 379,90 384,85 379,80 362,80 362,90 " description="&lt;b&gt;AFD30956.1&lt;/b&gt;&lt;br&gt;CrmC&lt;br&gt;Location: 20747 - 21997" id="dummy-1_h1_1_13" style="stroke-width:1; stroke:black; fill:white; " locus_tag="AFD30956.1"  />
</g>
<g id="a1_0014"  >
<polygon class="clusterblast-orf" points="384,90 400,90 405,85 400,80 384,80 384,90 " description="&lt;b&gt;AFD30955.1&lt;/b&gt;&lt;br&gt;CrmD&lt;br&gt;Location: 22026 - 23213" id="dummy-1_h1_1_14" style="stroke-width:1; stroke:black; fill:white; " locus_tag="AFD30955.1"  />
</g>
<g id="a1_0015"  >
<polygon class="clusterblast-orf" points="405,90 530,90 535,85 530,80 405,80 405,90 " description="&lt;b&gt;AFD30954.1&lt;/b&gt;&lt;br&gt;CrmA&lt;br&gt;Location: 23210 - 30664" id="dummy-1_h1_1_15" style="stroke-width:1; stroke:black; fill:white; " locus_tag="AFD30954.1"  />
</g>
<g id="a1_0016"  >
<polygon class="clusterblast-orf" points="535,90 586,90 591,85 586,80 535,80 535,90 " description="&lt;b&gt;AFD30953.1&lt;/b&gt;&lt;br&gt;CrmB&lt;br&gt;Location: 30674 - 33826" id="dummy-1_h1_1_16" style="stroke-width:1; stroke:black; fill:white; " locus_tag="AFD30953.1"  />
</g>
<g id="a1_0017"  >
<polygon class="clusterblast-orf" points="590,90 606,90 611,85 606,80 590,80 590,90 " description="&lt;b&gt;AFD30952.1&lt;/b&gt;&lt;br&gt;CrmI&lt;br&gt;Location: 33823 - 34998" id="dummy-1_h1_1_17" style="stroke-width:1; stroke:black; fill:white; " locus_tag="AFD30952.1"  />
</g>
<g id="a1_0018"  >
<polygon class="clusterblast-orf" points="611,90 618,90 623,85 618,80 611,80 611,90 " description="&lt;b&gt;AFD30951.1&lt;/b&gt;&lt;br&gt;CrmJ&lt;br&gt;Location: 34995 - 35711" id="dummy-1_h1_1_18" style="stroke-width:1; stroke:black; fill:white; " locus_tag="AFD30951.1"  />
</g>
<g id="a1_0019"  >
<polygon class="clusterblast-orf" points="632,85 637,80 642,80 642,90 637,90 632,85 " description="&lt;b&gt;AFD30950.1&lt;/b&gt;&lt;br&gt;CrmR2&lt;br&gt;Location: 36201 - 36752" id="dummy-1_h1_1_19" style="stroke-width:1; stroke:black; fill:white; " locus_tag="AFD30950.1"  />
</g>
<g id="a1_0020"  >
<polygon class="clusterblast-orf" points="642,85 647,80 664,80 664,90 647,90 642,85 " description="&lt;b&gt;AFD30949.1&lt;/b&gt;&lt;br&gt;CrmL&lt;br&gt;Location: 36749 - 38014" id="dummy-1_h1_1_20" style="stroke-width:1; stroke:black; fill:white; " locus_tag="AFD30949.1"  />
</g>
<g id="a1_0021"  >
<polygon class="clusterblast-orf" points="687,90 701,90 706,85 701,80 687,80 687,90 " description="&lt;b&gt;AFD30948.1&lt;/b&gt;&lt;br&gt;CrmN&lt;br&gt;Location: 39342 - 40451" id="dummy-1_h1_1_21" style="stroke-width:1; stroke:black; fill:white; " locus_tag="AFD30948.1"  />
</g>
<g id="a1_0022"  >
<polygon class="clusterblast-orf" points="706,90 726,90 731,85 726,80 706,80 706,90 " description="&lt;b&gt;AFD30947.1&lt;/b&gt;&lt;br&gt;CrmO&lt;br&gt;Location: 40448 - 41848" id="dummy-1_h1_1_22" style="stroke-width:1; stroke:black; fill:white; " locus_tag="AFD30947.1"  />
</g>
<g id="a1_0023"  >
<polygon class="clusterblast-orf" points="734,90 755,90 760,85 755,80 734,80 734,90 " description="&lt;b&gt;AFD30946.1&lt;/b&gt;&lt;br&gt;CrmK&lt;br&gt;Location: 42013 - 43515" id="dummy-1_h1_1_23" style="stroke-width:1; stroke:black; fill:white; " locus_tag="AFD30946.1"  />
</g>
<g id="a1_0024"  >
<polygon class="clusterblast-orf" points="769,85 774,80 780,80 780,90 774,90 769,85 " description="&lt;b&gt;AFD30945.1&lt;/b&gt;&lt;br&gt;F420-dependent NADP oxidoreductase coenzyme&lt;br&gt;Location: 44021 - 44640" id="dummy-1_h1_1_24" style="stroke-width:1; stroke:black; fill:white; " locus_tag="AFD30945.1"  />
</g>
</svg>
