<svg height="50" xmlns:xlink="http://www.w3.org/1999/xlink" xmlns="http://www.w3.org/2000/svg" x="0" width="800" preserveAspectRatio="none" version="1.1" viewBox="0 0 800 50" y="0"  >
<g class="clusterblast-cluster" label="Query sequence"  >
<text class="clusterblast-acc" x="5" y="20"  >
Query sequence</text>
<line y1="35" y2="35" style="stroke-width:1; stroke:grey; " x1="10" x2="778.0"  />
<polygon class="clusterblast-orf" points="0,35 5,30 94,30 94,40 5,40 0,35 " description="&lt;b&gt;ctg4_140&lt;/b&gt;&lt;br&gt;ctg4 140&lt;br&gt;Location: 176678 - 179012" id="knownclusterblast-1_q0_0_all" style="stroke-width:1; stroke:black; fill:white; " locus_tag="ctg4_140"  />
<polygon class="clusterblast-orf" points="98,35 103,30 119,30 119,40 103,40 98,35 " description="&lt;b&gt;ctg4_141&lt;/b&gt;&lt;br&gt;ctg4 141&lt;br&gt;Location: 179099 - 179624" id="knownclusterblast-1_q1_0_all" style="stroke-width:1; stroke:black; fill:white; " locus_tag="ctg4_141"  />
<polygon class="clusterblast-orf" points="127,35 132,30 193,30 193,40 132,40 127,35 " description="&lt;b&gt;ctg4_142&lt;/b&gt;&lt;br&gt;ctg4 142&lt;br&gt;Location: 179828 - 181469" id="knownclusterblast-1_q2_0_all" style="stroke-width:1; stroke:black; fill:white; " locus_tag="ctg4_142"  />
<polygon class="clusterblast-orf" points="195,35 200,30 208,30 208,40 200,40 195,35 " description="&lt;b&gt;ctg4_143&lt;/b&gt;&lt;br&gt;ctg4 143&lt;br&gt;Location: 181522 - 181837" id="knownclusterblast-1_q3_0_all" style="stroke-width:1; stroke:black; fill:white; " locus_tag="ctg4_143"  />
<polygon class="clusterblast-orf" points="222,35 227,30 320,30 320,40 227,40 222,35 " description="&lt;b&gt;ctg4_144&lt;/b&gt;&lt;br&gt;ctg4 144&lt;br&gt;Location: 182180 - 184607" id="knownclusterblast-1_q4_0_all" style="stroke-width:1; stroke:black; fill:white; " locus_tag="ctg4_144"  />
<polygon class="clusterblast-orf" points="323,35 328,30 378,30 378,40 328,40 323,35 " description="&lt;b&gt;ctg4_145&lt;/b&gt;&lt;br&gt;ctg4 145&lt;br&gt;Location: 184680 - 186048" id="knownclusterblast-1_q5_0_all" style="stroke-width:1; stroke:black; fill:white; " locus_tag="ctg4_145"  />
<polygon class="clusterblast-orf" points="381,35 386,30 387,30 387,40 386,40 381,35 " description="&lt;b&gt;ctg4_146&lt;/b&gt;&lt;br&gt;ctg4 146&lt;br&gt;Location: 186134 - 186275" id="knownclusterblast-1_q6_0_all" style="stroke-width:1; stroke:black; fill:white; " locus_tag="ctg4_146"  />
<polygon class="clusterblast-orf" points="392,35 397,30 406,30 406,40 397,40 392,35 " description="&lt;b&gt;ctg4_147&lt;/b&gt;&lt;br&gt;ctg4 147&lt;br&gt;Location: 186403 - 186754" id="knownclusterblast-1_q7_0_all" style="stroke-width:1; stroke:black; fill:white; " locus_tag="ctg4_147"  />
<polygon class="clusterblast-orf" points="410,35 415,30 497,30 497,40 415,40 410,35 " description="&lt;b&gt;ctg4_148&lt;/b&gt;&lt;br&gt;ctg4 148&lt;br&gt;Location: 186842 - 188996" id="knownclusterblast-1_q8_0_all" style="stroke-width:1; stroke:black; fill:white; " locus_tag="ctg4_148"  />
<polygon class="clusterblast-orf" points="527,40 574,40 579,35 574,30 527,30 527,40 " description="&lt;b&gt;ctg4_149&lt;/b&gt;&lt;br&gt;ctg4 149&lt;br&gt;Location: 189746 - 191033" id="knownclusterblast-1_q9_0_all" style="stroke-width:1; stroke:black; fill:white; " locus_tag="ctg4_149"  />
<polygon class="clusterblast-orf" points="584,35 589,30 608,30 608,40 589,40 584,35 " description="&lt;b&gt;ctg4_150&lt;/b&gt;&lt;br&gt;ctg4 150&lt;br&gt;Location: 191156 - 191753" id="knownclusterblast-1_q10_0_all" style="stroke-width:1; stroke:black; fill:white; " locus_tag="ctg4_150"  />
<polygon class="clusterblast-orf" points="611,35 616,30 642,30 642,40 616,40 611,35 " description="&lt;b&gt;ctg4_151&lt;/b&gt;&lt;br&gt;ctg4 151&lt;br&gt;Location: 191843 - 192608" id="knownclusterblast-1_q11_0_all" style="stroke-width:1; stroke:black; fill:white; " locus_tag="ctg4_151"  />
<polygon class="clusterblast-orf" points="649,40 683,40 688,35 683,30 649,30 649,40 " description="&lt;b&gt;ctg4_152&lt;/b&gt;&lt;br&gt;ctg4 152&lt;br&gt;Location: 192775 - 193753" id="knownclusterblast-1_q12_0_all" style="stroke-width:1; stroke:black; fill:white; " locus_tag="ctg4_152"  />
<polygon class="clusterblast-orf" points="711,40 743,40 748,35 743,30 711,30 711,40 " description="&lt;b&gt;ctg4_153&lt;/b&gt;&lt;br&gt;ctg4 153&lt;br&gt;Location: 194307 - 195234" id="knownclusterblast-1_q13_0_all" style="stroke-width:1; stroke:black; fill:white; " locus_tag="ctg4_153"  />
<polygon class="clusterblast-orf" points="748,40 775,40 780,35 775,30 748,30 748,40 " description="&lt;b&gt;ctg4_154&lt;/b&gt;&lt;br&gt;ctg4 154&lt;br&gt;Location: 195226 - 196021" id="knownclusterblast-1_q14_0_all" style="stroke-width:1; stroke:black; fill:white; " locus_tag="ctg4_154"  />
</g>
</svg>
