<svg height="230" xmlns:xlink="http://www.w3.org/1999/xlink" xmlns="http://www.w3.org/2000/svg" x="0" width="800" preserveAspectRatio="none" version="1.1" viewBox="0 0 800 230" y="0"  >
<g class="clusterblast-cluster" label="Query sequence"  >
<text class="clusterblast-acc" x="5" y="20"  >
Query sequence</text>
<line y1="35" y2="35" style="stroke-width:1; stroke:grey; " x1="10" x2="778.0"  />
<polygon class="clusterblast-orf" points="212,40 214,35 212,30 212,40 " description="&lt;b&gt;ctg26_1&lt;/b&gt;&lt;br&gt;ctg26 1&lt;br&gt;Location: 1 - 214" id="dummy-1_q0_0_all" style="stroke-width:1; stroke:black; fill:white; " locus_tag="ctg26_1"  />
<polygon class="clusterblast-orf" points="214,40 214,40 219,35 214,30 214,30 214,40 " description="&lt;b&gt;ctg26_2&lt;/b&gt;&lt;br&gt;ctg26 2&lt;br&gt;Location: 213 - 813" id="dummy-1_q1_0_all" style="stroke-width:1; stroke:black; fill:white; " locus_tag="ctg26_2"  />
<polygon class="clusterblast-orf" points="226,40 228,35 226,30 226,40 " description="&lt;b&gt;ctg26_3&lt;/b&gt;&lt;br&gt;ctg26 3&lt;br&gt;Location: 1499 - 1724" id="dummy-1_q2_0_all" style="stroke-width:1; stroke:black; fill:white; " locus_tag="ctg26_3"  />
<polygon class="clusterblast-orf" points="228,40 239,40 244,35 239,30 228,30 228,40 " description="&lt;b&gt;ctg26_4&lt;/b&gt;&lt;br&gt;ctg26 4&lt;br&gt;Location: 1738 - 3415" id="dummy-1_q3_0_all" style="stroke-width:1; stroke:black; fill:white; " locus_tag="ctg26_4"  />
<polygon class="clusterblast-orf" points="245,40 250,40 255,35 250,30 245,30 245,40 " description="&lt;b&gt;ctg26_5&lt;/b&gt;&lt;br&gt;ctg26 5&lt;br&gt;Location: 3561 - 4605" id="dummy-1_q4_0_all" style="stroke-width:1; stroke:black; fill:white; " locus_tag="ctg26_5"  />
<polygon class="clusterblast-orf" points="256,40 276,40 281,35 276,30 256,30 256,40 " description="&lt;b&gt;ctg26_6&lt;/b&gt;&lt;br&gt;ctg26 6&lt;br&gt;Location: 4686 - 7443" id="dummy-1_q5_0_all" style="stroke-width:1; stroke:black; fill:white; " locus_tag="ctg26_6"  />
<polygon class="clusterblast-orf" points="283,40 286,35 283,30 283,40 " description="&lt;b&gt;ctg26_7&lt;/b&gt;&lt;br&gt;ctg26 7&lt;br&gt;Location: 7637 - 7877" id="dummy-1_q6_0_all" style="stroke-width:1; stroke:black; fill:white; " locus_tag="ctg26_7"  />
<polygon class="clusterblast-orf" points="286,40 288,40 293,35 288,30 286,30 286,40 " description="&lt;b&gt;ctg26_8&lt;/b&gt;&lt;br&gt;ctg26 8&lt;br&gt;Location: 7963 - 8698" id="dummy-1_q7_0_all" style="stroke-width:1; stroke:black; fill:white; " locus_tag="ctg26_8"  />
<polygon class="clusterblast-orf" points="293,40 298,40 303,35 298,30 293,30 293,40 " description="&lt;b&gt;ctg26_9&lt;/b&gt;&lt;br&gt;ctg26 9&lt;br&gt;Location: 8690 - 9779" id="dummy-1_q8_0_all" style="stroke-width:1; stroke:black; fill:white; " locus_tag="ctg26_9"  />
<polygon class="clusterblast-orf" points="304,40 331,40 336,35 331,30 304,30 304,40 " description="&lt;b&gt;ctg26_10&lt;/b&gt;&lt;br&gt;ctg26 10&lt;br&gt;Location: 9816 - 13233" id="dummy-1_q9_0_all" style="stroke-width:1; stroke:black; fill:white; " locus_tag="ctg26_10"  />
<polygon class="clusterblast-orf" points="336,40 383,40 388,35 383,30 336,30 336,40 " description="&lt;b&gt;ctg26_11&lt;/b&gt;&lt;br&gt;ctg26 11&lt;br&gt;Location: 13254 - 18792" id="dummy-1_q10_0_all" style="stroke-width:1; stroke:black; fill:white; " locus_tag="ctg26_11"  />
<polygon class="clusterblast-orf" points="388,40 394,40 399,35 394,30 388,30 388,40 " description="&lt;b&gt;ctg26_12&lt;/b&gt;&lt;br&gt;ctg26 12&lt;br&gt;Location: 18856 - 19957" id="dummy-1_q11_0_all" style="stroke-width:1; stroke:black; fill:white; " locus_tag="ctg26_12"  />
<polygon class="clusterblast-orf" points="398,40 400,40 405,35 400,30 398,30 398,40 " description="&lt;b&gt;ctg26_13&lt;/b&gt;&lt;br&gt;ctg26 13&lt;br&gt;Location: 19928 - 20699" id="dummy-1_q12_0_all" style="stroke-width:1; stroke:black; fill:white; " locus_tag="ctg26_13"  />
<polygon class="clusterblast-orf" points="406,40 410,40 415,35 410,30 406,30 406,40 " description="&lt;b&gt;ctg26_14&lt;/b&gt;&lt;br&gt;ctg26 14&lt;br&gt;Location: 20797 - 21742" id="dummy-1_q13_0_all" style="stroke-width:1; stroke:black; fill:white; " locus_tag="ctg26_14"  />
<polygon class="clusterblast-orf" points="416,40 417,40 422,35 417,30 416,30 416,40 " description="&lt;b&gt;ctg26_15&lt;/b&gt;&lt;br&gt;ctg26 15&lt;br&gt;Location: 21869 - 22481" id="dummy-1_q14_0_all" style="stroke-width:1; stroke:black; fill:white; " locus_tag="ctg26_15"  />
<polygon class="clusterblast-orf" points="426,40 438,40 443,35 438,30 426,30 426,40 " description="&lt;b&gt;ctg26_16&lt;/b&gt;&lt;br&gt;ctg26 16&lt;br&gt;Location: 22927 - 24706" id="dummy-1_q15_0_all" style="stroke-width:1; stroke:black; fill:white; " locus_tag="ctg26_16"  />
<polygon class="clusterblast-orf" points="442,35 446,30 446,40 442,35 " description="&lt;b&gt;ctg26_17&lt;/b&gt;&lt;br&gt;ctg26 17&lt;br&gt;Location: 24641 - 25058" id="dummy-1_q16_0_all" style="stroke-width:1; stroke:black; fill:white; " locus_tag="ctg26_17"  />
<polygon class="clusterblast-orf" points="451,35 455,30 455,40 451,35 " description="&lt;b&gt;ctg26_18&lt;/b&gt;&lt;br&gt;ctg26 18&lt;br&gt;Location: 25555 - 26041" id="dummy-1_q17_0_all" style="stroke-width:1; stroke:black; fill:white; " locus_tag="ctg26_18"  />
<polygon class="clusterblast-orf" points="456,40 461,40 466,35 461,30 456,30 456,40 " description="&lt;b&gt;ctg26_19&lt;/b&gt;&lt;br&gt;ctg26 19&lt;br&gt;Location: 26111 - 27140" id="dummy-1_q18_0_all" style="stroke-width:1; stroke:black; fill:#d81515; " locus_tag="ctg26_19"  />
<polygon class="clusterblast-orf" points="471,35 474,30 474,40 471,35 " description="&lt;b&gt;ctg26_20&lt;/b&gt;&lt;br&gt;ctg26 20&lt;br&gt;Location: 27704 - 28061" id="dummy-1_q19_0_all" style="stroke-width:1; stroke:black; fill:white; " locus_tag="ctg26_20"  />
<polygon class="clusterblast-orf" points="475,40 477,40 482,35 477,30 475,30 475,40 " description="&lt;b&gt;ctg26_21&lt;/b&gt;&lt;br&gt;ctg26 21&lt;br&gt;Location: 28082 - 28877" id="dummy-1_q20_0_all" style="stroke-width:1; stroke:black; fill:#d81515; " locus_tag="ctg26_21"  />
<polygon class="clusterblast-orf" points="484,40 487,35 484,30 484,40 " description="&lt;b&gt;ctg26_22&lt;/b&gt;&lt;br&gt;ctg26 22&lt;br&gt;Location: 29098 - 29440" id="dummy-1_q21_0_all" style="stroke-width:1; stroke:black; fill:white; " locus_tag="ctg26_22"  />
<polygon class="clusterblast-orf" points="488,40 490,40 495,35 490,30 488,30 488,40 " description="&lt;b&gt;ctg26_23&lt;/b&gt;&lt;br&gt;ctg26 23&lt;br&gt;Location: 29560 - 30298" id="dummy-1_q22_0_all" style="stroke-width:1; stroke:black; fill:white; " locus_tag="ctg26_23"  />
<polygon class="clusterblast-orf" points="497,40 499,40 504,35 499,30 497,30 497,40 " description="&lt;b&gt;ctg26_24&lt;/b&gt;&lt;br&gt;ctg26 24&lt;br&gt;Location: 30457 - 31222" id="dummy-1_q23_0_all" style="stroke-width:1; stroke:black; fill:white; " locus_tag="ctg26_24"  />
<polygon class="clusterblast-orf" points="505,40 508,35 505,30 505,40 " description="&lt;b&gt;ctg26_25&lt;/b&gt;&lt;br&gt;ctg26 25&lt;br&gt;Location: 31321 - 31660" id="dummy-1_q24_0_all" style="stroke-width:1; stroke:black; fill:white; " locus_tag="ctg26_25"  />
<polygon class="clusterblast-orf" points="514,35 517,30 517,40 514,35 " description="&lt;b&gt;ctg26_26&lt;/b&gt;&lt;br&gt;ctg26 26&lt;br&gt;Location: 32349 - 32583" id="dummy-1_q25_0_all" style="stroke-width:1; stroke:black; fill:white; " locus_tag="ctg26_26"  />
<polygon class="clusterblast-orf" points="517,35 522,30 525,30 525,40 522,40 517,35 " description="&lt;b&gt;ctg26_27&lt;/b&gt;&lt;br&gt;ctg26 27&lt;br&gt;Location: 32668 - 33511" id="dummy-1_q26_0_all" style="stroke-width:1; stroke:black; fill:white; " locus_tag="ctg26_27"  />
<polygon class="clusterblast-orf" points="525,35 530,30 532,30 532,40 530,40 525,35 " description="&lt;b&gt;ctg26_28&lt;/b&gt;&lt;br&gt;ctg26 28&lt;br&gt;Location: 33524 - 34196" id="dummy-1_q27_0_all" style="stroke-width:1; stroke:black; fill:white; " locus_tag="ctg26_28"  />
<polygon class="clusterblast-orf" points="532,35 537,30 540,30 540,40 537,40 532,35 " description="&lt;b&gt;ctg26_29&lt;/b&gt;&lt;br&gt;ctg26 29&lt;br&gt;Location: 34208 - 35066" id="dummy-1_q28_0_all" style="stroke-width:1; stroke:black; fill:white; " locus_tag="ctg26_29"  />
<polygon class="clusterblast-orf" points="542,40 544,35 542,30 542,40 " description="&lt;b&gt;ctg26_30&lt;/b&gt;&lt;br&gt;ctg26 30&lt;br&gt;Location: 35253 - 35466" id="dummy-1_q29_0_all" style="stroke-width:1; stroke:black; fill:white; " locus_tag="ctg26_30"  />
<polygon class="clusterblast-orf" points="547,40 562,40 567,35 562,30 547,30 547,40 " description="&lt;b&gt;ctg26_31&lt;/b&gt;&lt;br&gt;ctg26 31&lt;br&gt;Location: 35868 - 38001" id="dummy-1_q30_0_all" style="stroke-width:1; stroke:black; fill:white; " locus_tag="ctg26_31"  />
</g>
<g class="clusterblast-cluster" label="BGC0001055" description="BGC0001055_c1: Yersiniabactin (2% of genes show similarity), nrps-t1pks"  >
<text class="clusterblast-acc" x="5" y="70"  >
<a xlink:href="https://mibig.secondarymetabolites.org/go/BGC0001055/1" target="_blank">BGC0001055</a>:                                                                   Yersiniabactin (2% of genes show similarity), nrps-t1pks</text>
<line y1="85" y2="85" style="stroke-width:1; stroke:grey; " x1="10" x2="778.0"  />
</g>
<g id="a1_000"  >
<polygon class="clusterblast-orf" points="0,90 4,90 9,85 4,80 0,80 0,90 " description="&lt;b&gt;eco2068&lt;/b&gt;&lt;br&gt;putative penicillin binding protein 6b&lt;br&gt;Location: 84186 - 83179" id="dummy-1_h1_8_0" style="stroke-width:1; stroke:black; fill:white; " locus_tag="eco2068"  />
</g>
<g id="a1_001"  >
<polygon class="clusterblast-orf" points="10,90 14,85 10,80 10,90 " description="&lt;b&gt;eco2067&lt;/b&gt;&lt;br&gt;putative DNA gyrase inhibitory protein&lt;br&gt;Location: 83060 - 82587" id="dummy-1_h1_8_1" style="stroke-width:1; stroke:black; fill:white; " locus_tag="eco2067"  />
</g>
<g id="a1_002"  >
<polygon class="clusterblast-orf" points="16,90 21,90 26,85 21,80 16,80 16,90 " description="&lt;b&gt;eco2066&lt;/b&gt;&lt;br&gt;hypothetical protein&lt;br&gt;Location: 82389 - 81331" id="dummy-1_h1_8_2" style="stroke-width:1; stroke:black; fill:white; " locus_tag="eco2066"  />
</g>
<g id="a1_003"  >
<polygon class="clusterblast-orf" points="27,90 31,85 27,80 27,90 " description="&lt;b&gt;eco2065&lt;/b&gt;&lt;br&gt;hypothetical protein&lt;br&gt;Location: 81225 - 80830" id="dummy-1_h1_8_3" style="stroke-width:1; stroke:black; fill:white; " locus_tag="eco2065"  />
</g>
<g id="a1_004"  >
<polygon class="clusterblast-orf" points="32,85 36,80 36,90 32,85 " description="&lt;b&gt;eco2064&lt;/b&gt;&lt;br&gt;putative propanediol utilization protein PduV&lt;br&gt;Location: 80730 - 80287" id="dummy-1_h1_8_4" style="stroke-width:1; stroke:black; fill:white; " locus_tag="eco2064"  />
</g>
<g id="a1_005"  >
<polygon class="clusterblast-orf" points="36,85 39,80 39,90 36,85 " description="&lt;b&gt;eco2063&lt;/b&gt;&lt;br&gt;putative propanediol utilization protein PduU&lt;br&gt;Location: 80282 - 79932" id="dummy-1_h1_8_5" style="stroke-width:1; stroke:black; fill:white; " locus_tag="eco2063"  />
</g>
<g id="a1_006"  >
<polygon class="clusterblast-orf" points="39,85 44,80 44,80 44,90 44,90 39,85 " description="&lt;b&gt;eco2062&lt;/b&gt;&lt;br&gt;putative propanediol utilization protein PduT&lt;br&gt;Location: 79932 - 79378" id="dummy-1_h1_8_6" style="stroke-width:1; stroke:black; fill:white; " locus_tag="eco2062"  />
</g>
<g id="a1_007"  >
<polygon class="clusterblast-orf" points="44,85 49,80 57,80 57,90 49,90 44,85 " description="&lt;b&gt;eco2061&lt;/b&gt;&lt;br&gt;putative cobalamine reductase&lt;br&gt;Location: 79375 - 78032" id="dummy-1_h1_8_7" style="stroke-width:1; stroke:black; fill:white; " locus_tag="eco2061"  />
</g>
<g id="a1_008"  >
<polygon class="clusterblast-orf" points="57,85 62,80 67,80 67,90 62,90 57,85 " description="&lt;b&gt;eco2060&lt;/b&gt;&lt;br&gt;putative propanol dehydrogenase&lt;br&gt;Location: 78035 - 76923" id="dummy-1_h1_8_8" style="stroke-width:1; stroke:black; fill:white; " locus_tag="eco2060"  />
</g>
<g id="a1_009"  >
<polygon class="clusterblast-orf" points="68,85 73,80 80,80 80,90 73,90 68,85 " description="&lt;b&gt;eco2059&lt;/b&gt;&lt;br&gt;putative CoA-dependent propionaldehyde dehydrogenase&lt;br&gt;Location: 76912 - 75527" id="dummy-1_h1_8_9" style="stroke-width:1; stroke:black; fill:white; " locus_tag="eco2059"  />
</g>
<g id="a1_0010"  >
<polygon class="clusterblast-orf" points="80,85 85,80 90,80 90,90 85,90 80,85 " description="&lt;b&gt;eco2058&lt;/b&gt;&lt;br&gt;PduO protein&lt;br&gt;Location: 75530 - 74523" id="dummy-1_h1_8_10" style="stroke-width:1; stroke:black; fill:white; " locus_tag="eco2058"  />
</g>
<g id="a1_0011"  >
<polygon class="clusterblast-orf" points="90,85 93,80 93,90 90,85 " description="&lt;b&gt;eco2057&lt;/b&gt;&lt;br&gt;putative propanediol utilization protein PduN&lt;br&gt;Location: 74511 - 74236" id="dummy-1_h1_8_11" style="stroke-width:1; stroke:black; fill:white; " locus_tag="eco2057"  />
</g>
<g id="a1_0012"  >
<polygon class="clusterblast-orf" points="93,85 97,80 97,90 93,85 " description="&lt;b&gt;eco2056&lt;/b&gt;&lt;br&gt;PduM protein&lt;br&gt;Location: 74232 - 73741" id="dummy-1_h1_8_12" style="stroke-width:1; stroke:black; fill:white; " locus_tag="eco2056"  />
</g>
<g id="a1_0013"  >
<polygon class="clusterblast-orf" points="97,85 102,80 103,80 103,90 102,90 97,85 " description="&lt;b&gt;eco2055&lt;/b&gt;&lt;br&gt;PduL protein&lt;br&gt;Location: 73744 - 73112" id="dummy-1_h1_8_13" style="stroke-width:1; stroke:black; fill:white; " locus_tag="eco2055"  />
</g>
<g id="a1_0014"  >
<polygon class="clusterblast-orf" points="103,85 107,80 107,90 103,85 " description="&lt;b&gt;eco2054&lt;/b&gt;&lt;br&gt;putative propanediol utilization protein PduK&lt;br&gt;Location: 73109 - 72687" id="dummy-1_h1_8_14" style="stroke-width:1; stroke:black; fill:white; " locus_tag="eco2054"  />
</g>
<g id="a1_0015"  >
<polygon class="clusterblast-orf" points="107,85 110,80 110,90 107,85 " description="&lt;b&gt;eco2053&lt;/b&gt;&lt;br&gt;putative propanediol utilization protein PduJ&lt;br&gt;Location: 72663 - 72388" id="dummy-1_h1_8_15" style="stroke-width:1; stroke:black; fill:white; " locus_tag="eco2053"  />
</g>
<g id="a1_0016"  >
<polygon class="clusterblast-orf" points="110,85 113,80 113,90 110,85 " description="&lt;b&gt;eco2052&lt;/b&gt;&lt;br&gt;PduH protein&lt;br&gt;Location: 72368 - 72018" id="dummy-1_h1_8_16" style="stroke-width:1; stroke:black; fill:white; " locus_tag="eco2052"  />
</g>
<g id="a1_0017"  >
<polygon class="clusterblast-orf" points="113,85 118,80 130,80 130,90 118,90 113,85 " description="&lt;b&gt;eco2051&lt;/b&gt;&lt;br&gt;PduG protein&lt;br&gt;Location: 72028 - 70196" id="dummy-1_h1_8_17" style="stroke-width:1; stroke:black; fill:white; " locus_tag="eco2051"  />
</g>
<g id="a1_0018"  >
<polygon class="clusterblast-orf" points="130,85 135,80 135,80 135,90 135,90 130,85 " description="&lt;b&gt;eco2050&lt;/b&gt;&lt;br&gt;putative diol dehydratase small subunit&lt;br&gt;Location: 70186 - 69668" id="dummy-1_h1_8_18" style="stroke-width:1; stroke:black; fill:white; " locus_tag="eco2050"  />
</g>
<g id="a1_0019"  >
<polygon class="clusterblast-orf" points="135,85 140,80 142,80 142,90 140,90 135,85 " description="&lt;b&gt;eco2049&lt;/b&gt;&lt;br&gt;putative diol dehydratase medium subunit&lt;br&gt;Location: 69653 - 68985" id="dummy-1_h1_8_19" style="stroke-width:1; stroke:black; fill:white; " locus_tag="eco2049"  />
</g>
<g id="a1_0020"  >
<polygon class="clusterblast-orf" points="142,85 147,80 157,80 157,90 147,90 142,85 " description="&lt;b&gt;eco2048&lt;/b&gt;&lt;br&gt;putative glycerol dehydratase large subunit&lt;br&gt;Location: 68975 - 67311" id="dummy-1_h1_8_20" style="stroke-width:1; stroke:black; fill:white; " locus_tag="eco2048"  />
</g>
<g id="a1_0021"  >
<polygon class="clusterblast-orf" points="158,85 163,80 165,80 165,90 163,90 158,85 " description="&lt;b&gt;eco2047&lt;/b&gt;&lt;br&gt;putative propanediol utilization protein PduB&lt;br&gt;Location: 67292 - 66480" id="dummy-1_h1_8_21" style="stroke-width:1; stroke:black; fill:white; " locus_tag="eco2047"  />
</g>
<g id="a1_0022"  >
<polygon class="clusterblast-orf" points="165,85 168,80 168,90 165,85 " description="&lt;b&gt;eco2046&lt;/b&gt;&lt;br&gt;putative propanediol utilization protein PduA&lt;br&gt;Location: 66483 - 66199" id="dummy-1_h1_8_22" style="stroke-width:1; stroke:black; fill:white; " locus_tag="eco2046"  />
</g>
<g id="a1_0023"  >
<polygon class="clusterblast-orf" points="173,90 175,90 180,85 175,80 173,80 173,90 " description="&lt;b&gt;eco2045&lt;/b&gt;&lt;br&gt;putative propanediol diffusion facilitator&lt;br&gt;Location: 65686 - 64877" id="dummy-1_h1_8_23" style="stroke-width:1; stroke:black; fill:white; " locus_tag="eco2045"  />
</g>
<g id="a1_0024"  >
<polygon class="clusterblast-orf" points="182,90 186,90 191,85 186,80 182,80 182,90 " description="&lt;b&gt;eco2044&lt;/b&gt;&lt;br&gt;putative regulatory protein PocR&lt;br&gt;Location: 64674 - 63760" id="dummy-1_h1_8_24" style="stroke-width:1; stroke:black; fill:white; " locus_tag="eco2044"  />
</g>
<g id="a1_0025"  >
<polygon class="clusterblast-orf" points="195,90 199,85 195,80 195,90 " description="&lt;b&gt;eco2043&lt;/b&gt;&lt;br&gt;&lt;br&gt;Location: 63275 - 62838" id="dummy-1_h1_8_25" style="stroke-width:1; stroke:black; fill:white; " locus_tag="eco2043"  />
</g>
<g id="a1_0026"  >
<polygon class="clusterblast-orf" points="200,90 201,90 206,85 201,80 200,80 200,90 " description="&lt;b&gt;eco2042&lt;/b&gt;&lt;br&gt;putative cobinamide kinase/cobinamide phosphate guanylyltransferase&lt;br&gt;Location: 62704 - 62159" id="dummy-1_h1_8_26" style="stroke-width:1; stroke:black; fill:white; " locus_tag="eco2042"  />
</g>
<g id="a1_0027"  >
<polygon class="clusterblast-orf" points="205,90 207,90 212,85 207,80 205,80 205,90 " description="&lt;b&gt;eco2041&lt;/b&gt;&lt;br&gt;putative cobalamin synthase&lt;br&gt;Location: 62162 - 61419" id="dummy-1_h1_8_27" style="stroke-width:1; stroke:black; fill:white; " locus_tag="eco2041"  />
</g>
<g id="a1_0028"  >
<polygon class="clusterblast-orf" points="213,90 218,90 223,85 218,80 213,80 213,90 " description="&lt;b&gt;eco2040&lt;/b&gt;&lt;br&gt;putative dimethylbenzimidazol phosphoribosyltransferase&lt;br&gt;Location: 61407 - 60334" id="dummy-1_h1_8_28" style="stroke-width:1; stroke:black; fill:white; " locus_tag="eco2040"  />
</g>
<g id="a1_0029"  >
<polygon class="clusterblast-orf" points="223,90 227,90 232,85 227,80 223,80 223,90 " description="&lt;b&gt;eco2039&lt;/b&gt;&lt;br&gt;putative exported protein ErfK&lt;br&gt;Location: 60272 - 59337" id="dummy-1_h1_8_29" style="stroke-width:1; stroke:black; fill:white; " locus_tag="eco2039"  />
</g>
<g id="a1_0030"  >
<polygon class="clusterblast-orf" points="236,90 240,90 245,85 240,80 236,80 236,90 " description="&lt;b&gt;eco2038&lt;/b&gt;&lt;br&gt;putative nitrogen assimilation regulatory protein&lt;br&gt;Location: 58879 - 57962" id="dummy-1_h1_8_30" style="stroke-width:1; stroke:black; fill:white; " locus_tag="eco2038"  />
</g>
<g id="a1_0031"  >
<polygon class="clusterblast-orf" points="246,90 250,90 255,85 250,80 246,80 246,90 " description="&lt;b&gt;eco2037&lt;/b&gt;&lt;br&gt;putative transcriptional regulator&lt;br&gt;Location: 57860 - 56910" id="dummy-1_h1_8_31" style="stroke-width:1; stroke:black; fill:white; " locus_tag="eco2037"  />
</g>
<g id="a1_0032"  >
<polygon class="clusterblast-orf" points="256,90 266,90 271,85 266,80 256,80 256,90 " description="&lt;b&gt;eco2036&lt;/b&gt;&lt;br&gt;hypothetical protein&lt;br&gt;Location: 56792 - 55149" id="dummy-1_h1_8_32" style="stroke-width:1; stroke:black; fill:white; " locus_tag="eco2036"  />
</g>
<g id="a1_0033"  >
<polygon class="clusterblast-orf" points="277,85 282,80 284,80 284,90 282,90 277,85 " description="&lt;b&gt;eco2035&lt;/b&gt;&lt;br&gt;hypothetical protein&lt;br&gt;Location: 54517 - 53801" id="dummy-1_h1_8_33" style="stroke-width:1; stroke:black; fill:white; " locus_tag="eco2035"  />
</g>
<g id="a1_0034"  >
<polygon class="clusterblast-orf" points="287,85 292,80 300,80 300,90 292,90 287,85 " description="&lt;b&gt;eco2034&lt;/b&gt;&lt;br&gt;putative AMP nucleosidase&lt;br&gt;Location: 53458 - 52004" id="dummy-1_h1_8_34" style="stroke-width:1; stroke:black; fill:white; " locus_tag="eco2034"  />
</g>
<g id="a1_0035"  >
<polygon class="clusterblast-orf" points="301,85 306,80 314,80 314,90 306,90 301,85 " description="&lt;b&gt;eco2033&lt;/b&gt;&lt;br&gt;putative transport protein, shikimate&lt;br&gt;Location: 51902 - 50586" id="dummy-1_h1_8_35" style="stroke-width:1; stroke:black; fill:white; " locus_tag="eco2033"  />
</g>
<g id="a1_0036"  >
<polygon class="clusterblast-orf" points="317,90 322,90 327,85 322,80 317,80 317,90 " description="&lt;b&gt;eco2032&lt;/b&gt;&lt;br&gt;hypothetical protein&lt;br&gt;Location: 50271 - 49219" id="dummy-1_h1_8_36" style="stroke-width:1; stroke:black; fill:white; " locus_tag="eco2032"  />
</g>
<g id="a1_0037"  >
<polygon class="clusterblast-orf" points="328,85 333,80 346,80 346,90 333,90 328,85 " description="&lt;b&gt;eco2031&lt;/b&gt;&lt;br&gt;hypothetical protein&lt;br&gt;Location: 49091 - 47133" id="dummy-1_h1_8_37" style="stroke-width:1; stroke:black; fill:white; " locus_tag="eco2031"  />
</g>
<g id="a1_0038"  >
<polygon class="clusterblast-orf" points="347,85 352,80 355,80 355,90 352,90 347,85 " description="&lt;b&gt;eco2030&lt;/b&gt;&lt;br&gt;hypothetical protein&lt;br&gt;Location: 47000 - 46194" id="dummy-1_h1_8_38" style="stroke-width:1; stroke:black; fill:white; " locus_tag="eco2030"  />
</g>
<g id="a1_0039"  >
<polygon class="clusterblast-orf" points="360,85 365,80 379,80 379,90 365,90 360,85 " description="&lt;b&gt;eco2029&lt;/b&gt;&lt;br&gt;putative pesticin receptor&lt;br&gt;Location: 45600 - 43579" id="dummy-1_h1_8_39" style="stroke-width:1; stroke:black; fill:white; " locus_tag="eco2029"  />
</g>
<g id="a1_0040"  >
<polygon class="clusterblast-orf" points="381,85 386,80 395,80 395,90 386,90 381,85 " description="&lt;b&gt;eco2028&lt;/b&gt;&lt;br&gt;2,3-dihydroxybenzoate-AMP ligase&lt;br&gt;Location: 43447 - 41870" id="dummy-1_h1_8_40" style="stroke-width:1; stroke:black; fill:white; " locus_tag="eco2028"  />
</g>
<g id="a1_0041"  >
<polygon class="clusterblast-orf" points="395,85 400,80 403,80 403,90 400,90 395,85 " description="&lt;b&gt;eco2027&lt;/b&gt;&lt;br&gt;putative thioesterase&lt;br&gt;Location: 41866 - 41078" id="dummy-1_h1_8_41" style="stroke-width:1; stroke:black; fill:white; " locus_tag="eco2027"  />
</g>
<g id="a1_0042"  >
<polygon class="clusterblast-orf" points="403,85 408,80 413,80 413,90 408,90 403,85 " description="&lt;b&gt;eco2026&lt;/b&gt;&lt;br&gt;hypothetical protein&lt;br&gt;Location: 41066 - 39966" id="dummy-1_h1_8_42" style="stroke-width:1; stroke:black; fill:white; " locus_tag="eco2026"  />
</g>
<g id="a1_0043"  >
<polygon class="clusterblast-orf" points="413,85 418,80 502,80 502,90 418,90 413,85 " description="&lt;b&gt;eco2025&lt;/b&gt;&lt;br&gt;putative peptide/polyketide synthetase&lt;br&gt;Location: 39969 - 30478" id="dummy-1_h1_8_43" style="stroke-width:1; stroke:black; fill:white; " locus_tag="eco2025"  />
</g>
<g id="a1_0044"  >
<polygon class="clusterblast-orf" points="503,85 508,80 560,80 560,90 508,90 503,85 " description="&lt;b&gt;eco2024&lt;/b&gt;&lt;br&gt;putative peptide synthase&lt;br&gt;Location: 30390 - 24283" id="dummy-1_h1_8_44" style="stroke-width:1; stroke:black; fill:white; " locus_tag="eco2024"  />
</g>
<g id="a1_0045"  >
<polygon class="clusterblast-orf" points="562,85 567,80 570,80 570,90 567,90 562,85 " description="&lt;b&gt;eco2023&lt;/b&gt;&lt;br&gt;putative AraC type regulator&lt;br&gt;Location: 24092 - 23133" id="dummy-1_h1_8_45" style="stroke-width:1; stroke:black; fill:white; " locus_tag="eco2023"  />
</g>
<g id="a1_0046"  >
<polygon class="clusterblast-orf" points="572,90 584,90 589,85 584,80 572,80 572,90 " description="&lt;b&gt;eco2022&lt;/b&gt;&lt;br&gt;putative inner membrane ABC-transporter&lt;br&gt;Location: 22966 - 21164&lt;br&gt;&lt;br&gt;&lt;b&gt;BlastP hit with ctg26_19&lt;/b&gt;&lt;br&gt;Percentage identity: 54&lt;br&gt;Percentage coverage: 63&lt;br&gt;BLAST bit score: 243&lt;br&gt;E-value: 3.4e-64&lt;br&gt;&lt;br&gt;&lt;b&gt;BlastP hit with ctg26_21&lt;/b&gt;&lt;br&gt;Percentage identity: 46&lt;br&gt;Percentage coverage: 95&lt;br&gt;BLAST bit score: 225&lt;br&gt;E-value: 9.7e-59" id="dummy-1_h1_8_46" style="stroke-width:1; stroke:black; fill:#d81515; " locus_tag="eco2022"  />
</g>
<g id="a1_0047"  >
<polygon class="clusterblast-orf" points="589,90 601,90 606,85 601,80 589,80 589,90 " description="&lt;b&gt;eco2021&lt;/b&gt;&lt;br&gt;putative ABC transporter protein&lt;br&gt;Location: 21177 - 19375&lt;br&gt;&lt;br&gt;&lt;b&gt;BlastP hit with ctg26_19&lt;/b&gt;&lt;br&gt;Percentage identity: 48&lt;br&gt;Percentage coverage: 67&lt;br&gt;BLAST bit score: 226&lt;br&gt;E-value: 5.6e-59&lt;br&gt;&lt;br&gt;&lt;b&gt;BlastP hit with ctg26_21&lt;/b&gt;&lt;br&gt;Percentage identity: 50&lt;br&gt;Percentage coverage: 93&lt;br&gt;BLAST bit score: 244&lt;br&gt;E-value: 2e-64" id="dummy-1_h1_8_47" style="stroke-width:1; stroke:black; fill:#d81515; " locus_tag="eco2021"  />
</g>
<g id="a1_0048"  >
<polygon class="clusterblast-orf" points="606,90 613,90 618,85 613,80 606,80 606,90 " description="&lt;b&gt;eco2020&lt;/b&gt;&lt;br&gt;putative cytoplasmic transmembrane protein&lt;br&gt;Location: 19382 - 18102" id="dummy-1_h1_8_48" style="stroke-width:1; stroke:black; fill:white; " locus_tag="eco2020"  />
</g>
<g id="a1_0049"  >
<polygon class="clusterblast-orf" points="618,90 625,90 630,85 625,80 618,80 618,90 " description="&lt;b&gt;eco2019&lt;/b&gt;&lt;br&gt;putative anthranilate synthase&lt;br&gt;Location: 18074 - 16770" id="dummy-1_h1_8_49" style="stroke-width:1; stroke:black; fill:white; " locus_tag="eco2019"  />
</g>
<g id="a1_0050"  >
<polygon class="clusterblast-orf" points="632,85 637,80 644,80 644,90 637,90 632,85 " description="&lt;b&gt;eco2018&lt;/b&gt;&lt;br&gt;putative prophage P4 integrase&lt;br&gt;Location: 16576 - 15314" id="dummy-1_h1_8_50" style="stroke-width:1; stroke:black; fill:white; " locus_tag="eco2018"  />
</g>
<g id="a1_0051"  >
<polygon class="clusterblast-orf" points="647,85 652,80 654,80 654,90 652,90 647,85 " description="&lt;b&gt;eco2017&lt;/b&gt;&lt;br&gt;putative YeeI protein&lt;br&gt;Location: 14976 - 14179" id="dummy-1_h1_8_51" style="stroke-width:1; stroke:black; fill:white; " locus_tag="eco2017"  />
</g>
<g id="a1_0052"  >
<polygon class="clusterblast-orf" points="658,90 661,90 666,85 661,80 658,80 658,90 " description="&lt;b&gt;eco2016&lt;/b&gt;&lt;br&gt;hypothetical protein&lt;br&gt;Location: 13774 - 12881" id="dummy-1_h1_8_52" style="stroke-width:1; stroke:black; fill:white; " locus_tag="eco2016"  />
</g>
<g id="a1_0053"  >
<polygon class="clusterblast-orf" points="668,90 670,85 668,80 668,90 " description="&lt;b&gt;eco2015&lt;/b&gt;&lt;br&gt;ECs3513 protein&lt;br&gt;Location: 12665 - 12447" id="dummy-1_h1_8_53" style="stroke-width:1; stroke:black; fill:white; " locus_tag="eco2015"  />
</g>
<g id="a1_0054"  >
<polygon class="clusterblast-orf" points="671,90 674,85 671,80 671,90 " description="&lt;b&gt;eco2014&lt;/b&gt;&lt;br&gt;hypothetical protein&lt;br&gt;Location: 12377 - 12075" id="dummy-1_h1_8_54" style="stroke-width:1; stroke:black; fill:white; " locus_tag="eco2014"  />
</g>
<g id="a1_0055"  >
<polygon class="clusterblast-orf" points="674,90 677,85 674,80 674,90 " description="&lt;b&gt;eco2013&lt;/b&gt;&lt;br&gt;hypothetical protein&lt;br&gt;Location: 12022 - 11768" id="dummy-1_h1_8_55" style="stroke-width:1; stroke:black; fill:white; " locus_tag="eco2013"  />
</g>
<g id="a1_0056"  >
<polygon class="clusterblast-orf" points="678,90 680,85 678,80 678,90 " description="&lt;b&gt;eco2012&lt;/b&gt;&lt;br&gt;hypothetical protein&lt;br&gt;Location: 11653 - 11411" id="dummy-1_h1_8_56" style="stroke-width:1; stroke:black; fill:white; " locus_tag="eco2012"  />
</g>
<g id="a1_0057"  >
<polygon class="clusterblast-orf" points="681,90 684,85 681,80 681,90 " description="&lt;b&gt;eco2011&lt;/b&gt;&lt;br&gt;hypothetical protein&lt;br&gt;Location: 11332 - 10952" id="dummy-1_h1_8_57" style="stroke-width:1; stroke:black; fill:white; " locus_tag="eco2011"  />
</g>
<g id="a1_0058"  >
<polygon class="clusterblast-orf" points="685,85 689,80 689,90 685,85 " description="&lt;b&gt;eco2010&lt;/b&gt;&lt;br&gt;DNA-binding protein H-NS&lt;br&gt;Location: 10888 - 10484" id="dummy-1_h1_8_58" style="stroke-width:1; stroke:black; fill:white; " locus_tag="eco2010"  />
</g>
<g id="a1_0059"  >
<polygon class="clusterblast-orf" points="690,85 695,80 695,80 695,90 695,90 690,85 " description="&lt;b&gt;eco2009&lt;/b&gt;&lt;br&gt;hypothetical protein&lt;br&gt;Location: 10326 - 9847" id="dummy-1_h1_8_59" style="stroke-width:1; stroke:black; fill:white; " locus_tag="eco2009"  />
</g>
<g id="a1_0060"  >
<polygon class="clusterblast-orf" points="697,85 702,80 705,80 705,90 702,90 697,85 " description="&lt;b&gt;eco2008&lt;/b&gt;&lt;br&gt;hypothetical protein&lt;br&gt;Location: 9570 - 8770" id="dummy-1_h1_8_60" style="stroke-width:1; stroke:black; fill:white; " locus_tag="eco2008"  />
</g>
<g id="a1_0061"  >
<polygon class="clusterblast-orf" points="705,85 710,80 712,80 712,90 710,90 705,85 " description="&lt;b&gt;eco2007&lt;/b&gt;&lt;br&gt;putative DNA-binding protein&lt;br&gt;Location: 8745 - 8011" id="dummy-1_h1_8_61" style="stroke-width:1; stroke:black; fill:white; " locus_tag="eco2007"  />
</g>
<g id="a1_0062"  >
<polygon class="clusterblast-orf" points="720,90 723,85 720,80 720,90 " description="&lt;b&gt;eco2006&lt;/b&gt;&lt;br&gt;hypothetical protein&lt;br&gt;Location: 7129 - 6878" id="dummy-1_h1_8_62" style="stroke-width:1; stroke:black; fill:white; " locus_tag="eco2006"  />
</g>
<g id="a1_0063"  >
<polygon class="clusterblast-orf" points="723,85 728,80 732,80 732,90 728,90 723,85 " description="&lt;b&gt;eco2005&lt;/b&gt;&lt;br&gt;hypothetical protein&lt;br&gt;Location: 6787 - 5909" id="dummy-1_h1_8_63" style="stroke-width:1; stroke:black; fill:white; " locus_tag="eco2005"  />
</g>
<g id="a1_0064"  >
<polygon class="clusterblast-orf" points="735,90 735,90 740,85 735,80 735,80 735,90 " description="&lt;b&gt;eco2004&lt;/b&gt;&lt;br&gt;hypothetical protein&lt;br&gt;Location: 5500 - 4997" id="dummy-1_h1_8_64" style="stroke-width:1; stroke:black; fill:white; " locus_tag="eco2004"  />
</g>
<g id="a1_0065"  >
<polygon class="clusterblast-orf" points="741,90 761,90 766,85 761,80 741,80 741,90 " description="&lt;b&gt;eco2003&lt;/b&gt;&lt;br&gt;hypothetical protein&lt;br&gt;Location: 4945 - 2261" id="dummy-1_h1_8_65" style="stroke-width:1; stroke:black; fill:white; " locus_tag="eco2003"  />
</g>
<g id="a1_0066"  >
<polygon class="clusterblast-orf" points="767,85 772,80 774,80 774,90 772,90 767,85 " description="&lt;b&gt;eco2002&lt;/b&gt;&lt;br&gt;hypothetical protein&lt;br&gt;Location: 2088 - 1357" id="dummy-1_h1_8_66" style="stroke-width:1; stroke:black; fill:white; " locus_tag="eco2002"  />
</g>
<g id="a1_0067"  >
<polygon class="clusterblast-orf" points="775,85 780,80 780,80 780,90 780,90 775,85 " description="&lt;b&gt;eco2001&lt;/b&gt;&lt;br&gt;hypothetical protein&lt;br&gt;Location: 1268 - 786" id="dummy-1_h1_8_67" style="stroke-width:1; stroke:black; fill:white; " locus_tag="eco2001"  />
</g>
</svg>
