<svg height="230" xmlns:xlink="http://www.w3.org/1999/xlink" xmlns="http://www.w3.org/2000/svg" x="0" width="800" preserveAspectRatio="none" version="1.1" viewBox="0 0 800 230" y="0"  >
<g class="clusterblast-cluster" label="Query sequence"  >
<text class="clusterblast-acc" x="5" y="20"  >
Query sequence</text>
<line y1="35" y2="35" style="stroke-width:1; stroke:grey; " x1="10" x2="778.0"  />
<polygon class="clusterblast-orf" points="89,35 94,30 103,30 103,40 94,40 89,35 " description="&lt;b&gt;ctg29_2&lt;/b&gt;&lt;br&gt;ctg29 2&lt;br&gt;Location: 1704 - 2634" id="dummy-1_q0_0_all" style="stroke-width:1; stroke:black; fill:white; " locus_tag="ctg29_2"  />
<polygon class="clusterblast-orf" points="107,40 121,40 126,35 121,30 107,30 107,40 " description="&lt;b&gt;ctg29_3&lt;/b&gt;&lt;br&gt;ctg29 3&lt;br&gt;Location: 2862 - 4107" id="dummy-1_q1_0_all" style="stroke-width:1; stroke:black; fill:white; " locus_tag="ctg29_3"  />
<polygon class="clusterblast-orf" points="127,35 132,30 143,30 143,40 132,40 127,35 " description="&lt;b&gt;ctg29_4&lt;/b&gt;&lt;br&gt;ctg29 4&lt;br&gt;Location: 4173 - 5169" id="dummy-1_q2_0_all" style="stroke-width:1; stroke:black; fill:white; " locus_tag="ctg29_4"  />
<polygon class="clusterblast-orf" points="143,35 145,30 145,40 143,35 " description="&lt;b&gt;ctg29_5&lt;/b&gt;&lt;br&gt;ctg29 5&lt;br&gt;Location: 5198 - 5309" id="dummy-1_q3_0_all" style="stroke-width:1; stroke:black; fill:white; " locus_tag="ctg29_5"  />
<polygon class="clusterblast-orf" points="147,35 152,30 185,30 185,40 152,40 147,35 " description="&lt;b&gt;ctg29_6&lt;/b&gt;&lt;br&gt;ctg29 6&lt;br&gt;Location: 5423 - 7931" id="dummy-1_q4_0_all" style="stroke-width:1; stroke:black; fill:white; " locus_tag="ctg29_6"  />
<polygon class="clusterblast-orf" points="185,35 190,30 199,30 199,40 190,40 185,35 " description="&lt;b&gt;ctg29_7&lt;/b&gt;&lt;br&gt;ctg29 7&lt;br&gt;Location: 7930 - 8776" id="dummy-1_q5_0_all" style="stroke-width:1; stroke:black; fill:white; " locus_tag="ctg29_7"  />
<polygon class="clusterblast-orf" points="198,35 203,30 213,30 213,40 203,40 198,35 " description="&lt;b&gt;ctg29_8&lt;/b&gt;&lt;br&gt;ctg29 8&lt;br&gt;Location: 8772 - 9735" id="dummy-1_q6_0_all" style="stroke-width:1; stroke:black; fill:white; " locus_tag="ctg29_8"  />
<polygon class="clusterblast-orf" points="216,35 221,30 237,30 237,40 221,40 216,35 " description="&lt;b&gt;ctg29_9&lt;/b&gt;&lt;br&gt;ctg29 9&lt;br&gt;Location: 9898 - 11266" id="dummy-1_q7_0_all" style="stroke-width:1; stroke:black; fill:white; " locus_tag="ctg29_9"  />
<polygon class="clusterblast-orf" points="239,40 246,40 251,35 246,30 239,30 239,40 " description="&lt;b&gt;ctg29_10&lt;/b&gt;&lt;br&gt;ctg29 10&lt;br&gt;Location: 11397 - 12168" id="dummy-1_q8_0_all" style="stroke-width:1; stroke:black; fill:white; " locus_tag="ctg29_10"  />
<polygon class="clusterblast-orf" points="256,35 261,30 300,30 300,40 261,40 256,35 " description="&lt;b&gt;ctg29_11&lt;/b&gt;&lt;br&gt;ctg29 11&lt;br&gt;Location: 12465 - 15309" id="dummy-1_q9_0_all" style="stroke-width:1; stroke:black; fill:white; " locus_tag="ctg29_11"  />
<polygon class="clusterblast-orf" points="301,35 306,30 339,30 339,40 306,40 301,35 " description="&lt;b&gt;ctg29_12&lt;/b&gt;&lt;br&gt;ctg29 12&lt;br&gt;Location: 15359 - 17822" id="dummy-1_q10_0_all" style="stroke-width:1; stroke:black; fill:white; " locus_tag="ctg29_12"  />
<polygon class="clusterblast-orf" points="341,35 346,30 351,30 351,40 346,40 341,35 " description="&lt;b&gt;ctg29_13&lt;/b&gt;&lt;br&gt;ctg29 13&lt;br&gt;Location: 17932 - 18625" id="dummy-1_q11_0_all" style="stroke-width:1; stroke:black; fill:#d81515; " locus_tag="ctg29_13"  />
<polygon class="clusterblast-orf" points="352,35 357,30 359,30 359,40 357,40 352,35 " description="&lt;b&gt;ctg29_14&lt;/b&gt;&lt;br&gt;ctg29 14&lt;br&gt;Location: 18681 - 19107" id="dummy-1_q12_0_all" style="stroke-width:1; stroke:black; fill:#77d815; " locus_tag="ctg29_14"  />
<polygon class="clusterblast-orf" points="360,35 365,30 368,30 368,40 365,40 360,35 " description="&lt;b&gt;ctg29_15&lt;/b&gt;&lt;br&gt;ctg29 15&lt;br&gt;Location: 19175 - 19691" id="dummy-1_q13_0_all" style="stroke-width:1; stroke:black; fill:white; " locus_tag="ctg29_15"  />
<polygon class="clusterblast-orf" points="368,35 372,30 372,40 368,35 " description="&lt;b&gt;ctg29_16&lt;/b&gt;&lt;br&gt;ctg29 16&lt;br&gt;Location: 19707 - 19932" id="dummy-1_q14_0_all" style="stroke-width:1; stroke:black; fill:white; " locus_tag="ctg29_16"  />
<polygon class="clusterblast-orf" points="378,35 383,30 388,30 388,40 383,40 378,35 " description="&lt;b&gt;ctg29_17&lt;/b&gt;&lt;br&gt;ctg29 17&lt;br&gt;Location: 20329 - 20965" id="dummy-1_q15_0_all" style="stroke-width:1; stroke:black; fill:#15d8d8; " locus_tag="ctg29_17"  />
<polygon class="clusterblast-orf" points="391,35 396,30 396,30 396,40 396,40 391,35 " description="&lt;b&gt;ctg29_18&lt;/b&gt;&lt;br&gt;ctg29 18&lt;br&gt;Location: 21182 - 21485" id="dummy-1_q16_0_all" style="stroke-width:1; stroke:black; fill:#7715d8; " locus_tag="ctg29_18"  />
<polygon class="clusterblast-orf" points="398,35 403,30 538,30 538,40 403,40 398,35 " description="&lt;b&gt;ctg29_19&lt;/b&gt;&lt;br&gt;ctg29 19&lt;br&gt;Location: 21659 - 30650" id="dummy-1_q17_0_all" style="stroke-width:1; stroke:black; fill:#d8a715; " locus_tag="ctg29_19"  />
<polygon class="clusterblast-orf" points="538,35 543,30 565,30 565,40 543,40 538,35 " description="&lt;b&gt;ctg29_20&lt;/b&gt;&lt;br&gt;ctg29 20&lt;br&gt;Location: 30662 - 32408" id="dummy-1_q18_0_all" style="stroke-width:1; stroke:black; fill:#15d846; " locus_tag="ctg29_20"  />
<polygon class="clusterblast-orf" points="570,35 575,30 585,30 585,40 575,40 570,35 " description="&lt;b&gt;ctg29_21&lt;/b&gt;&lt;br&gt;ctg29 21&lt;br&gt;Location: 32711 - 33698" id="dummy-1_q19_0_all" style="stroke-width:1; stroke:black; fill:#1546d8; " locus_tag="ctg29_21"  />
<polygon class="clusterblast-orf" points="585,35 590,30 600,30 600,40 590,40 585,35 " description="&lt;b&gt;ctg29_22&lt;/b&gt;&lt;br&gt;ctg29 22&lt;br&gt;Location: 33697 - 34666" id="dummy-1_q20_0_all" style="stroke-width:1; stroke:black; fill:#d815a7; " locus_tag="ctg29_22"  />
<polygon class="clusterblast-orf" points="602,35 607,30 627,30 627,40 607,40 602,35 " description="&lt;b&gt;ctg29_23&lt;/b&gt;&lt;br&gt;ctg29 23&lt;br&gt;Location: 34811 - 36392" id="dummy-1_q21_0_all" style="stroke-width:1; stroke:black; fill:white; " locus_tag="ctg29_23"  />
<polygon class="clusterblast-orf" points="629,35 634,30 642,30 642,40 634,40 629,35 " description="&lt;b&gt;ctg29_24&lt;/b&gt;&lt;br&gt;ctg29 24&lt;br&gt;Location: 36534 - 37404" id="dummy-1_q22_0_all" style="stroke-width:1; stroke:black; fill:white; " locus_tag="ctg29_24"  />
<polygon class="clusterblast-orf" points="643,35 648,30 658,30 658,40 648,40 643,35 " description="&lt;b&gt;ctg29_25&lt;/b&gt;&lt;br&gt;ctg29 25&lt;br&gt;Location: 37423 - 38380" id="dummy-1_q23_0_all" style="stroke-width:1; stroke:black; fill:white; " locus_tag="ctg29_25"  />
<polygon class="clusterblast-orf" points="659,35 664,30 679,30 679,40 664,40 659,35 " description="&lt;b&gt;ctg29_26&lt;/b&gt;&lt;br&gt;ctg29 26&lt;br&gt;Location: 38477 - 39758" id="dummy-1_q24_0_all" style="stroke-width:1; stroke:black; fill:white; " locus_tag="ctg29_26"  />
<polygon class="clusterblast-orf" points="682,35 687,30 690,30 690,40 687,40 682,35 " description="&lt;b&gt;ctg29_27&lt;/b&gt;&lt;br&gt;ctg29 27&lt;br&gt;Location: 39949 - 40495" id="dummy-1_q25_0_all" style="stroke-width:1; stroke:black; fill:white; " locus_tag="ctg29_27"  />
</g>
<g class="clusterblast-cluster" label="BGC0001543" description="BGC0001543_c1: Chejuenolide A / chejuenolide B (7% of genes show similarity), transatpks"  >
<text class="clusterblast-acc" x="5" y="70"  >
<a xlink:href="https://mibig.secondarymetabolites.org/go/BGC0001543/1" target="_blank">BGC0001543</a>:                                                  Chejuenolide A / chejuenolide B (7% of genes show similarity), transatpks</text>
<line y1="85" y2="85" style="stroke-width:1; stroke:grey; " x1="10" x2="778.0"  />
</g>
<g id="a1_000"  >
<polygon class="clusterblast-orf" points="0,85 5,80 16,80 16,90 5,90 0,85 " description="&lt;b&gt;CCG06129.1&lt;/b&gt;&lt;br&gt;hypothetical protein&lt;br&gt;Location: 50609 - 49530" id="dummy-1_h1_2_0" style="stroke-width:1; stroke:black; fill:white; " locus_tag="CCG06129.1"  />
</g>
<g id="a1_001"  >
<polygon class="clusterblast-orf" points="21,85 26,80 34,80 34,90 26,90 21,85 " description="&lt;b&gt;CCG06128.1&lt;/b&gt;&lt;br&gt;putative transcriptional regulater&lt;br&gt;Location: 49250 - 48357" id="dummy-1_h1_2_1" style="stroke-width:1; stroke:black; fill:white; " locus_tag="CCG06128.1"  />
</g>
<g id="a1_002"  >
<polygon class="clusterblast-orf" points="36,90 40,90 45,85 40,80 36,80 36,90 " description="&lt;b&gt;CCG06127.1&lt;/b&gt;&lt;br&gt;putative NADPH-quinone reductase&lt;br&gt;Location: 48233 - 47682" id="dummy-1_h1_2_2" style="stroke-width:1; stroke:black; fill:white; " locus_tag="CCG06127.1"  />
</g>
<g id="a1_003"  >
<polygon class="clusterblast-orf" points="50,85 55,80 78,80 78,90 55,90 50,85 " description="&lt;b&gt;CCG06126.1&lt;/b&gt;&lt;br&gt;putative aminopeptidase&lt;br&gt;Location: 47344 - 45557" id="dummy-1_h1_2_3" style="stroke-width:1; stroke:black; fill:white; " locus_tag="CCG06126.1"  />
</g>
<g id="a1_004"  >
<polygon class="clusterblast-orf" points="80,85 85,80 95,80 95,90 85,90 80,85 " description="&lt;b&gt;CCG06125.1&lt;/b&gt;&lt;br&gt;putative oligopeptide ABC transporter, ATPase&lt;br&gt;Location: 45430 - 44435&lt;br&gt;&lt;br&gt;&lt;b&gt;BlastP hit with ctg29_21&lt;/b&gt;&lt;br&gt;Percentage identity: 51&lt;br&gt;Percentage coverage: 99&lt;br&gt;BLAST bit score: 319&lt;br&gt;E-value: 8e-87" id="dummy-1_h1_2_4" style="stroke-width:1; stroke:black; fill:#1546d8; " locus_tag="CCG06125.1"  />
</g>
<g id="a1_005"  >
<polygon class="clusterblast-orf" points="96,85 101,80 111,80 111,90 101,90 96,85 " description="&lt;b&gt;CCG06124.1&lt;/b&gt;&lt;br&gt;putative dipeptide/oligopeptide/nickel ABC transporter, ATPase&lt;br&gt;Location: 44410 - 43445&lt;br&gt;&lt;br&gt;&lt;b&gt;BlastP hit with ctg29_22&lt;/b&gt;&lt;br&gt;Percentage identity: 49&lt;br&gt;Percentage coverage: 95&lt;br&gt;BLAST bit score: 284&lt;br&gt;E-value: 2.1e-76" id="dummy-1_h1_2_5" style="stroke-width:1; stroke:black; fill:#d815a7; " locus_tag="CCG06124.1"  />
</g>
<g id="a1_006"  >
<polygon class="clusterblast-orf" points="112,85 117,80 125,80 125,90 117,90 112,85 " description="&lt;b&gt;CCG06123.1&lt;/b&gt;&lt;br&gt;putative dipeptide/oligopeptide/nickel ABC transporter, permease&lt;br&gt;Location: 43350 - 42517" id="dummy-1_h1_2_6" style="stroke-width:1; stroke:black; fill:white; " locus_tag="CCG06123.1"  />
</g>
<g id="a1_007"  >
<polygon class="clusterblast-orf" points="127,85 132,80 141,80 141,90 132,90 127,85 " description="&lt;b&gt;CCG06122.1&lt;/b&gt;&lt;br&gt;putative dipeptide/oligopeptide/nickel ABC transporter, permease&lt;br&gt;Location: 42408 - 41488" id="dummy-1_h1_2_7" style="stroke-width:1; stroke:black; fill:white; " locus_tag="CCG06122.1"  />
</g>
<g id="a1_008"  >
<polygon class="clusterblast-orf" points="142,85 147,80 167,80 167,90 147,90 142,85 " description="&lt;b&gt;CCG06121.1&lt;/b&gt;&lt;br&gt;putative oligopeptide ABC transporter, periplasmic protein&lt;br&gt;Location: 41404 - 39788" id="dummy-1_h1_2_8" style="stroke-width:1; stroke:black; fill:white; " locus_tag="CCG06121.1"  />
</g>
<g id="a1_009"  >
<polygon class="clusterblast-orf" points="180,90 181,90 186,85 181,80 180,80 180,90 " description="&lt;b&gt;CCG06120.1&lt;/b&gt;&lt;br&gt;hypothetical protein&lt;br&gt;Location: 38963 - 38583" id="dummy-1_h1_2_9" style="stroke-width:1; stroke:black; fill:white; " locus_tag="CCG06120.1"  />
</g>
<g id="a1_0010"  >
<polygon class="clusterblast-orf" points="187,90 190,90 195,85 190,80 187,80 187,90 " description="&lt;b&gt;CCG06119.1&lt;/b&gt;&lt;br&gt;hypothetical protein&lt;br&gt;Location: 38496 - 38020" id="dummy-1_h1_2_10" style="stroke-width:1; stroke:black; fill:white; " locus_tag="CCG06119.1"  />
</g>
<g id="a1_0011"  >
<polygon class="clusterblast-orf" points="207,90 209,90 214,85 209,80 207,80 207,90 " description="&lt;b&gt;CCG06118.1&lt;/b&gt;&lt;br&gt;hypothetical protein&lt;br&gt;Location: 37230 - 36787" id="dummy-1_h1_2_11" style="stroke-width:1; stroke:black; fill:white; " locus_tag="CCG06118.1"  />
</g>
<g id="a1_0012"  >
<polygon class="clusterblast-orf" points="223,90 228,90 233,85 228,80 223,80 223,90 " description="&lt;b&gt;CCG06117.1&lt;/b&gt;&lt;br&gt;putative haloacid dehalogenase&lt;br&gt;Location: 36205 - 35576" id="dummy-1_h1_2_12" style="stroke-width:1; stroke:black; fill:white; " locus_tag="CCG06117.1"  />
</g>
<g id="a1_0013"  >
<polygon class="clusterblast-orf" points="235,85 240,80 247,80 247,90 240,90 235,85 " description="&lt;b&gt;CCG06116.1&lt;/b&gt;&lt;br&gt;putative transcriptional regulator&lt;br&gt;Location: 35405 - 34641" id="dummy-1_h1_2_13" style="stroke-width:1; stroke:black; fill:white; " locus_tag="CCG06116.1"  />
</g>
<g id="a1_0014"  >
<polygon class="clusterblast-orf" points="265,90 338,90 343,85 338,80 265,80 265,90 " description="&lt;b&gt;CCG06115.1&lt;/b&gt;&lt;br&gt;hybrid NRPS/PKS&lt;br&gt;Location: 33473 - 28431" id="dummy-1_h1_2_14" style="stroke-width:1; stroke:black; fill:white; " locus_tag="CCG06115.1"  />
</g>
<g id="a1_0015"  >
<polygon class="clusterblast-orf" points="343,90 351,90 356,85 351,80 343,80 343,90 " description="&lt;b&gt;CCG06114.1&lt;/b&gt;&lt;br&gt;type I polyketide synthase&lt;br&gt;Location: 28462 - 27605" id="dummy-1_h1_2_15" style="stroke-width:1; stroke:black; fill:white; " locus_tag="CCG06114.1"  />
</g>
<g id="a1_0016"  >
<polygon class="clusterblast-orf" points="356,90 440,90 445,85 440,80 356,80 356,90 " description="&lt;b&gt;CCG06113.1&lt;/b&gt;&lt;br&gt;type I polyketide synthase&lt;br&gt;Location: 27598 - 21863" id="dummy-1_h1_2_16" style="stroke-width:1; stroke:black; fill:white; " locus_tag="CCG06113.1"  />
</g>
<g id="a1_0017"  >
<polygon class="clusterblast-orf" points="446,90 455,90 460,85 455,80 446,80 446,90 " description="&lt;b&gt;CCG06112.1&lt;/b&gt;&lt;br&gt;type I polyketide synthase&lt;br&gt;Location: 21800 - 20919" id="dummy-1_h1_2_17" style="stroke-width:1; stroke:black; fill:white; " locus_tag="CCG06112.1"  />
</g>
<g id="a1_0018"  >
<polygon class="clusterblast-orf" points="460,90 477,90 482,85 477,80 460,80 460,90 " description="&lt;b&gt;CCG06111.1&lt;/b&gt;&lt;br&gt;amine oxidase&lt;br&gt;Location: 20900 - 19482" id="dummy-1_h1_2_18" style="stroke-width:1; stroke:black; fill:white; " locus_tag="CCG06111.1"  />
</g>
<g id="a1_0019"  >
<polygon class="clusterblast-orf" points="482,90 486,90 491,85 486,80 482,80 482,90 " description="&lt;b&gt;CCG06110.1&lt;/b&gt;&lt;br&gt;putative isochorismatase&lt;br&gt;Location: 19469 - 18915" id="dummy-1_h1_2_19" style="stroke-width:1; stroke:black; fill:white; " locus_tag="CCG06110.1"  />
</g>
<g id="a1_0020"  >
<polygon class="clusterblast-orf" points="493,90 597,90 602,85 597,80 493,80 493,90 " description="&lt;b&gt;CCG06109.1&lt;/b&gt;&lt;br&gt;type I polyketide synthase&lt;br&gt;Location: 18803 - 11766" id="dummy-1_h1_2_20" style="stroke-width:1; stroke:black; fill:white; " locus_tag="CCG06109.1"  />
</g>
<g id="a1_0021"  >
<polygon class="clusterblast-orf" points="602,90 646,90 651,85 646,80 602,80 602,90 " description="&lt;b&gt;CCG06108.1&lt;/b&gt;&lt;br&gt;type I polyketide synthase&lt;br&gt;Location: 11776 - 8576" id="dummy-1_h1_2_21" style="stroke-width:1; stroke:black; fill:white; " locus_tag="CCG06108.1"  />
</g>
<g id="a1_0022"  >
<polygon class="clusterblast-orf" points="652,90 667,90 672,85 667,80 652,80 652,90 " description="&lt;b&gt;CCG06107.1&lt;/b&gt;&lt;br&gt;putative major facilitator superfamily permease&lt;br&gt;Location: 8507 - 7212" id="dummy-1_h1_2_22" style="stroke-width:1; stroke:black; fill:white; " locus_tag="CCG06107.1"  />
</g>
<g id="a1_0023"  >
<polygon class="clusterblast-orf" points="687,90 742,90 747,85 742,80 687,80 687,90 " description="&lt;b&gt;CCG06106.1&lt;/b&gt;&lt;br&gt;putative transmembrane protein&lt;br&gt;Location: 6300 - 2431" id="dummy-1_h1_2_23" style="stroke-width:1; stroke:black; fill:white; " locus_tag="CCG06106.1"  />
</g>
<g id="a1_0024"  >
<polygon class="clusterblast-orf" points="752,90 759,90 764,85 759,80 752,80 752,90 " description="&lt;b&gt;CCG06105.1&lt;/b&gt;&lt;br&gt;putative amino acid ABC transporter, periplasmic protein&lt;br&gt;Location: 2082 - 1327" id="dummy-1_h1_2_24" style="stroke-width:1; stroke:black; fill:white; " locus_tag="CCG06105.1"  />
</g>
<g id="a1_0025"  >
<polygon class="clusterblast-orf" points="768,90 775,90 780,85 775,80 768,80 768,90 " description="&lt;b&gt;CCG06104.1&lt;/b&gt;&lt;br&gt;putative amino acid ABC transporter, periplasmic protein&lt;br&gt;Location: 1071 - 307" id="dummy-1_h1_2_25" style="stroke-width:1; stroke:black; fill:white; " locus_tag="CCG06104.1"  />
</g>
</svg>
