<svg height="230" xmlns:xlink="http://www.w3.org/1999/xlink" xmlns="http://www.w3.org/2000/svg" x="0" width="800" preserveAspectRatio="none" version="1.1" viewBox="0 0 800 230" y="0"  >
<g class="clusterblast-cluster" label="Query sequence"  >
<text class="clusterblast-acc" x="5" y="20"  >
Query sequence</text>
<line y1="35" y2="35" style="stroke-width:1; stroke:grey; " x1="10" x2="778.0"  />
<polygon class="clusterblast-orf" points="0,35 5,30 18,30 18,40 5,40 0,35 " description="&lt;b&gt;ctg29_2&lt;/b&gt;&lt;br&gt;ctg29 2&lt;br&gt;Location: 1704 - 2634" id="dummy-1_q0_0_all" style="stroke-width:1; stroke:black; fill:white; " locus_tag="ctg29_2"  />
<polygon class="clusterblast-orf" points="23,40 43,40 48,35 43,30 23,30 23,40 " description="&lt;b&gt;ctg29_3&lt;/b&gt;&lt;br&gt;ctg29 3&lt;br&gt;Location: 2862 - 4107" id="dummy-1_q1_0_all" style="stroke-width:1; stroke:black; fill:white; " locus_tag="ctg29_3"  />
<polygon class="clusterblast-orf" points="49,35 54,30 69,30 69,40 54,40 49,35 " description="&lt;b&gt;ctg29_4&lt;/b&gt;&lt;br&gt;ctg29 4&lt;br&gt;Location: 4173 - 5169" id="dummy-1_q2_0_all" style="stroke-width:1; stroke:black; fill:white; " locus_tag="ctg29_4"  />
<polygon class="clusterblast-orf" points="70,35 72,30 72,40 70,35 " description="&lt;b&gt;ctg29_5&lt;/b&gt;&lt;br&gt;ctg29 5&lt;br&gt;Location: 5198 - 5309" id="dummy-1_q3_0_all" style="stroke-width:1; stroke:black; fill:white; " locus_tag="ctg29_5"  />
<polygon class="clusterblast-orf" points="74,35 79,30 125,30 125,40 79,40 74,35 " description="&lt;b&gt;ctg29_6&lt;/b&gt;&lt;br&gt;ctg29 6&lt;br&gt;Location: 5423 - 7931" id="dummy-1_q4_0_all" style="stroke-width:1; stroke:black; fill:white; " locus_tag="ctg29_6"  />
<polygon class="clusterblast-orf" points="125,35 130,30 142,30 142,40 130,40 125,35 " description="&lt;b&gt;ctg29_7&lt;/b&gt;&lt;br&gt;ctg29 7&lt;br&gt;Location: 7930 - 8776" id="dummy-1_q5_0_all" style="stroke-width:1; stroke:black; fill:white; " locus_tag="ctg29_7"  />
<polygon class="clusterblast-orf" points="142,35 147,30 161,30 161,40 147,40 142,35 " description="&lt;b&gt;ctg29_8&lt;/b&gt;&lt;br&gt;ctg29 8&lt;br&gt;Location: 8772 - 9735" id="dummy-1_q6_0_all" style="stroke-width:1; stroke:black; fill:white; " locus_tag="ctg29_8"  />
<polygon class="clusterblast-orf" points="164,35 169,30 192,30 192,40 169,40 164,35 " description="&lt;b&gt;ctg29_9&lt;/b&gt;&lt;br&gt;ctg29 9&lt;br&gt;Location: 9898 - 11266" id="dummy-1_q7_0_all" style="stroke-width:1; stroke:black; fill:white; " locus_tag="ctg29_9"  />
<polygon class="clusterblast-orf" points="195,40 205,40 210,35 205,30 195,30 195,40 " description="&lt;b&gt;ctg29_10&lt;/b&gt;&lt;br&gt;ctg29 10&lt;br&gt;Location: 11397 - 12168" id="dummy-1_q8_0_all" style="stroke-width:1; stroke:black; fill:white; " locus_tag="ctg29_10"  />
<polygon class="clusterblast-orf" points="216,35 221,30 273,30 273,40 221,40 216,35 " description="&lt;b&gt;ctg29_11&lt;/b&gt;&lt;br&gt;ctg29 11&lt;br&gt;Location: 12465 - 15309" id="dummy-1_q9_0_all" style="stroke-width:1; stroke:black; fill:white; " locus_tag="ctg29_11"  />
<polygon class="clusterblast-orf" points="274,35 279,30 324,30 324,40 279,40 274,35 " description="&lt;b&gt;ctg29_12&lt;/b&gt;&lt;br&gt;ctg29 12&lt;br&gt;Location: 15359 - 17822" id="dummy-1_q10_0_all" style="stroke-width:1; stroke:black; fill:white; " locus_tag="ctg29_12"  />
<polygon class="clusterblast-orf" points="326,35 331,30 340,30 340,40 331,40 326,35 " description="&lt;b&gt;ctg29_13&lt;/b&gt;&lt;br&gt;ctg29 13&lt;br&gt;Location: 17932 - 18625" id="dummy-1_q11_0_all" style="stroke-width:1; stroke:black; fill:#d81515; " locus_tag="ctg29_13"  />
<polygon class="clusterblast-orf" points="341,35 346,30 350,30 350,40 346,40 341,35 " description="&lt;b&gt;ctg29_14&lt;/b&gt;&lt;br&gt;ctg29 14&lt;br&gt;Location: 18681 - 19107" id="dummy-1_q12_0_all" style="stroke-width:1; stroke:black; fill:#77d815; " locus_tag="ctg29_14"  />
<polygon class="clusterblast-orf" points="351,35 356,30 361,30 361,40 356,40 351,35 " description="&lt;b&gt;ctg29_15&lt;/b&gt;&lt;br&gt;ctg29 15&lt;br&gt;Location: 19175 - 19691" id="dummy-1_q13_0_all" style="stroke-width:1; stroke:black; fill:white; " locus_tag="ctg29_15"  />
<polygon class="clusterblast-orf" points="362,35 366,30 366,40 362,35 " description="&lt;b&gt;ctg29_16&lt;/b&gt;&lt;br&gt;ctg29 16&lt;br&gt;Location: 19707 - 19932" id="dummy-1_q14_0_all" style="stroke-width:1; stroke:black; fill:white; " locus_tag="ctg29_16"  />
<polygon class="clusterblast-orf" points="374,35 379,30 387,30 387,40 379,40 374,35 " description="&lt;b&gt;ctg29_17&lt;/b&gt;&lt;br&gt;ctg29 17&lt;br&gt;Location: 20329 - 20965" id="dummy-1_q15_0_all" style="stroke-width:1; stroke:black; fill:#15d8d8; " locus_tag="ctg29_17"  />
<polygon class="clusterblast-orf" points="391,35 396,30 397,30 397,40 396,40 391,35 " description="&lt;b&gt;ctg29_18&lt;/b&gt;&lt;br&gt;ctg29 18&lt;br&gt;Location: 21182 - 21485" id="dummy-1_q16_0_all" style="stroke-width:1; stroke:black; fill:#7715d8; " locus_tag="ctg29_18"  />
<polygon class="clusterblast-orf" points="401,35 406,30 582,30 582,40 406,40 401,35 " description="&lt;b&gt;ctg29_19&lt;/b&gt;&lt;br&gt;ctg29 19&lt;br&gt;Location: 21659 - 30650" id="dummy-1_q17_0_all" style="stroke-width:1; stroke:black; fill:#d8a715; " locus_tag="ctg29_19"  />
<polygon class="clusterblast-orf" points="582,35 587,30 617,30 617,40 587,40 582,35 " description="&lt;b&gt;ctg29_20&lt;/b&gt;&lt;br&gt;ctg29 20&lt;br&gt;Location: 30662 - 32408" id="dummy-1_q18_0_all" style="stroke-width:1; stroke:black; fill:#15d846; " locus_tag="ctg29_20"  />
<polygon class="clusterblast-orf" points="623,35 628,30 643,30 643,40 628,40 623,35 " description="&lt;b&gt;ctg29_21&lt;/b&gt;&lt;br&gt;ctg29 21&lt;br&gt;Location: 32711 - 33698" id="dummy-1_q19_0_all" style="stroke-width:1; stroke:black; fill:#1546d8; " locus_tag="ctg29_21"  />
<polygon class="clusterblast-orf" points="643,35 648,30 662,30 662,40 648,40 643,35 " description="&lt;b&gt;ctg29_22&lt;/b&gt;&lt;br&gt;ctg29 22&lt;br&gt;Location: 33697 - 34666" id="dummy-1_q20_0_all" style="stroke-width:1; stroke:black; fill:#d815a7; " locus_tag="ctg29_22"  />
<polygon class="clusterblast-orf" points="665,35 670,30 697,30 697,40 670,40 665,35 " description="&lt;b&gt;ctg29_23&lt;/b&gt;&lt;br&gt;ctg29 23&lt;br&gt;Location: 34811 - 36392" id="dummy-1_q21_0_all" style="stroke-width:1; stroke:black; fill:white; " locus_tag="ctg29_23"  />
<polygon class="clusterblast-orf" points="700,35 705,30 718,30 718,40 705,40 700,35 " description="&lt;b&gt;ctg29_24&lt;/b&gt;&lt;br&gt;ctg29 24&lt;br&gt;Location: 36534 - 37404" id="dummy-1_q22_0_all" style="stroke-width:1; stroke:black; fill:white; " locus_tag="ctg29_24"  />
<polygon class="clusterblast-orf" points="718,35 723,30 737,30 737,40 723,40 718,35 " description="&lt;b&gt;ctg29_25&lt;/b&gt;&lt;br&gt;ctg29 25&lt;br&gt;Location: 37423 - 38380" id="dummy-1_q23_0_all" style="stroke-width:1; stroke:black; fill:white; " locus_tag="ctg29_25"  />
<polygon class="clusterblast-orf" points="739,35 744,30 765,30 765,40 744,40 739,35 " description="&lt;b&gt;ctg29_26&lt;/b&gt;&lt;br&gt;ctg29 26&lt;br&gt;Location: 38477 - 39758" id="dummy-1_q24_0_all" style="stroke-width:1; stroke:black; fill:white; " locus_tag="ctg29_26"  />
<polygon class="clusterblast-orf" points="769,35 774,30 780,30 780,40 774,40 769,35 " description="&lt;b&gt;ctg29_27&lt;/b&gt;&lt;br&gt;ctg29 27&lt;br&gt;Location: 39949 - 40495" id="dummy-1_q25_0_all" style="stroke-width:1; stroke:black; fill:white; " locus_tag="ctg29_27"  />
</g>
<g class="clusterblast-cluster" label="BGC0001575" description="BGC0001575_c1: Dipeptide aldehydes (23% of genes show similarity), nrps"  >
<text class="clusterblast-acc" x="5" y="70"  >
<a xlink:href="https://mibig.secondarymetabolites.org/go/BGC0001575/1" target="_blank">BGC0001575</a>:                                                              Dipeptide aldehydes (23% of genes show similarity), nrps</text>
<line y1="85" y2="85" style="stroke-width:1; stroke:grey; " x1="10" x2="778.0"  />
</g>
<g id="a1_000"  >
<polygon class="clusterblast-orf" points="100,85 105,80 113,80 113,90 105,90 100,85 " description="&lt;b&gt;RSAG_RS12315&lt;/b&gt;&lt;br&gt;4'-phosphopantetheinyl transferase&lt;br&gt;Location: 29972 - 29325&lt;br&gt;&lt;br&gt;&lt;b&gt;BlastP hit with ctg29_17&lt;/b&gt;&lt;br&gt;Percentage identity: 72&lt;br&gt;Percentage coverage: 96&lt;br&gt;BLAST bit score: 297&lt;br&gt;E-value: 2.1e-80" id="dummy-1_h1_1_0" style="stroke-width:1; stroke:black; fill:#15d8d8; " locus_tag="RSAG_RS12315"  />
</g>
<g id="a1_001"  >
<polygon class="clusterblast-orf" points="113,85 118,80 119,80 119,90 118,90 113,85 " description="&lt;b&gt;RSAG_RS12310&lt;/b&gt;&lt;br&gt;anti-sigma factor antagonist&lt;br&gt;Location: 29313 - 29011&lt;br&gt;&lt;br&gt;&lt;b&gt;BlastP hit with ctg29_18&lt;/b&gt;&lt;br&gt;Percentage identity: 77&lt;br&gt;Percentage coverage: 100&lt;br&gt;BLAST bit score: 157&lt;br&gt;E-value: 1.2e-38" id="dummy-1_h1_1_1" style="stroke-width:1; stroke:black; fill:#7715d8; " locus_tag="RSAG_RS12310"  />
</g>
<g id="a1_002"  >
<polygon class="clusterblast-orf" points="120,85 125,80 300,80 300,90 125,90 120,85 " description="&lt;b&gt;RSAG_RS12305&lt;/b&gt;&lt;br&gt;non-ribosomal peptide synthetase&lt;br&gt;Location: 28991 - 20001&lt;br&gt;&lt;br&gt;&lt;b&gt;BlastP hit with ctg29_19&lt;/b&gt;&lt;br&gt;Percentage identity: 85&lt;br&gt;Percentage coverage: 100&lt;br&gt;BLAST bit score: 5221&lt;br&gt;E-value: 0.0" id="dummy-1_h1_1_2" style="stroke-width:1; stroke:black; fill:#d8a715; " locus_tag="RSAG_RS12305"  />
</g>
<g id="a1_003"  >
<polygon class="clusterblast-orf" points="301,85 306,80 336,80 336,90 306,90 301,85 " description="&lt;b&gt;RSAG_RS12300&lt;/b&gt;&lt;br&gt;hypothetical protein&lt;br&gt;Location: 19993 - 18248&lt;br&gt;&lt;br&gt;&lt;b&gt;BlastP hit with ctg29_20&lt;/b&gt;&lt;br&gt;Percentage identity: 85&lt;br&gt;Percentage coverage: 100&lt;br&gt;BLAST bit score: 967&lt;br&gt;E-value: 9.9e-282" id="dummy-1_h1_1_3" style="stroke-width:1; stroke:black; fill:#15d846; " locus_tag="RSAG_RS12300"  />
</g>
<g id="a1_004"  >
<polygon class="clusterblast-orf" points="338,85 343,80 376,80 376,90 343,90 338,85 " description="&lt;b&gt;RSAG_RS12295&lt;/b&gt;&lt;br&gt;hypothetical protein&lt;br&gt;Location: 18115 - 16244" id="dummy-1_h1_1_4" style="stroke-width:1; stroke:black; fill:white; " locus_tag="RSAG_RS12295"  />
</g>
<g id="a1_005"  >
<polygon class="clusterblast-orf" points="379,85 384,80 387,80 387,90 384,90 379,85 " description="&lt;b&gt;RSAG_RS12290&lt;/b&gt;&lt;br&gt;hypothetical protein&lt;br&gt;Location: 16092 - 15694" id="dummy-1_h1_1_5" style="stroke-width:1; stroke:black; fill:white; " locus_tag="RSAG_RS12290"  />
</g>
<g id="a1_006"  >
<polygon class="clusterblast-orf" points="389,85 394,80 406,80 406,90 394,90 389,85 " description="&lt;b&gt;RSAG_RS12285&lt;/b&gt;&lt;br&gt;deoxyribonuclease IV&lt;br&gt;Location: 15595 - 14759" id="dummy-1_h1_1_6" style="stroke-width:1; stroke:black; fill:white; " locus_tag="RSAG_RS12285"  />
</g>
<g id="a1_007"  >
<polygon class="clusterblast-orf" points="414,85 419,80 423,80 423,90 419,90 414,85 " description="&lt;b&gt;RSAG_RS12280&lt;/b&gt;&lt;br&gt;VanZ family protein&lt;br&gt;Location: 14369 - 13926" id="dummy-1_h1_1_7" style="stroke-width:1; stroke:black; fill:white; " locus_tag="RSAG_RS12280"  />
</g>
<g id="a1_008"  >
<polygon class="clusterblast-orf" points="440,85 445,80 455,80 455,90 445,90 440,85 " description="&lt;b&gt;RSAG_RS12275&lt;/b&gt;&lt;br&gt;toll/interleukin-1 receptor domain-containing protein&lt;br&gt;Location: 13047 - 12340" id="dummy-1_h1_1_8" style="stroke-width:1; stroke:black; fill:white; " locus_tag="RSAG_RS12275"  />
</g>
<g id="a1_009"  >
<polygon class="clusterblast-orf" points="460,85 465,80 494,80 494,90 465,90 460,85 " description="&lt;b&gt;RSAG_RS12270&lt;/b&gt;&lt;br&gt;transposase&lt;br&gt;Location: 12086 - 10395" id="dummy-1_h1_1_9" style="stroke-width:1; stroke:black; fill:white; " locus_tag="RSAG_RS12270"  />
</g>
<g id="a1_0010"  >
<polygon class="clusterblast-orf" points="498,85 503,80 513,80 513,90 503,90 498,85 " description="&lt;b&gt;RSAG_RS12265&lt;/b&gt;&lt;br&gt;SDR family oxidoreductase&lt;br&gt;Location: 10194 - 9439" id="dummy-1_h1_1_10" style="stroke-width:1; stroke:black; fill:white; " locus_tag="RSAG_RS12265"  />
</g>
<g id="a1_0011"  >
<polygon class="clusterblast-orf" points="513,85 518,80 570,80 570,90 518,90 513,85 " description="&lt;b&gt;RSAG_RS12260&lt;/b&gt;&lt;br&gt;FAD-dependent oxidoreductase&lt;br&gt;Location: 9425 - 6615" id="dummy-1_h1_1_11" style="stroke-width:1; stroke:black; fill:white; " locus_tag="RSAG_RS12260"  />
</g>
<g id="a1_0012"  >
<polygon class="clusterblast-orf" points="577,90 600,90 605,85 600,80 577,80 577,90 " description="&lt;b&gt;RSAG_RS12255&lt;/b&gt;&lt;br&gt;hypothetical protein&lt;br&gt;Location: 6258 - 4864" id="dummy-1_h1_1_12" style="stroke-width:1; stroke:black; fill:white; " locus_tag="RSAG_RS12255"  />
</g>
<g id="a1_0013"  >
<polygon class="clusterblast-orf" points="607,85 612,80 627,80 627,90 612,90 607,85 " description="&lt;b&gt;RSAG_RS12250&lt;/b&gt;&lt;br&gt;bile acid:sodium symporter family protein&lt;br&gt;Location: 4739 - 3756" id="dummy-1_h1_1_13" style="stroke-width:1; stroke:black; fill:white; " locus_tag="RSAG_RS12250"  />
</g>
<g id="a1_0014"  >
<polygon class="clusterblast-orf" points="627,85 632,80 644,80 644,90 632,90 627,85 " description="&lt;b&gt;RSAG_RS12245&lt;/b&gt;&lt;br&gt;pantoate--beta-alanine ligase&lt;br&gt;Location: 3752 - 2913" id="dummy-1_h1_1_14" style="stroke-width:1; stroke:black; fill:white; " locus_tag="RSAG_RS12245"  />
</g>
<g id="a1_0015"  >
<polygon class="clusterblast-orf" points="646,85 651,80 654,80 654,90 651,90 646,85 " description="&lt;b&gt;RSAG_RS12240&lt;/b&gt;&lt;br&gt;aspartate 1-decarboxylase&lt;br&gt;Location: 2803 - 2411" id="dummy-1_h1_1_15" style="stroke-width:1; stroke:black; fill:white; " locus_tag="RSAG_RS12240"  />
</g>
<g id="a1_0016"  >
<polygon class="clusterblast-orf" points="675,90 679,85 675,80 675,90 " description="&lt;b&gt;RSAG_RS12235&lt;/b&gt;&lt;br&gt;hypothetical protein&lt;br&gt;Location: 1384 - 1175" id="dummy-1_h1_1_16" style="stroke-width:1; stroke:black; fill:white; " locus_tag="RSAG_RS12235"  />
</g>
</svg>
